<?xml version="1.0" encoding="utf-8"?>
<!-- Generator: Adobe Illustrator 21.0.0, SVG Export Plug-In . SVG Version: 6.00 Build 0)  -->
<svg version="1.1" id="Слой_1" xmlns="http://www.w3.org/2000/svg" xmlns:xlink="http://www.w3.org/1999/xlink" x="0px" y="0px"
	 viewBox="0 0 94.7 78" style="enable-background:new 0 0 94.7 78;" xml:space="preserve">
<style type="text/css">
	.st0{fill:#5E94FD;}
</style>
<g id="ZEC">
	<polygon class="st0" points="32.2,19.2 42.7,19.2 42.7,11.6 51.6,11.6 51.6,19.2 62.8,19.2 62.8,29 45.3,49.1 62.8,49.1 62.8,58.8 
		51.8,58.8 51.8,66.4 42.8,66.4 42.8,58.5 32.2,58.5 32.2,49.1 49.9,28.1 32.2,28.1 	"/>
	<path class="st0" d="M47.5,78c-21.5,0-39-17.5-39-39S26,0,47.5,0s39,17.5,39,39S69,78,47.5,78z M47.5,2c-20.4,0-37,16.6-37,37
		s16.6,37,37,37s37-16.6,37-37S67.9,2,47.5,2z"/>
</g>
</svg>
