<svg xmlns="http://www.w3.org/2000/svg" width="15" height="21">
  <path fill="#FFF" d="M14.4091 10.9736c-.4823-.6284-1.21-1.06-2.1832-1.2946 1.2393-.637 1.784-1.718 1.6344-3.2434-.05-.5531-.2017-1.0325-.4555-1.4389-.254-.4064-.5967-.7331-1.0294-.9803-.4324-.2475-.9027-.436-1.4098-.5658-.5072-.1299-1.0896-.2242-1.7466-.2828V0H7.298v3.0798c-.3327 0-.84.0084-1.5219.0251V0H3.8548v3.1678c-.2745.0084-.6778.0127-1.21.0127L0 3.1678v2.0616h1.3847c.632 0 1.0022.285 1.1103.8548V9.692c.0832 0 .1497.0043.1997.0127H2.495v5.0532c-.0665.4273-.3076.6411-.7235.6411H.3869L0 17.6995h2.495c.1581 0 .3867.0021.6862.0059.2994.0042.5239.0063.6736.0063v3.2055h1.9216v-3.1678c.3492.0086.8565.0127 1.5219.0127v3.155h1.921v-3.2054c.6822-.0334 1.2872-.096 1.815-.1884.5282-.0926 1.0336-.2369 1.5158-.434.4823-.1968.8856-.442 1.2099-.7354.3245-.293.5925-.6661.8049-1.1187.2118-.4527.347-.9764.4051-1.5716.1086-1.1645-.0786-2.0613-.561-2.69zM5.8135 5.3673c.0582 0 .2225-.0021.4928-.0063a91.529 91.529 0 0 0 .6737-.0127c.1788-.0041.42.0063.7237.0315.3035.0251.5592.0587.7671.1005.2079.0419.4368.111.686.2074.2498.0963.4493.2137.5988.352.1498.1382.2766.3143.3804.528.104.2137.156.4588.156.7353 0 .2346-.0373.4484-.112.6412-.0747.1928-.1872.3541-.3368.484a3.4134 3.4134 0 0 1-.4617.3395c-.158.0963-.3598.1739-.605.2325-.2453.0586-.4594.1047-.6423.1382-.183.0336-.4116.0567-.6861.0692-.2746.0125-.4826.021-.6239.0252-.1414.0041-.3347.0041-.5802 0a47.4868 47.4868 0 0 0-.4304-.0064V5.3673h-.0001zm5.246 8.5605c-.0792.1928-.181.3605-.3056.503-.1249.1423-.2892.2681-.4929.377-.2036.109-.4013.1969-.5924.264-.1914.0672-.4223.1256-.6923.176-.2707.0504-.5076.0858-.7115.1068-.2037.021-.4469.0377-.7297.0504-.2827.0123-.5032.0187-.6612.0187-.158 0-.3577-.0023-.5989-.0064a40.092 40.092 0 0 0-.4616-.006v-4.249c.0664 0 .264-.0041.5926-.0126s.5967-.0124.8046-.0124c.208 0 .495.0124.861.0377.3658.025.6735.0625.9232.1128.2495.0503.5216.1277.8171.2326.2952.1047.5344.2325.7174.3833.183.1511.3368.3436.4615.5783.125.2346.1874.5028.1874.8046 0 .2349-.0395.4483-.1187.6412z"/>
</svg>
