<?xml version="1.0" encoding="UTF-8"?>
<svg width="10px" height="10px" viewBox="0 0 12 14" version="1.1" xmlns="http://www.w3.org/2000/svg" xmlns:xlink="http://www.w3.org/1999/xlink">
    <!-- Generator: sketchtool 51 (57462) - http://www.bohemiancoding.com/sketch -->
    <title>CF71E22A-FEDA-4AAB-B583-1E8490CC639B</title>
    <desc>Created with sketchtool.</desc>
    <defs></defs>
    <g id="Page-1" stroke="none" stroke-width="2" fill="none" fill-rule="evenodd">
        <g id="Forgot-your-password?" transform="translate(-1210.000000, -43.000000)">
            <rect fill="transparent" x="0" y="0" width="1440" height="760"></rect>
            <g id="Group-6" transform="translate(1199.000000, 35.000000)" fill="#ccc" fill-rule="nonzero" opacity="
">
                <g id="blank-file-copy" transform="translate(17.000000, 15.000000) scale(-1, 1) rotate(-180.000000) translate(-17.000000, -15.000000) translate(11.000000, 8.000000)">
                    <path d="M11.8126651,4.15619313 C11.6876877,3.86456238 11.537787,3.6337479 11.3627004,3.46359005 L8.43765076,0.619719338 C8.26256416,0.449721116 8.0252187,0.303825929 7.72518751,0.182225323 C7.42528766,0.060752416 7.15027822,0 6.90038905,0 L0.899962229,0 C0.650007382,0 0.437486656,0.0850150729 0.262498561,0.255172917 C0.087477629,0.425234987 0,0.631850666 0,0.874956104 L0,13.125012 C0,13.3681813 0.087477629,13.5747969 0.262498561,13.7448909 C0.437519493,13.9148892 0.650007382,14 0.899995066,14 L11.1002347,14 C11.3501567,14 11.5625461,13.9148892 11.7375013,13.7448909 C11.9124566,13.5746692 11.9999999,13.3681813 11.9999999,13.125012 L11.9999999,4.95829742 C12.0000984,4.71522391 11.9376097,4.44782389 11.8126651,4.15619313 Z M7.20015755,1.23950252 C7.38131899,1.30025494 7.50941592,1.36716879 7.58448118,1.43998869 L10.5189879,4.2929579 C10.5938233,4.36593742 10.6626167,4.49044316 10.7250725,4.66666667 L7.20015755,4.66666667 L7.20015755,1.23950252 Z M10.8001706,12.8333812 L1.19996058,12.8333812 L1.19996058,1.16668263 L5.99999994,1.16668263 L5.99999994,4.95839319 C5.99999994,5.2014667 6.0874119,5.40801853 6.26243283,5.57817638 C6.43751943,5.74823845 6.64990881,5.83338122 6.90002784,5.83338122 L10.8001706,5.83338122 L10.8001706,12.8333812 Z" id="Shape"></path>
                </g>
            </g>
        </g>
    </g>
</svg>
