<svg xmlns="http://www.w3.org/2000/svg" width="114" height="46">
  <path fill="#ffffff" d="M8.8156 9.7006c-.5244-.376-1.099-.5516-2.0729-.6018-.4495-.025-.6991-.025-1.0738-.025-.0998 0-.1497.0502-.1497.1755v5.9404c0 1.6544.075 2.0806.874 2.4063.6742.2758 1.2486.3009 1.823.3009 1.1239 0 3.0218-.6018 3.0218-3.2086 0-1.554-.5244-3.6594-2.4224-4.9877zM5.5192 7.6954c0 .2006.075.2506.1748.2756.2248.0504.5993.0752 1.1738.0752.8241 0 1.3735-.1 1.798-.476.6492-.5265 1.0239-1.4287 1.0239-2.6569 0-1.6796-.974-3.8853-3.1218-3.8853-.3495 0-.5743 0-.824.0502-.175.0502-.2248.1504-.2248.426v6.1912h.0001zm-2.997-.4262c0-3.81 0-4.5119-.05-5.314-.05-.852-.2496-1.2532-1.0737-1.4286C1.1987.4766.774.4514.4245.4514.15.4514 0 .4012 0 .2258 0 .0503.1748.0003.5494 0c1.3236 0 2.897.0754 3.3964.0754C5.1695.0754 6.1436 0 6.9926.0003c4.5202 0 5.3194 2.4312 5.3194 3.7597 0 2.0554-1.1739 3.2834-2.5474 4.3865 2.048.7016 4.5451 2.4815 4.5451 5.4141 0 2.6821-2.0728 5.4642-6.668 5.4642-.2995 0-1.0237-.0502-1.7481-.0753-.7492-.05-1.4983-.0752-1.873-.0752-.2748 0-.8242 0-1.4235.0251-.5744 0-1.2236.05-1.7232.05-.3246 0-.4995-.0751-.4995-.2506 0-.1252.1-.2006.3997-.2006.3745 0 .6742-.05.899-.1.4995-.1004.6244-.6518.7242-1.3788.1248-1.0526.1248-3.033.1248-5.339V7.2693h.0002zm15.158 1.7296c0-3.2335.025-3.8351-.025-4.512-.05-.752-.2497-.9524-.949-1.153-.1748-.0503-.5495-.0752-.849-.0752-.2499 0-.3745-.0753-.3745-.2256 0-.1504.1497-.2006.4743-.2006 1.1738 0 2.6472.0502 3.2964.0502.5496 0 2.023-.0502 2.8221-.0502.3247 0 .4744.0502.4744.2006 0 .1503-.1248.2256-.3494.2256-.2499 0-.3747.025-.6492.0752-.5745.1002-.7493.401-.7994 1.153-.0499.6767-.0499 1.2785-.0499 4.512v2.9828c0 3.108.5993 4.3112 1.6731 5.1633.974.7773 2.023.8522 2.7723.8522.9487 0 2.0727-.2757 2.9466-1.128 1.2237-1.153 1.2737-3.0078 1.2737-5.1885V8.9988c0-3.2335-.025-3.8351-.05-4.512-.05-.7268-.2248-.9524-.924-1.153-.1747-.0503-.5494-.0752-.7992-.0752-.2498 0-.3746-.0753-.3746-.2256 0-.1504.15-.2006.4496-.2006 1.1238 0 2.5972.0502 2.6222.0502.25 0 1.7234-.0502 2.5722-.0502.2998 0 .4498.0502.4498.2006 0 .1503-.125.2256-.3747.2256-.2497 0-.3746.025-.6493.0752-.5994.1002-.749.401-.7991 1.153-.025.6767-.05 1.2785-.05 4.512v2.2809c0 2.3811-.2498 4.8878-2.0978 6.4167-1.5485 1.3034-3.2216 1.5289-4.6451 1.5289-1.149 0-3.4213-.05-5.0197-1.4537-1.1238-.9777-1.998-2.5566-1.998-5.6396V8.9988h.0001zm17.6805 9.675c-.3497-.1503-.4245-.2508-.4245-.7269 0-1.1531.0997-2.4814.1246-2.8323 0-.3258.1-.5516.2748-.5516.1999 0 .2248.2006.2248.351 0 .2757.075.7268.1999 1.1028.4745 1.579 2.1227 2.1057 3.4964 2.1057 1.8979 0 3.0466-1.2032 3.0466-2.707 0-.9275-.225-1.8549-2.1727-3.008l-1.2737-.752c-2.5972-1.529-3.4462-2.9579-3.4462-4.8376 0-2.6068 2.4974-4.2862 5.544-4.2862 1.4234 0 2.5475.2006 3.1217.3509.1999.05.2996.1252.2996.2758 0 .2758-.0748.8773-.0748 2.5567 0 .4511-.1.6766-.2748.6766-.1498 0-.2246-.1253-.2246-.3759 0-.2006-.1-.8523-.5745-1.4038-.3247-.4009-1.0237-1.0024-2.4475-1.0024-1.5731 0-2.9968.827-2.9968 2.2808 0 .9527.3496 1.7045 2.3224 2.8074l.8992.5011c2.8968 1.6044 3.796 3.2336 3.796 5.1637 0 1.5789-.5997 2.8575-2.1979 3.9854-1.0488.752-2.4973.877-3.671.877-1.2734.0001-2.6221-.1248-3.571-.5512zm13.1356-9.675c0-3.2335 0-3.8351-.0248-4.512-.05-.7268-.2748-.9775-.7493-1.128-.2497-.0753-.5245-.1-.7991-.1-.2247 0-.3498-.0502-.3498-.2508 0-.1253.1748-.1755.5246-.1755.8242 0 2.3224.0502 2.9467.0502.5496 0 1.973-.0502 2.8222-.0502.2746 0 .4496.0502.4496.1755 0 .2006-.1248.2508-.3498.2508-.2246 0-.3994.0248-.6491.0752-.5995.1002-.7742.401-.8242 1.153-.0499.6767-.0499 1.2785-.0499 4.512v3.7597c0 2.0553 0 3.7599.0997 4.6623.075.5764.225.9022.8741 1.0024.2996.0504.7992.0754 1.1238.0754.2497 0 .3496.1252.3496.2258 0 .1502-.1748.2254-.4247.2254-1.4483 0-2.9467-.0752-3.5462-.0752-.4994 0-1.9978.0752-2.8718.0752-.2748 0-.4246-.0752-.4246-.2254 0-.1004.075-.2258.3496-.2258.3247 0 .5744-.025.7741-.0754.4496-.1.5745-.4009.6493-1.0274.0997-.8773.0997-2.5819.0997-4.6372v-3.76h.0003zM58.985 16.042c.0499 1.6543.3247 2.1555.7492 2.3061.3746.1252.7991.1503 1.1487.1503.2497 0 .3747.1003.3747.2257 0 .1755-.1999.2255-.4995.2255-1.4234 0-2.4476-.0752-2.847-.0752-.1998 0-1.2486.0752-2.3725.0752-.2997 0-.4994-.0249-.4994-.2255 0-.1252.1499-.2257.3496-.2257.2997 0 .6991-.025.9991-.1001.5743-.1504.6492-.727.6741-2.582l.1999-12.6329c0-.426.1497-.7269.3746-.7269.2747 0 .5744.3259.949.7019.2747.2758 3.5712 3.6595 6.7676 6.7927 1.4986 1.4789 4.4205 4.4868 4.7451 4.7875h.0999l-.2251-9.4749c-.0246-1.3033-.2245-1.6794-.7487-1.8798-.3247-.1253-.8495-.1253-1.149-.1253-.2747 0-.3498-.1002-.3498-.2256 0-.1754.2248-.2006.5495-.2006 1.1488 0 2.3225.0502 2.7972.0502.2497 0 1.0736-.0502 2.1476-.0502.2997 0 .4993.025.4993.2006 0 .1252-.1248.2256-.3745.2256-.225 0-.3996 0-.6744.0752-.5994.1755-.774.5515-.7992 1.7547l-.2497 13.435c0 .4761-.1748.6767-.3497.6767-.3745 0-.674-.2256-.899-.4513-1.3737-1.2783-4.1208-3.91-6.418-6.141-2.3975-2.306-4.72-4.888-5.1448-5.2638h-.0748l.25 8.6979zm18.5795-7.0432c0-3.2335 0-3.8351-.0253-4.512-.0498-.7268-.2495-.9524-.949-1.153-.1746-.0503-.5491-.0752-.8738-.0752-.225 0-.3746-.0753-.3746-.2256 0-.1504.1748-.2006.4994-.2006 1.1487 0 2.5474.0502 3.1716.0502.6991 0 5.5689.0249 5.9936 0 .3995-.0252.7493-.1002.924-.1253.1248-.025.2496-.1002.3495-.1002.125 0 .1498.1002.1498.2005 0 .1504-.1247.4012-.1749 1.3787-.0248.2256-.075 1.1531-.1246 1.4036-.0251.1001-.075.3509-.2497.3509-.15 0-.1751-.1002-.1751-.2757 0-.1504-.0248-.5264-.1496-.7772-.175-.3759-.3497-.6766-1.4486-.777-.3745-.0503-2.9967-.1002-3.4462-.1002-.0998 0-.1499.0752-.1499.2006V9.525c0 .1254.025.2258.1499.2258.4994 0 3.3465 0 3.846-.05.5244-.0504.849-.1004 1.0488-.326.1748-.1505.2497-.2757.3497-.2757.0997 0 .1748.1002.1748.2258 0 .1252-.0503.476-.1748 1.554-.0503.4262-.1 1.2783-.1 1.4286 0 .1755-.025.4763-.2246.4763-.1499 0-.2002-.0754-.2002-.1755-.0248-.2257-.0248-.5012-.0748-.7772-.1248-.426-.3997-.752-1.2236-.827-.3996-.0503-2.897-.1003-3.4461-.1003-.1 0-.1251.1003-.1251.2257v1.7045c0 .7269-.0248 2.5315 0 3.158.0501 1.4539.724 1.7797 2.972 1.7797.5744 0 1.4983-.025 2.0728-.2758.5493-.2506.799-.7017.9488-1.5789.0503-.2258.1-.3258.25-.3258.1748 0 .1999.2758.1999.501 0 .4763-.175 1.9303-.3 2.3564-.1498.5513-.3493.5513-1.1736.5513-1.6482 0-2.9718-.025-4.0455-.075-1.074-.0252-1.8982-.0504-2.5474-.0504-.25 0-.7243.0252-1.2486.0252-.5245.0251-1.074.05-1.5235.05-.2747 0-.4245-.0752-.4245-.2255 0-.1003.075-.2257.3497-.2257.3245 0 .5742-.025.7741-.0754.4496-.1.5742-.501.6492-1.128.1-.9021.1-2.5816.1-4.5368V8.9988zm12.1361 9.675c-.3496-.1503-.4246-.2508-.4246-.7269 0-1.1531.0998-2.4814.1249-2.8323 0-.3258.0997-.5516.2746-.5516.1999 0 .2248.2006.2248.351 0 .2757.0752.7268.2 1.1028.4743 1.579 2.1227 2.1057 3.4961 2.1057 1.898 0 3.0467-1.2032 3.0467-2.707 0-.9275-.2247-1.8549-2.1726-3.008l-1.2735-.752c-2.5972-1.529-3.4465-2.9579-3.4465-4.8376 0-2.6068 2.4975-4.2862 5.5442-4.2862 1.4234 0 2.5473.2006 3.1216.3509.1999.05.2997.1252.2997.2758 0 .2758-.0749.8773-.0749 2.5567 0 .4511-.1.6766-.2748.6766-.1497 0-.2246-.1253-.2246-.3759 0-.2006-.0999-.8523-.5745-1.4038-.3245-.4009-1.0239-1.0024-2.4474-1.0024-1.5734 0-2.997.827-2.997 2.2808 0 .9527.3497 1.7045 2.3226 2.8074l.899.5011c2.897 1.6044 3.7959 3.2336 3.7959 5.1637 0 1.5789-.5995 2.8575-2.1977 3.9854-1.0488.752-2.4972.877-3.6711.877-1.2734.0001-2.6219-.1248-3.5709-.5512zm12.4363 0c-.3494-.1503-.4245-.2508-.4245-.7269 0-1.1531.0997-2.4814.1248-2.8323 0-.3258.0998-.5516.2748-.5516.1997 0 .2246.2006.2246.351 0 .2757.0751.7268.1999 1.1028.4744 1.579 2.1227 2.1057 3.4962 2.1057 1.898 0 3.0468-1.2032 3.0468-2.707 0-.9275-.2246-1.8549-2.1725-3.008l-1.2737-.752c-2.5974-1.529-3.4464-2.9579-3.4464-4.8376 0-2.6068 2.4974-4.2862 5.544-4.2862 1.4237 0 2.5474.2006 3.122.3509.1996.05.2993.1252.2993.2758 0 .2758-.075.8773-.075 2.5567 0 .4511-.0998.6766-.2747.6766-.1499 0-.2247-.1253-.2247-.3759 0-.2006-.1-.8523-.5745-1.4038-.3246-.4009-1.0236-1.0024-2.4473-1.0024-1.5733 0-2.9968.827-2.9968 2.2808 0 .9527.3494 1.7045 2.3224 2.8074l.899.5011c2.8968 1.6044 3.796 3.2336 3.796 5.1637 0 1.5789-.5996 2.8575-2.1978 3.9854-1.0487.752-2.4972.877-3.6712.877-1.2732.0001-2.6218-.1248-3.5707-.5512zm-98.5911 15.37c0-3.81 0-4.5117-.05-5.3137-.05-.8524-.2997-1.2784-.849-1.4038-.2748-.0753-.5995-.1003-.899-.1003-.25 0-.3996-.05-.3996-.2504 0-.1505.1997-.2007.5993-.2007.949 0 2.5222.0753 3.2465.0753.6244 0 2.0977-.0753 3.0466-.0753.3247 0 .5245.0502.5245.2007 0 .2003-.1498.2504-.3995.2504-.25 0-.4496.0251-.7493.0756-.6743.125-.8741.5513-.924 1.4287-.05.802-.05 1.5036-.05 5.3137v4.4113c0 2.4314 0 4.4118.0997 5.4894.075.6767.2499 1.1278.9992 1.2282.3496.05.899.1 1.2735.1.2748 0 .3996.0754.3996.2007 0 .1754-.1997.2506-.4744.2506-1.6483 0-3.2216-.0752-3.896-.0752-.5743 0-2.1476.0752-3.1466.0752-.3245 0-.4994-.0752-.4994-.2506 0-.1253.0998-.2006.3996-.2006a4.078 4.078 0 0 0 .8991-.1001c.4993-.1004.6492-.5265.7243-1.2534.1248-1.0524.1248-3.033.1248-5.4642V34.044h.0001zm12.711 8.773c.0501 1.6542.3247 2.1555.7494 2.306.3745.1253.7992.1503 1.1487.1503.2498 0 .3747.1002.3747.2258 0 .1754-.1997.2254-.4994.2254-1.4234 0-2.4474-.0752-2.8471-.0752-.1997 0-1.2486.0752-2.3724.0752-.2998 0-.4995-.0251-.4995-.2254 0-.1254.1499-.2258.3496-.2258.2997 0 .6993-.025.999-.1.5744-.1505.6493-.7268.6743-2.5818l.1998-12.633c0-.426.1497-.7268.3745-.7268.2748 0 .5744.3257.949.7016.2749.2758 3.5714 3.6595 6.7679 6.7928 1.4984 1.4788 4.4203 4.4866 4.745 4.7874h.0997l-.2247-9.4748c-.025-1.3034-.2248-1.6793-.7493-1.88-.3246-.125-.849-.125-1.1489-.125-.2746 0-.3496-.1004-.3496-.2258 0-.1754.225-.2006.5495-.2006 1.1489 0 2.3225.0504 2.797.0504.25 0 1.0739-.0504 2.148-.0504.2995 0 .4993.0252.4993.2006 0 .1253-.125.2258-.3747.2258-.225 0-.3996 0-.6744.075-.5993.1756-.774.5517-.7991 1.7547l-.2499 13.435c0 .4762-.1746.6768-.3494.6768-.3747 0-.6743-.2255-.8992-.4514-1.3734-1.2782-4.1206-3.91-6.418-6.141-2.3974-2.3059-4.72-4.8878-5.1446-5.2637h-.075l.2499 8.6978zm19.4783 2.6319c-.3495-.1504-.4245-.251-.4245-.727 0-1.153.0998-2.4813.1248-2.8323 0-.3257.0998-.5515.2747-.5515.1998 0 .2248.2005.2248.3509 0 .2758.075.727.1998 1.103.4743 1.579 2.1227 2.1053 3.4963 2.1053 1.898 0 3.0467-1.203 3.0467-2.707 0-.9272-.2248-1.8547-2.1726-3.0077l-1.2738-.752c-2.5972-1.5292-3.4462-2.9577-3.4462-4.8378 0-2.6067 2.4972-4.2862 5.544-4.2862 1.4235 0 2.5473.2005 3.1217.351.1999.0502.2997.1253.2997.2757 0 .2758-.075.8772-.075 2.5568 0 .4512-.0998.6765-.2749.6765-.1497 0-.2247-.1252-.2247-.3759 0-.2004-.0998-.852-.5744-1.4036-.3247-.401-1.0238-1.0025-2.4474-1.0025-1.5732 0-2.9968.827-2.9968 2.2809 0 .9525.3496 1.7046 2.3223 2.8074l.8992.5012c2.897 1.6041 3.7958 3.2335 3.7958 5.1634 0 1.5792-.5993 2.8576-2.1975 3.9854-1.0489.752-2.4975.8773-3.6712.8773-1.2729.0001-2.6217-.1252-3.5708-.5513zm15.2335-9.6755c0-3.2334 0-3.8347-.0248-4.5117-.05-.7267-.2748-.9775-.7493-1.128-.2497-.0751-.5245-.1-.7992-.1-.2249 0-.3497-.0503-.3497-.2508 0-.1252.1748-.1756.5245-.1756.8243 0 2.3224.0504 2.9468.0504.5496 0 1.9729-.0504 2.8222-.0504.2746 0 .4495.0504.4495.1756 0 .2005-.1247.2508-.3497.2508-.2246 0-.3994.025-.6491.075-.5995.1004-.7743.4013-.8243 1.1532-.0498.6768-.0498 1.2782-.0498 4.5116v3.76c0 2.0555 0 3.76.0997 4.6623.075.5767.225.9024.874 1.0024.2997.0504.7992.0754 1.1239.0754.2497 0 .3494.1252.3494.2258 0 .1502-.1746.2254-.4245.2254-1.4484 0-2.9468-.0752-3.5462-.0752-.4995 0-1.9978.0752-2.8719.0752-.2748 0-.4246-.0752-.4246-.2254 0-.1004.075-.2258.3497-.2258.3247 0 .5742-.025.774-.0754.4497-.1.5746-.4009.6494-1.0274.0997-.8772.0997-2.5816.0997-4.637v-3.7604h.0003zm14.1597 2.3561c0 2.256.025 3.8853.05 4.3114.0248.5264.0752 1.2784.2497 1.504.2748.401 1.1488.8521 2.8719.8521 1.9977 0 3.4713-.3507 4.795-1.4538 1.4233-1.178 1.873-3.083 1.873-5.2886 0-2.707-1.0739-4.4618-2.0478-5.3138-2.023-1.8048-4.4204-2.0302-6.1435-2.0302-.4498 0-1.174.05-1.3487.1502-.1997.0752-.2748.1756-.2748.4261-.025.727-.025 2.4817-.025 4.1608v2.6818h.0002zm-2.9468-2.3561c0-3.2334 0-3.8347-.0252-4.5117-.05-.7267-.2497-.9525-.9489-1.153-.175-.0501-.5496-.0752-.874-.0752-.2249 0-.3746-.0753-.3746-.2257 0-.1503.1748-.2006.4995-.2006 1.1488 0 2.5472.0503 3.1717.0503.674 0 2.2476-.0503 3.5713-.0503 2.747 0 6.4429 0 8.8403 2.4313 1.099 1.1031 2.0729 2.8826 2.0729 5.4145 0 2.6821-1.1488 4.7122-2.3975 5.9404-.9989 1.0024-3.3216 2.5064-7.3673 2.5064-.7991 0-1.748-.0752-2.622-.1254-.874-.0753-1.6734-.1252-2.2227-.1252-.2498 0-.7243.0252-1.2486.0252-.5243.0248-1.074.05-1.5236.05-.2745 0-.4244-.0752-.4244-.2255 0-.1004.075-.2257.3494-.2257.3247 0 .5745-.025.7744-.0754.4496-.1.5744-.501.6493-1.1278.0999-.9022.0999-2.5816.0999-4.5368v-3.7598h.0001zm21.551 0c0-3.2334 0-3.8347-.0249-4.5117-.05-.7267-.2496-.9525-.949-1.153-.1747-.0501-.5495-.0752-.8741-.0752-.2245 0-.3745-.0753-.3745-.2257 0-.1503.175-.2006.4994-.2006 1.149 0 2.5472.0503 3.1717.0503.6992 0 5.569.0249 5.9936 0 .3997-.0251.7492-.1002.924-.1252.125-.0253.2497-.1004.3497-.1004.1248 0 .1499.1004.1499.2006 0 .1504-.1248.4012-.175 1.3787-.0248.2255-.075 1.153-.1248 1.4035-.0249.1002-.0747.351-.2497.351-.1497 0-.175-.1002-.175-.2758 0-.1503-.025-.5263-.1496-.777-.175-.376-.3498-.6766-1.4485-.7772-.3747-.0501-2.9968-.1-3.4464-.1-.0997 0-.1497.075-.1497.2006v5.2637c0 .1252.025.2255.1497.2255.4995 0 3.3465 0 3.8461-.05.5243-.0503.8489-.1003 1.0488-.3258.1749-.1504.2497-.2758.3498-.2758.0997 0 .1747.1002.1747.2255 0 .1254-.0502.4761-.1747 1.5542-.0504.4262-.1001 1.2783-.1001 1.4288 0 .1752-.025.4762-.2245.4762-.15 0-.2002-.0752-.2002-.1756-.0249-.2254-.0249-.5011-.0748-.777-.1247-.4261-.3997-.752-1.2236-.8272-.3995-.0502-2.897-.1002-3.4461-.1002-.1002 0-.125.1002-.125.2256v1.7045c0 .7269-.025 2.5315 0 3.1582.05 1.4537.724 1.7795 2.972 1.7795.574 0 1.4982-.025 2.0726-.2758.5495-.2504.7995-.7017.9489-1.579.0501-.2255.0998-.3256.25-.3256.1746 0 .1999.2756.1999.5013 0 .4758-.175 1.9297-.3 2.3557-.1498.5514-.3493.5514-1.1734.5514-1.6484 0-2.972-.0248-4.0457-.0753-1.074-.0249-1.8983-.05-2.5474-.05-.25 0-.7243.0251-1.2486.0251-.5243.0249-1.0738.05-1.5238.05-.2743 0-.424-.0752-.424-.2254 0-.1004.0747-.2258.3492-.2258.3247 0 .5747-.025.7743-.0753.4495-.1001.5743-.501.6493-1.1279.0998-.902.0998-2.5814.0998-4.5366l-.0003-3.7598zm17.7309 1.6546c0 .2254.0499.3006.1997.3758.4744.1506 1.1237.2006 1.6734.2006.874 0 1.1735-.0752 1.548-.351.6746-.476 1.4237-1.4036 1.4237-3.1582 0-3.0078-2.0479-3.7848-3.3466-3.7848-.5492 0-1.0737.0249-1.2985.0752-.1498.0502-.1997.1251-.1997.3007v6.3417zm-2.797-1.6546c0-3.2334 0-3.8347-.0251-4.5117-.05-.7267-.2498-.9525-.9492-1.153-.1748-.0501-.5492-.0752-.8738-.0752-.2248 0-.3745-.0753-.3745-.2257 0-.1503.1748-.2006.4993-.2006 1.1487 0 2.5473.0503 2.9968.0503.7491 0 2.7472-.0503 3.4213-.0503 1.3986 0 2.9969.1255 4.1706.9025.6243.426 1.5484 1.504 1.5484 2.9326 0 1.5792-.8991 2.9828-3.0468 4.7123 1.948 2.4061 3.4963 4.3365 4.82 5.6648 1.2236 1.228 1.9977 1.3284 2.3474 1.4034.2248.0502.3496.0502.5244.0502.1748 0 .2748.1253.2748.2258 0 .1754-.1499.2254-.4247.2254h-2.0976c-1.2238 0-1.823-.1252-2.3975-.426-.9491-.4761-1.773-1.4788-2.9968-3.1331-.8743-1.1531-1.798-2.5819-2.073-2.9078-.1247-.1252-.25-.1502-.3997-.1502l-1.9727-.05c-.0998 0-.1747.05-.1747.1754v.3007c0 1.98.0247 3.6345.1247 4.5368.075.6268.1748 1.0277.849 1.1278.3247.0503.7992.0754 1.0739.0754.1748 0 .2748.1252.2748.2257 0 .1503-.175.2255-.4495.2255-1.2738 0-3.097-.0752-3.4214-.0752-.4245 0-1.8231.0752-2.6972.0752-.2747 0-.4245-.0752-.4245-.2255 0-.1004.0749-.2257.3497-.2257.3245 0 .5744-.025.774-.0754.4498-.1.5743-.501.6492-1.1278.1-.9022.1-2.5816.1-4.5368v-3.7598h.0003z"/>
</svg>
