<svg xmlns="http://www.w3.org/2000/svg" width="16" height="18">
  <path fill="#FFF" d="M10.3599 12.024c.5272.7512.5543 1.6074.5459 2.4755-.0102 1.0512-.002 2.1025-.001 3.1537.0005.3376-.0079.3468-.3413.3468-1.3989-.0002-2.7977 0-4.1965-.0001-.312 0-.34-.0293-.3396-.3373.001-.6705.0004-1.341.0004-2.0473-.2413.0243-.4833.0498-.7256.0728-1.1819.1126-2.212-.1845-3.0094-1.093-.1116-.1273-.2007-.2744-.2928-.417-.406-.6286-.7992-1.2655-1.2195-1.8845-.13-.1916-.3314-.3362-.4997-.5028-.0887-.0876-.1765-.1762-.2808-.2806.2916-.1864.571-.1357.8354-.0956.6603.1 1.1067.5021 1.4603 1.0356.176.2655.358.5363.584.7587.7238.7124 1.6028.9423 2.5985.7202.6422-.1433.5177-.0768.6136-.6537.0641-.3853.1722-.7523.3854-1.085.0354-.0553.0647-.1142.1082-.192-.2818-.0546-.545-.0984-.8046-.1573-1.0303-.2336-1.9802-.6286-2.732-1.388-.7968-.8049-1.228-1.7688-1.258-2.9-.0252-.9507-.0193-1.8985.1996-2.8322.1405-.5994.3945-1.1365.8403-1.5818.0691-.069.1096-.2326.0774-.3227-.3177-.8895-.2741-1.7688.0194-2.6533.0505-.152.1036-.1887.258-.1472.5666.1523 1.0516.4398 1.4561.8518.276.2812.5287.5847.8029.8906.6998-.4972 1.5278-.5147 2.3447-.5616.9033-.0518 1.8073-.0378 2.6949.1514.3447.0735.6725.2235.979.3286.36-.3364.7317-.6788 1.0978-1.0272.3305-.3146.722-.5106 1.1637-.6266.169-.0444.2549-.0049.3121.1574.3038.8608.3551 1.7213.0138 2.5843-.0498.1259-.084.2443.0337.3548.597.5616.8941 1.2687.9573 2.061.0666.8368.1467 1.6806.1048 2.5158-.0777 1.5498-.86 2.7136-2.2194 3.4962-.7288.4196-1.5245.6497-2.3555.7709-.0476.007-.0957.0116-.1426.0217-.019.004-.0355.0196-.069.039z"/>
</svg>
