<?xml version="1.0" encoding="UTF-8"?>
<svg width="12px" height="10px" viewBox="0 0 12 10" version="1.1" xmlns="http://www.w3.org/2000/svg" xmlns:xlink="http://www.w3.org/1999/xlink">
    <g id="Page-1" stroke="none" stroke-width="1" fill="none">
        <g id="Forgot-your-password?" transform="translate(-649.000000, -44.000000)">
            <rect fill="transparent" x="0" y="0" width="1440" height="760"></rect>
            <g id="Group-4" transform="translate(649.000000, 42.000000)" fill="white" fill-rule="nonzero">
                <g id="left-arrow" transform="translate(0.000000, 2.000000)">
                    <path d="M11.3254636,4.0558715 L11.3441953,4.05998258 L3.31434336,4.05998258 L5.83863549,1.52178382 C5.96224522,1.3978642 6.03005008,1.2299952 6.03005008,1.05380617 C6.03005008,0.877617141 5.96224522,0.710922741 5.83863549,0.586709474 L5.44585509,0.192437575 C5.32234292,0.0685179566 5.15775759,0 4.98224543,0 C4.80663571,0 4.64195282,0.0680285426 4.51844065,0.191948161 L0.191319645,4.53295224 C0.0673196723,4.65736128 -0.000485190981,4.82307685 2.6137912e-06,4.99936376 C-0.000485190981,5.1766295 0.0673196723,5.34244296 0.191319645,5.46665623 L4.51844065,9.80805184 C4.64195282,9.93187357 4.80653815,10 4.98224543,10 C5.15775759,10 5.32234292,9.93177569 5.44585509,9.80805184 L5.83863549,9.41377994 C5.96224522,9.29005609 6.03005008,9.12482993 6.03005008,8.9486409 C6.03005008,8.77254975 5.96224522,8.61603516 5.83863549,8.49221342 L3.28585556,5.93982166 L11.3344392,5.93982166 C11.6960976,5.93982166 12,5.62708613 12,5.26443037 L12,4.70679209 C12,4.34413633 11.687122,4.0558715 11.3254636,4.0558715 Z" id="Shape"></path>
                </g>
            </g>
        </g>
    </g>
</svg>
