<svg xmlns="http://www.w3.org/2000/svg" width="9" height="13">
  <path fill="#F84F78" d="M8.7874 3.2356c-.0465-.1735-.141-.3583-.2108-.52C7.7406.7164 5.914 0 4.4392 0 2.4648 0 .2903 1.3174 0 4.0328v.5548c0 .0231.008.231.0194.3351.1628 1.2941 1.189 2.6695 1.9554 3.9635.8245 1.3865 1.68 2.7505 2.5277 4.1138.5227-.8897 1.0435-1.791 1.5543-2.6577.1392-.2544.3008-.5086.4401-.7513.093-.1617.2704-.3233.3514-.4737C7.673 7.615 9 6.1014 9 4.6107v-.6124c0-.1616-.2013-.7279-.2126-.7627zM4.4378 5.7778c-.575 0-1.2045-.282-1.5152-1.0608-.0463-.124-.0425-.3724-.0425-.3951V3.972c0-.9927.8595-1.4442 1.6073-1.4442.9206 0 1.6326.7223 1.6326 1.6251 0 .9028-.7616 1.6249-1.6822 1.6249z"/>
</svg>
