<?xml version="1.0" encoding="UTF-8"?>
<svg width="116px" height="116px" viewBox="0 0 116 116" version="1.1" xmlns="http://www.w3.org/2000/svg" xmlns:xlink="http://www.w3.org/1999/xlink">
    <!-- Generator: Sketch 48.2 (47327) - http://www.bohemiancoding.com/sketch -->
    <title>Combined Shape</title>
    <desc>Created with Sketch.</desc>
    <defs></defs>
    <g id="Index-1-Copy" stroke="none" stroke-width="1" fill="none" fill-rule="evenodd" transform="translate(-661.000000, -3688.000000)">
        <path d="M719,3688 C751.017397,3688.03647 776.96353,3713.9826 777,3746 C777,3778.03252 751.032515,3804 719,3804 C686.967485,3804 661,3778.03252 661,3746 C661,3713.96748 686.967485,3688 719,3688 Z M717,3800 L717,3775 L715.868966,3776.98518 C714.740324,3778.94091 713.487384,3780.82819 712.117241,3782.63632 C708.262252,3787.76999 703.481195,3792.20055 698,3795.71863 C704.018266,3798.21657 710.452015,3799.66632 717,3800 Z M722,3800 C728.547946,3799.66719 734.981766,3798.21781 741,3795.71977 C733.569635,3790.93395 727.442182,3784.50964 723.130624,3776.98465 L722,3775 L722,3800 Z M677,3734.04679 C674.091718,3737.56062 671.608527,3741.40042 669.601227,3745.48764 C669.021472,3746.65843 668.483129,3747.83606 668,3749 C668.036035,3746.49872 668.245889,3744.00288 668.628067,3741.53024 C668.842025,3741.03728 669.04908,3740.53747 669.27684,3740.05135 C670.729307,3736.87606 672.483396,3733.84525 674.515337,3731 C675.309049,3732.04755 676.144172,3733.07455 677,3734.04679 Z M679.105636,3747.4737 C680.908923,3745.50495 682.852947,3743.67537 684.921701,3742 C686.242659,3743.02673 687.608505,3744.00114 689,3744.88399 C681.451764,3749.943 675.276427,3756.86167 671.045224,3765 L670.955451,3764.71879 C670.602767,3763.59397 670.275734,3762.41683 670,3761.24623 L670.173135,3760.88001 C672.456956,3755.96939 675.469886,3751.44744 679.105636,3747.4737 Z M698.798597,3740.1009 C698.072225,3740.3831 697.345852,3740.68499 696.626083,3741 C694.697653,3740.114 692.819481,3739.12373 691,3738.03363 C692.850322,3736.9592 694.764403,3735.99709 696.731738,3735.15258 C698.666888,3734.31567 700.651586,3733.59681 702.674783,3733 C703.414362,3733.70221 704.206768,3734.49631 705.018985,3735.36259 C705.679323,3736.10418 706.339662,3736.86546 707,3737.63331 C704.204657,3738.23829 701.462197,3739.06343 698.798597,3740.1009 Z M735.358209,3733 C739.426221,3734.21208 743.33425,3735.8988 747,3738.02463 C745.172809,3739.1226 743.283589,3740.11602 741.341625,3741 C740.691542,3740.711 739.955224,3740.40887 739.159204,3740.0936 C736.510995,3739.05608 733.782362,3738.23237 731,3737.63054 L732.950249,3735.42365 C733.713101,3734.6092 734.515755,3733.80131 735.358209,3733 Z M763.911636,3753.82353 C765.391516,3756.0574 766.700503,3758.40421 767.826981,3760.84314 C767.884654,3760.96078 767.948735,3761.08497 768,3761.21569 C767.718044,3762.40523 767.397639,3763.57516 767.045194,3764.69281 C767.019562,3764.79085 766.987521,3764.89542 766.949073,3765 C764.103729,3759.55772 760.384706,3754.64001 755.946374,3750.45098 L754.081619,3748.76471 L752.159191,3747.17647 L751.268465,3746.52288 L750.159865,3745.69281 L749.627993,3745.3268 L749.262732,3745.07843 L749,3744.89542 C750.396965,3744.00654 751.774705,3743.03268 753.10118,3742 C757.273133,3745.3576 760.918542,3749.34463 763.911636,3753.82353 Z M705,3726.67247 L705.148699,3726.65854 C705.052045,3725.61324 705.007435,3724.51916 705.007435,3723.41115 C705.007435,3723.16725 705.007435,3722.92334 705.007435,3722.67944 L705.007435,3721.57143 C705.007435,3721.36934 704.992565,3721.25087 705.007435,3720.95819 C705.022305,3720.66551 705.066914,3720.37979 705.066914,3720.0662 C705.066914,3720.03833 705.066914,3719.98258 705.066914,3719.98258 L705.066914,3719.83624 C705.066914,3719.73868 705.022305,3719.62718 705.066914,3719.49477 C705.111524,3719.36237 705.111524,3719.223 705.111524,3719.08362 C705.107038,3719.05591 705.107038,3719.02772 705.111524,3719 C705.594796,3719.6899 706.100372,3720.44948 706.598513,3721.14634 C706.739777,3721.34843 706.866171,3721.55749 707,3721.75958 L706.94052,3721.94077 C706.821561,3722.31707 706.687732,3722.70035 706.576208,3723.09059 L705.773234,3725.80139 L705.460967,3727 L705,3726.67247 Z M732.148789,3725.73466 L731.394464,3723.03803 C731.269896,3722.60242 731.138408,3722.17373 731,3721.74503 C731.124567,3721.5376 731.249135,3721.32325 731.373702,3721.12965 C731.678201,3720.67329 731.982699,3720.21003 732.301038,3719.74676 L732.882353,3719 C732.882353,3719.11063 732.882353,3719.22818 732.882353,3719.33881 C732.88663,3719.40558 732.88663,3719.47255 732.882353,3719.53933 C732.916955,3719.82973 732.916955,3720.22385 732.958478,3720.44512 C733,3720.66638 733,3720.88764 733,3721.09507 C732.997156,3721.11572 732.997156,3721.13666 733,3721.1573 C733,3721.28176 733,3721.39931 733,3721.52377 L733,3721.75194 C733,3721.828 733,3721.91098 733,3722.00086 L733,3722.13224 C733,3722.29818 733,3722.47105 733,3722.65774 L733,3724.13051 C733,3724.24114 733,3724.34486 733,3724.49697 C732.99308,3724.9879 732.937716,3725.47882 732.937716,3725.96975 L732.889273,3726.66119 L732.446367,3727 L732.148789,3725.73466 Z M729.645588,3737 L729.3875,3736.99364 C727.977941,3736.72004 726.502206,3736.50371 725,3736.35737 C725.039706,3736.17285 725.086029,3736.03924 725.145588,3735.81018 C725.205147,3735.58112 725.264706,3735.35843 725.3375,3735.12937 L725.3375,3735.04666 C725.436765,3734.70308 725.542647,3734.35949 725.661765,3734.00954 C725.714706,3733.82503 725.7875,3733.62778 725.840441,3733.46235 C725.893382,3733.29692 725.926471,3733.21421 726.0125,3732.9597 C726.098529,3732.7052 726.184559,3732.46341 726.277206,3732.21527 L726.4625,3731.70626 C726.548529,3731.47084 726.641176,3731.24178 726.733824,3731 L728.097059,3731.19088 L728.381618,3731.23542 L728.831618,3731.27359 L729.023529,3731.31177 C729.493382,3731.38812 729.963235,3731.4772 730.426471,3731.56628 C731.233824,3731.73171 731.928676,3731.88441 732.590441,3732.04984 C732.736029,3732.08165 732.888235,3732.11983 733.040441,3732.16437 C733.338235,3732.24072 733.682353,3732.32344 734,3732.41251 C733.285294,3733.08696 732.630147,3733.72322 732.014706,3734.35949 L730.307353,3736.21739 L729.645588,3737 Z M725.168305,3743.06081 C724.615479,3744.02703 724.093366,3745 723.614251,3745.93919 L723,3746 L723,3745.78378 C723.036855,3745.29054 723.079853,3744.81081 723.128993,3744.31081 C723.132076,3744.28389 723.132076,3744.25665 723.128993,3744.22973 C723.157658,3743.90991 723.194513,3743.59234 723.239558,3743.27703 L723.307125,3742.76351 L723.374693,3742.25 L723.4914,3741.47297 L723.4914,3741.42568 L723.687961,3740.23649 C723.724816,3740.00676 723.761671,3739.79054 723.810811,3739.56081 C723.823096,3739.43243 723.866093,3739.30405 723.866093,3739.19595 L723.915233,3738.95946 C723.927518,3738.86486 723.964373,3738.77703 723.964373,3738.68243 L724.044226,3738.31081 C724.05977,3738.20552 724.082354,3738.10163 724.111794,3738 C725.407862,3738.14189 726.703931,3738.35135 728,3738.61486 L727.871007,3738.79054 C727.711302,3739.03378 727.545455,3739.28378 727.379607,3739.52703 L727.158477,3739.85811 C726.931204,3740.21622 726.697789,3740.53378 726.476658,3740.89189 L726.003686,3741.66892 C725.714988,3742.12838 725.444717,3742.58784 725.168305,3743.06081 Z M758.313215,3717.77116 C756.939646,3718.15987 755.609781,3718.59248 754.379813,3719 C753.924037,3718.63636 753.462019,3718.26646 753,3717.92163 L753.093652,3717.92163 L753.237253,3717.88401 L753.74922,3717.77116 L754.311134,3717.64577 L755.022893,3717.50784 L755.28512,3717.46395 L755.953174,3717.33856 L756.708637,3717.21944 L757.251821,3717.13793 L757.695109,3717.0815 L758.319459,3717 L758.537981,3717 C758.694069,3717.19436 758.8564,3717.39498 759,3717.58307 L758.313215,3717.77116 Z M730.437651,3730.92144 L730.347546,3730.86818 L730,3730.79494 L730.212389,3730.60186 L730.727273,3730.14913 L731.435237,3729.54328 L731.711987,3729.31025 L731.769912,3729.26365 L732.22687,3728.88415 L732.400644,3728.74434 L733.501207,3727.87883 L733.629928,3727.78562 L733.713596,3727.7257 L734.093323,3727.45273 L734.279968,3727.31292 L735.28399,3726.58722 L735.329043,3726.58722 L735.895414,3726.19441 C736.069187,3726.07457 736.159292,3726.02796 736.42317,3725.8482 C736.687047,3725.66844 736.950925,3725.50866 737.214803,3725.33555 C737.478681,3725.16245 737.684634,3725.04261 738.012872,3724.83622 C738.34111,3724.62983 738.669348,3724.44341 738.984714,3724.25699 L739.068383,3724.21039 C739.441673,3723.96405 739.8214,3723.75766 740.213998,3723.54461 L740.355591,3723.46471 C740.542237,3723.35819 740.728882,3723.25832 740.921963,3723.16511 C741.308126,3722.96538 741.70716,3722.7723 742.099759,3722.57257 C742.492357,3722.37284 742.891392,3722.17976 743.290426,3722 C744.172164,3722.47936 745.086082,3723.00533 746,3723.5779 L745.575221,3723.81758 L745.452936,3723.89081 L744.706356,3724.33023 L744.564763,3724.41012 L744.197908,3724.63648 C744.170116,3724.64806 744.144099,3724.66376 744.120676,3724.68309 C743.927595,3724.79627 743.740949,3724.90945 743.56074,3725.02929 L742.955752,3725.40879 L742.897828,3725.44874 C742.781979,3725.52863 742.659694,3725.59521 742.556718,3725.6751 L742.421561,3725.76165 C742.286404,3725.8482 742.151247,3725.94141 742.022526,3726.03462 L741.95173,3726.07457 C741.687852,3726.25433 741.411102,3726.45406 741.166533,3726.62051 C740.921963,3726.78695 740.670957,3726.96005 740.445696,3727.13316 L740.349155,3727.20639 C740.16251,3727.33289 739.988737,3727.46605 739.795656,3727.61252 C739.422365,3727.88549 739.061947,3728.17177 738.701529,3728.45806 L738.225261,3728.83089 L738.141593,3728.90413 L738.06436,3728.96405 L737.420756,3729.49667 L737.324216,3729.56991 C737.098954,3729.76964 736.860821,3729.96937 736.629123,3730.16911 L736.024135,3730.70839 L735.934031,3730.78828 L735.625101,3731.06791 C735.477072,3731.19441 735.341915,3731.32756 735.200322,3731.46072 L734.627514,3732 C734.093323,3731.84021 733.546259,3731.68708 732.986323,3731.53395 L732.19469,3731.33422 C731.615447,3731.18775 731.023331,3731.04794 730.437651,3730.92144 Z M705.393169,3732.08632 C706.047238,3731.89684 706.753634,3731.77053 707.617006,3731.6 C708.074855,3731.51158 708.539244,3731.42316 709.003634,3731.34737 L709.193314,3731.30947 L709.657703,3731.23368 L709.938953,3731.18947 L711.286337,3731 C711.377907,3731.23368 711.469477,3731.46737 711.554506,3731.70105 L711.737645,3732.20632 C711.829215,3732.44632 711.933866,3732.78105 711.999273,3732.94526 C712.06468,3733.10947 712.097384,3733.25474 712.169331,3733.44421 C712.241279,3733.63368 712.293605,3733.81053 712.34593,3733.98737 C712.457122,3734.33474 712.568314,3734.67579 712.666424,3735.01684 L712.666424,3735.09895 C712.731831,3735.33263 712.803779,3735.59158 712.856105,3735.77474 C712.90843,3735.95789 712.960756,3736.14105 713,3736.31789 C711.515262,3736.47579 710.056686,3736.69053 708.663517,3736.94947 L708.303779,3737 L707.649709,3736.22316 L705.962209,3734.37895 C705.340843,3733.74105 704.686773,3733.07789 704,3732.44632 C704.294331,3732.35789 704.627907,3732.27579 704.948401,3732.2 C705.098837,3732.15579 705.249273,3732.08632 705.393169,3732.08632 Z M702.662379,3726.58722 L702.720257,3726.64048 L703.723473,3727.36618 L703.909968,3727.50599 L704.289389,3727.77896 L704.37299,3727.83888 L704.501608,3727.93209 L705.601286,3728.7976 L705.77492,3728.93742 L706.231511,3729.31691 L706.289389,3729.36352 L706.565916,3729.59654 L707.273312,3730.2024 L707.787781,3730.65513 L708,3730.8482 L707.652733,3730.92144 L707.549839,3730.92144 C706.96463,3731.04794 706.37299,3731.18775 705.794212,3731.33422 L705.003215,3731.53395 C704.450161,3731.68708 703.897106,3731.83356 703.363344,3732 L702.790997,3731.46072 C702.643087,3731.32756 702.508039,3731.19441 702.366559,3731.06791 L702.057878,3730.78828 L701.967846,3730.70839 L701.363344,3730.16911 C701.125402,3729.96937 700.893891,3729.76964 700.66881,3729.56991 L700.572347,3729.49667 L699.92926,3728.96405 L699.85209,3728.90413 L699.768489,3728.83089 L699.292605,3728.45806 C698.932476,3728.16511 698.565916,3727.88549 698.199357,3727.61252 C698,3727.46605 697.826367,3727.33289 697.646302,3727.20639 L697.549839,3727.13316 C697.324759,3726.96671 697.086817,3726.80692 696.829582,3726.62051 C696.572347,3726.43409 696.308682,3726.25433 696.045016,3726.07457 L695.974277,3726.03462 C695.845659,3725.94141 695.710611,3725.8482 695.575563,3725.76165 L695.440514,3725.6751 C695.33119,3725.59521 695.215434,3725.52863 695.099678,3725.44874 L695.041801,3725.40879 L694.437299,3725.02929 C694.257235,3724.90945 694.064309,3724.78961 693.877814,3724.68309 C693.854409,3724.66376 693.828413,3724.64806 693.800643,3724.63648 L693.434084,3724.41012 L693.292605,3724.33023 L692.546624,3723.89081 L692.424437,3723.81758 L692,3723.5779 C692.913183,3723.00533 693.826367,3722.4727 694.707395,3722 C695.106109,3722.17976 695.498392,3722.38615 695.897106,3722.57257 C696.29582,3722.75899 696.688103,3722.96538 697.073955,3723.16511 C697.273312,3723.26498 697.453376,3723.36485 697.639871,3723.46471 L697.78135,3723.54461 C698.173633,3723.78429 698.546624,3723.99068 698.926045,3724.21039 L699.009646,3724.25699 C699.337621,3724.44341 699.710611,3724.66977 699.980707,3724.83622 C700.250804,3725.00266 700.514469,3725.17577 700.778135,3725.33555 C701.041801,3725.49534 701.389068,3725.73502 701.569132,3725.8482 C701.749196,3725.96138 701.92283,3726.07457 702.096463,3726.19441 L702.662379,3726.58722 Z M679.632885,3717.71028 L679.552223,3717.72274 L679,3717.56698 C679.148914,3717.38006 679.297828,3717.18692 679.452947,3717 L679.589452,3717 L679.732161,3717 L680.315408,3717.07477 L680.849018,3717.14953 L681.792141,3717.29283 L682.499483,3717.41745 L683.008273,3717.5109 L683.504654,3717.60436 C684.001034,3717.71028 684.503619,3717.82243 685,3717.93458 C684.534643,3718.28972 684.069286,3718.65109 683.634953,3719 C683.355739,3718.89408 683.039297,3718.78193 682.735264,3718.68847 C681.779731,3718.33333 680.737332,3718.02181 679.632885,3717.71028 Z M710.590062,3739.46925 C710.397516,3739.17944 710.198758,3738.8829 710,3738.59983 C711.31677,3738.33698 712.627329,3738.13479 713.869565,3738 C714.031056,3738.74136 714.167702,3739.48273 714.291925,3740.21735 C714.341615,3740.47346 714.391304,3740.75653 714.428571,3741.01264 C714.465839,3741.26874 714.503106,3741.51811 714.546584,3741.80792 C714.590062,3742.09773 714.63354,3742.44819 714.670807,3742.68408 C714.708075,3742.91997 714.732919,3743.19629 714.763975,3743.42544 C714.795031,3743.65459 714.795031,3743.99158 714.84472,3744.17355 C714.89441,3744.35552 714.863354,3744.48357 714.89441,3744.7262 C714.925466,3744.96883 714.962733,3745.17776 714.962733,3745.40017 L714.962733,3745.5417 C715,3745.68324 715,3745.83151 715,3746 L714.409938,3745.94608 L714.062112,3745.27211 C713.931677,3745.00927 713.78882,3744.7599 713.652174,3744.50379 C713.372671,3743.99158 713.099379,3743.4861 712.807453,3742.98062 C712.695652,3742.77843 712.571429,3742.57624 712.453416,3742.38079 L712.086957,3741.78096 C711.714286,3741.16765 711.335404,3740.57456 710.968944,3740.02864 L710.84472,3739.83993 C710.757764,3739.71188 710.677019,3739.59056 710.590062,3739.46925 Z M688.614879,3718.1513 L688.818612,3718.02936 C691.619482,3716.0679 694.592003,3714.38048 697.697424,3712.98909 C698.446635,3712.67746 699.248423,3712.32518 700.069926,3712 C700.444532,3712.39292 700.832282,3712.81295 701.252892,3713.28039 C702.212408,3714.35755 703.139064,3715.46857 704,3716.59315 C702.613302,3717.02672 701.187171,3717.52804 699.747897,3718.11065 C698.129418,3718.75972 696.54552,3719.49693 695.002892,3720.31916 L694.910883,3720.36658 C694.869211,3720.39149 694.825166,3720.41192 694.779443,3720.42755 L694.582282,3720.53594 L694.063091,3720.8137 C693.070715,3721.35566 692.058623,3721.93828 691.039958,3722.61573 L690.816509,3722.75122 L690.737645,3722.79865 C690.606204,3722.87317 690.487907,3722.96123 690.369611,3723.04253 L690.277603,3723.1035 L690.185594,3723.16447 L690.001577,3723.29319 C687.396627,3725.03678 684.940736,3727.00628 682.66062,3729.18028 L681.819401,3730 C680.833596,3728.97027 679.887224,3727.90666 679,3726.82951 L679.657203,3726.09108 C681.296137,3724.2788 683.05273,3722.58351 684.914826,3721.01694 L685.000263,3720.94242 L685.079127,3720.8679 L685.171136,3720.79338 L685.263144,3720.71208 C685.401157,3720.59014 685.552313,3720.4682 685.696898,3720.3598 C686.354101,3719.83139 687.011304,3719.31652 687.668507,3718.82198 L687.813091,3718.71359 L688.404574,3718.29356 L688.483438,3718.23937 C688.525429,3718.20722 688.569328,3718.1778 688.614879,3718.1513 Z M725.541054,3708.30619 C727.279486,3708.47476 729.044664,3708.71825 730.809842,3709.07411 L732,3709.31759 C731.879647,3709.41749 731.779353,3709.52362 731.679059,3709.61727 L731.511902,3709.77959 C730.355175,3710.8784 729.245253,3712.03339 728.208879,3713.22584 C728.075154,3713.38192 727.941428,3713.52552 727.814389,3713.6816 L727.660604,3713.86265 L727.540251,3714 C722.209273,3713.26132 716.790727,3713.26132 711.459749,3714 L711.339396,3713.86889 L711.192297,3713.69408 L710.791121,3713.23209 C709.707943,3712.00842 708.604707,3710.84718 707.501471,3709.81081 L707.347687,3709.65473 L707,3709.32384 L707.374432,3709.24268 L708.190158,3709.07411 C709.868414,3708.74946 711.633592,3708.49349 713.445574,3708.31244 L714.194437,3708.23752 L714.388339,3708.23752 C716.046537,3708.09393 717.805028,3707.99403 719.496657,3708.00028 C721.188286,3708.00652 722.90666,3708.08768 724.604975,3708.23128 L724.798877,3708.23128 L725.541054,3708.30619 Z M743.117802,3720.38782 C741.528537,3719.536 739.895885,3718.77278 738.226926,3718.10147 C736.813568,3717.52649 735.387063,3717.01917 734,3716.59301 L735.071522,3715.24014 L736.767552,3713.28523 C737.168551,3712.83878 737.562977,3712.41939 737.963976,3712 C738.7594,3712.3044 739.554825,3712.64262 740.330529,3712.98083 C741.483127,3713.49944 742.683934,3714.0947 743.932948,3714.76663 C745.897362,3715.82429 747.796412,3717.00579 749.619248,3718.3044 L750.276624,3718.78467 L750.421246,3718.8929 C751.078622,3719.35964 751.735998,3719.8805 752.393374,3720.43517 C752.570865,3720.57046 752.741783,3720.71251 752.919274,3720.85457 L753.083618,3720.99662 C754.949008,3722.5624 756.706254,3724.25985 758.342624,3726.07666 L759,3726.82074 C758.132264,3727.91657 757.1462,3728.98534 756.160137,3730 C755.897186,3729.72943 755.614515,3729.45885 755.305548,3729.16798 L753.392585,3727.42277 L751.420458,3725.77903 C751.104917,3725.5761 750.795951,3725.33935 750.493558,3725.10259 L750.237181,3724.91319 C749.947936,3724.6832 749.665264,3724.45998 749.356298,3724.23675 L748.850118,3723.88501 L747.029187,3722.66742 C746.049698,3722.03833 745.024191,3721.42277 743.985538,3720.85457 L743.268998,3720.469 L743.117802,3720.38782 Z M761,3734.03994 C761.855828,3733.06771 762.697853,3732.03385 763.519172,3731 C765.528619,3733.81344 767.26855,3736.80707 768.716258,3739.9418 L768.716258,3740.03766 C768.944018,3740.52377 769.164877,3741.01674 769.358129,3741.46862 C769.751354,3743.96086 769.965849,3746.47764 770,3749 C769.516871,3747.80867 768.971626,3746.62419 768.398773,3745.4671 C766.387244,3741.38649 763.90432,3737.55169 761,3734.03994 Z M713.834707,3746.16997 L714.492367,3746.27573 L714.897592,3746.27573 L714.997237,3749.40227 L714.997237,3749.45515 C715.000921,3749.51899 715.000921,3749.58299 714.997237,3749.64684 L714.997237,3750.17564 L714.997237,3750.9424 L714.997237,3750.96223 C714.997237,3751.16053 714.997237,3751.39188 714.997237,3751.5373 C714.997237,3751.68272 714.997237,3751.82814 714.997237,3752 L714.332934,3752 L714.100428,3752 C711.985814,3751.81273 709.883348,3751.50819 707.802836,3751.08782 C704.10555,3750.32458 700.495461,3749.19069 697.027841,3747.70349 C694.945459,3746.80663 692.921965,3745.78004 690.969397,3744.62984 L690.60403,3744.41832 L690.232021,3744.18697 C688.626924,3743.21395 687.074712,3742.15707 685.581899,3741.02077 L685.296249,3740.79603 L685.110244,3740.65722 L684.964098,3740.53163 C682.765204,3738.82389 680.704,3736.94752 678.799365,3734.91974 L678.520358,3734.60907 L678.128419,3734.18602 L678.008845,3734.05382 C677.96056,3734.00912 677.916118,3733.96048 677.875984,3733.9084 C677.845517,3733.88615 677.818636,3733.8594 677.796268,3733.82908 L677.510618,3733.48536 C676.587236,3732.42776 675.69707,3731.31067 674.853405,3730.18036 L674.68733,3729.96223 L674.647472,3729.90935 L674.461467,3729.64495 L674.375107,3729.52597 L674.375107,3729.4797 C674.329876,3729.4263 674.289838,3729.36876 674.255533,3729.30784 C673.817093,3728.70633 673.405225,3728.10482 673.039858,3727.53636 L673.039858,3727.49008 C673.031094,3727.4676 673.01749,3727.44729 673,3727.43059 C673.212577,3726.98111 673.451726,3726.5118 673.72409,3725.983 C674.056242,3725.36166 674.421608,3724.661 674.82019,3724 C675.431349,3724.83286 676.055794,3725.63928 676.686882,3726.3796 L676.786527,3726.50519 L676.906102,3726.65061 L676.985818,3726.74315 L677.264825,3727.07365 C678.234708,3728.19736 679.271021,3729.31445 680.347191,3730.37866 C680.43204,3730.47679 680.523007,3730.56951 680.619556,3730.65628 L680.692629,3730.72899 L680.765702,3730.78848 C680.808259,3730.83851 680.854921,3730.88494 680.905206,3730.92729 L681.04471,3731.05949 C681.33036,3731.34372 681.622653,3731.61473 681.908304,3731.87913 L683.841425,3733.58451 L685.834335,3735.19075 L686.571711,3735.73277 L686.87729,3735.9509 L687.90696,3736.70444 L688.757268,3737.2729 L689.37507,3737.68272 L690.039373,3738.10576 L690.112446,3738.14542 C692.006023,3739.32598 693.969264,3740.39212 695.991528,3741.33805 L696.317036,3741.49008 L696.914909,3741.7611 C697.585855,3742.04533 698.349804,3742.38244 699.180182,3742.70633 C702.343333,3743.95267 705.620357,3744.89127 708.965366,3745.50897 C710.493263,3745.7932 712.061018,3746.01794 713.615487,3746.16997 L713.761634,3746.16997 L713.834707,3746.16997 Z M752.645105,3740.88479 L752.346196,3740.95103 C750.851653,3742.097 749.2774,3743.1701 747.696505,3744.13059 L747.46402,3744.27632 L747.324529,3744.35581 C747.211608,3744.4353 747.092045,3744.49491 746.952554,3744.58103 C746.580579,3744.82612 746.215246,3745.03146 745.836628,3745.24344 L745.079393,3745.66075 L745.032896,3745.66075 C744.826981,3745.76674 744.627708,3745.87935 744.415151,3745.97871 C743.750909,3746.29666 743.086668,3746.63449 742.422426,3746.95907 L741.651906,3747.31015 L741.532342,3747.36314 L740.868101,3747.64798 C737.408273,3749.13993 733.80496,3750.27631 730.114028,3751.03951 C728.023166,3751.46586 725.909678,3751.77327 723.783805,3751.96026 L723.278981,3752 L723,3752 C723,3751.96026 723,3751.92051 723,3751.88077 L723,3751.21836 C723.004112,3751.14113 723.004112,3751.06374 723,3750.98652 L723,3748.64159 L723.106279,3746.2503 L723.418472,3746.2503 L723.458327,3746.2503 L724.122568,3746.19068 L724.268702,3746.19068 L724.408192,3746.19068 C725.896094,3746.05157 727.443777,3745.82635 728.99146,3745.52827 C732.336956,3744.90351 735.615338,3743.96308 738.782382,3742.71966 C739.506405,3742.43482 740.263641,3742.12349 741.047446,3741.77242 L741.286573,3741.66643 C741.35355,3741.64159 741.418042,3741.61054 741.479203,3741.57369 L741.625336,3741.51408 L741.970742,3741.36172 L743.020244,3740.85167 L743.684485,3740.53371 L743.86383,3740.44097 L744.601139,3740.05015 L745.325162,3739.65271 L745.371659,3739.65271 C745.531077,3739.57984 745.670568,3739.49373 745.816701,3739.41424 L746.434446,3739.05654 C746.925985,3738.77171 747.417523,3738.48687 747.882492,3738.18879 L747.942274,3738.14904 L748.168116,3738.00331 L748.254468,3737.95032 L748.334177,3737.90395 L748.639728,3737.70523 L748.86557,3737.5595 L749.217618,3737.32766 L749.503242,3737.13556 L749.802151,3736.93683 L749.875217,3736.89047 L750.492962,3736.46652 L750.858295,3736.20156 L751.47604,3735.75775 C752.126997,3735.28081 752.744741,3734.80388 753.322632,3734.32032 L753.395698,3734.26733 C753.548474,3734.14147 753.714534,3734.01561 753.86731,3733.87651 C754.053297,3733.73078 754.239285,3733.57622 754.425273,3733.41282 L754.524909,3733.32009 L755.122727,3732.81003 L755.255575,3732.6908 C755.547841,3732.43246 755.740471,3732.26023 756.105804,3731.9224 C756.471137,3731.58458 756.796616,3731.27987 757.095524,3730.98178 L757.367863,3730.71682 L757.507354,3730.57771 L757.646845,3730.43861 L757.786336,3730.2995 C757.912542,3730.1604 758.065317,3730.02129 758.21145,3729.85569 C758.248717,3729.82225 758.284193,3729.78687 758.317729,3729.7497 L758.669777,3729.38538 L758.769413,3729.27939 L759.25431,3728.76934 L759.353946,3728.65011 C759.539934,3728.45801 759.719279,3728.25266 759.898624,3728.05394 L760.290527,3727.61675 L760.596078,3727.25905 L760.728926,3727.11332 C760.766654,3727.07104 760.802129,3727.02682 760.835205,3726.98084 L761.021192,3726.76224 L761.23375,3726.5039 C761.904634,3725.70239 762.562233,3724.85451 763.18662,3724 C763.57188,3724.66241 763.937213,3725.32482 764.282619,3725.98722 C764.528388,3726.45091 764.767515,3726.93447 765,3727.43128 C764.978349,3727.46838 764.953924,3727.50381 764.926933,3727.53726 C764.661237,3727.94795 764.388898,3728.35865 764.109916,3728.76272 C763.930571,3729.02768 763.751226,3729.27939 763.565238,3729.53773 L763.306184,3729.90206 L763.253044,3729.96167 L763.126839,3730.12728 L763.007275,3730.29288 L762.741578,3730.65058 L762.701724,3730.69695 L762.648585,3730.76981 L762.455954,3731.02815 L761.83821,3731.80979 L761.745216,3731.92903 L761.114186,3732.69742 C760.928199,3732.93589 760.755496,3733.14786 760.569508,3733.35983 L760.569508,3733.39957 L760.469872,3733.51881 L760.337024,3733.66454 L760.157678,3733.87651 L759.931836,3734.1216 C759.739206,3734.34019 759.526649,3734.55879 759.327376,3734.78401 L759.154673,3734.96948 C758.988613,3735.14171 758.829195,3735.31393 758.656492,3735.48616 L758.43065,3735.718 C758.324371,3735.83724 758.244662,3735.90348 758.098529,3736.06246 C757.952396,3736.22143 757.892614,3736.2678 757.653487,3736.50627 C757.41436,3736.74474 757.168591,3736.9832 756.922821,3737.21505 C756.378143,3737.73172 755.886604,3738.18216 755.421635,3738.59948 L755.375138,3738.63922 L755.195793,3738.79158 L754.963309,3738.9903 C754.916812,3739.03667 754.863672,3739.07641 754.817175,3739.11616 L754.392061,3739.48048 L753.694607,3740.05678 L752.645105,3740.88479 Z M735.951008,3786.41535 C738.184698,3788.81917 740.62431,3791.02247 743.261766,3792.97345 C764.823928,3781.71 776.076905,3757.29049 770.644704,3733.55115 C765.212503,3709.8118 744.46438,3692.73642 720.156323,3692 C720.995879,3692.93814 721.81555,3693.93601 722.615336,3694.99363 L722.986508,3695.49146 L723.311283,3695.90963 C723.505707,3696.17514 723.691293,3696.44065 724.033743,3696.94512 L724.404915,3697.49606 L724.5905,3697.77484 C724.72969,3697.98061 724.862251,3698.19302 725.014697,3698.43862 L725.200283,3698.74395 C725.365984,3699.00946 725.525058,3699.27497 725.730528,3699.62677 C725.889602,3699.89892 726.048675,3700.16443 726.201121,3700.43658 L726.519268,3701.00743 L726.943464,3701.81059 C727.115794,3702.12921 727.288124,3702.46109 727.440569,3702.79298 C727.533362,3702.95892 727.619527,3703.13814 727.705692,3703.31073 C727.858138,3703.61606 728.010583,3703.96123 728.156401,3704.27984 L728.441407,3704.94361 L728.653506,3705.42817 C729.004793,3706.24461 729.329568,3707.08761 729.63446,3707.93724 C727.88465,3707.58544 726.035419,3707.30665 724.046999,3706.94821 C723.90781,3706.68934 723.755364,3706.43711 723.602918,3706.19151 C723.191978,3705.52773 722.77441,3704.83077 722.36347,3704.20018 C722.144744,3703.89485 721.926017,3703.55632 721.700663,3703.23107 C720.81913,3701.93007 719.884573,3700.64899 718.930131,3699.45419 L718.479423,3698.87671 L718.028714,3699.45419 C717.809988,3699.7197 717.59789,3699.99185 717.399048,3700.264 C717.319511,3700.36356 717.239974,3700.47641 717.153809,3700.58261 C716.906027,3700.91324 716.773465,3701.09246 716.756125,3701.12027 C716.610308,3701.3194 716.46449,3701.5119 716.331929,3701.69775 L715.954129,3702.22877 L715.410627,3703.00539 L715.05934,3703.52313 C714.856079,3703.81962 714.661656,3704.11611 714.47607,3704.41259 L714.018733,3705.12283 L713.773495,3705.52773 C713.634305,3705.74014 713.534884,3705.91936 713.369183,3706.19151 C713.203481,3706.46366 713.037779,3706.7358 712.812425,3707.11416 C710.923426,3707.30665 709.100707,3707.5788 707.350898,3707.9306 C707.430434,3707.72483 707.516599,3707.49915 707.708813,3706.9814 C707.808234,3706.7358 707.907655,3706.48357 708.079985,3706.07203 C708.205918,3705.70695 708.358364,3705.38834 708.54395,3704.95025 C708.683139,3704.65819 708.835585,3704.31303 708.981402,3703.99441 L709.259781,3703.40365 C709.345946,3703.2178 709.438739,3703.03858 709.524904,3702.85272 C709.703862,3702.50092 709.876191,3702.15576 710.061777,3701.80396 C710.167826,3701.59155 710.280503,3701.38578 710.393181,3701.18001 C710.505858,3700.97424 710.618535,3700.76183 710.73784,3700.5627 L711.022847,3700.05159 C711.274713,3699.6135 711.539836,3699.17541 711.804959,3698.75723 C711.986126,3698.46959 712.089966,3698.30144 712.116478,3698.25276 L712.461137,3697.68191 C712.626839,3697.43632 712.752772,3697.24382 712.958243,3696.93849 C713.163713,3696.63315 713.362555,3696.34109 713.587909,3696.04239 C713.813263,3695.74369 714.031989,3695.45163 714.370021,3695.0069 C715.158761,3693.96477 715.967385,3692.96911 716.802522,3692.03319 C692.515496,3692.78772 671.792137,3709.8516 666.358374,3733.56956 C660.924611,3757.28752 672.147671,3781.6917 693.677195,3792.97345 C696.295668,3790.99213 698.735332,3788.78434 700.968069,3786.37553 L702.67811,3784.4373 L704.288731,3782.44598 L705.143751,3781.49678 C705.415502,3781.1317 705.693881,3780.75335 705.97226,3780.36172 L706.529017,3779.53201 C706.814024,3779.074 707.105659,3778.64255 707.384038,3778.20446 C708.741825,3776.02415 709.953025,3773.75565 711.009591,3771.3543 C711.340994,3770.61751 711.659141,3769.85417 711.957404,3769.09083 C713.207629,3765.93035 714.148803,3762.65588 714.767705,3759.19394 L714.88701,3758.39741 C714.940035,3758.28457 714.940035,3758.185 714.940035,3758.08544 C714.979803,3757.85975 715.019571,3757.63407 715.05934,3757.3752 C715.125621,3756.95702 715.185273,3756.55212 715.23167,3756.13394 C715.271438,3755.91489 715.29795,3755.6693 715.317834,3755.47016 C715.337719,3755.27103 715.357603,3755.10509 715.377487,3754.89268 C715.397371,3754.68027 715.417255,3754.48114 715.43714,3754.26209 C715.457024,3754.04305 715.496792,3753.81736 715.496792,3753.59832 L715.543189,3752.97437 C715.543189,3752.84825 715.543189,3752.72213 715.543189,3752.4168 C715.582957,3752.21103 715.582957,3751.98534 715.582957,3751.49415 C715.582957,3751.25519 715.582957,3751.02287 715.582957,3750.78391 C715.582957,3750.54495 715.582957,3750.29936 715.582957,3750.05376 C715.582957,3749.80816 715.582957,3749.57584 715.582957,3749.33688 L715.463652,3745.52681 C715.463652,3745.35423 715.463652,3745.23918 715.463652,3745.18165 C715.457024,3744.97588 715.410627,3744.74356 715.410627,3744.43159 C715.390743,3744.16608 715.364231,3743.92048 715.337719,3743.65497 C715.311206,3743.38946 715.278066,3743.13722 715.251554,3742.88499 C715.225042,3742.63275 715.165389,3742.38052 715.165389,3742.12829 L715.046084,3741.34503 C715.015153,3741.08837 714.975384,3740.83171 714.926778,3740.57505 C714.847242,3740.07058 714.754449,3739.55948 714.661656,3739.06165 C714.529094,3738.34477 714.370021,3737.58807 714.177807,3736.75835 L714.078386,3736.32025 C713.919312,3735.62329 713.727098,3734.89314 713.488488,3733.98377 C713.389067,3733.64524 713.296274,3733.35318 713.176969,3732.98147 C713.057664,3732.60975 712.925102,3732.17166 712.819053,3731.85969 C712.713004,3731.54771 712.600327,3731.2291 712.494278,3730.92376 C712.447881,3730.78437 712.394857,3730.64498 712.34846,3730.51222 C712.229155,3730.19361 712.10985,3729.84845 711.983917,3729.52984 L711.87124,3729.24441 C711.612745,3728.574 711.340994,3727.91686 711.022847,3727.20662 C710.877029,3726.86146 710.722375,3726.51851 710.558882,3726.17777 C710.220851,3725.514 709.902704,3724.85022 709.558044,3724.18645 C709.060939,3723.2107 708.497553,3722.20176 707.78835,3721.0136 C707.669045,3720.81447 707.543112,3720.60206 707.277989,3720.18389 C706.595298,3719.10857 705.866211,3718.03325 705.017818,3716.86501 C704.925025,3716.74553 704.832232,3716.61278 704.739439,3716.4933 L704.388152,3716.02202 C704.329097,3715.95429 704.273781,3715.88338 704.136285,3715.7034 C703.944071,3715.45781 703.758485,3715.21885 703.566271,3714.98653 C703.274636,3714.60154 702.963117,3714.22982 702.651598,3713.86475 C702.499153,3713.67889 702.333451,3713.49303 702.181005,3713.32045 C701.776693,3712.84917 701.365753,3712.41772 701.021094,3712.02609 C700.676434,3711.63446 700.325146,3711.26275 699.967231,3710.91095 L699.357449,3710.29364 L698.999533,3709.94184 L698.628361,3709.5834 C698.230677,3709.19177 697.819737,3708.82006 697.408797,3708.45498 C697.243095,3708.29568 697.070765,3708.14965 696.832155,3707.9306 L696.315166,3707.49915 C696.050043,3707.28674 695.791549,3707.06105 695.51317,3706.83537 L695.029321,3706.44374 C694.366514,3705.91936 693.703707,3705.40825 693.040901,3704.93697 C693.663939,3704.5719 694.333374,3704.20018 695.029321,3703.84175 C695.506542,3703.58951 695.983762,3703.35055 696.580289,3703.20452 C699.213685,3704.91986 701.695076,3706.85857 704.036864,3709.0391 C704.195938,3709.18513 704.355011,3709.34444 704.732811,3709.71615 C704.911769,3709.89537 705.090727,3710.05468 705.256428,3710.22726 L705.601088,3710.57906 L706.084937,3711.07025 L707.039379,3712.08583 L707.894399,3713.00184 L708.152894,3713.30054 C708.37162,3713.56605 708.596974,3713.8382 708.815701,3714.11034 L709.133848,3714.4887 L709.392342,3714.80731 C709.516066,3714.95776 709.633162,3715.10601 709.74363,3715.25204 L709.935844,3715.49763 C710.134686,3715.74987 710.3269,3716.0021 710.512486,3716.3008 L710.930054,3716.87165 C711.327738,3717.41594 711.718794,3717.98015 712.089966,3718.53772 L712.31532,3718.88289 L712.534046,3719.21477 C712.706376,3719.47365 712.86545,3719.73916 713.031151,3719.99139 C713.196853,3720.24363 713.349298,3720.50914 713.528256,3720.81447 C713.634305,3720.98705 713.740354,3721.15963 713.919312,3721.47825 C714.124782,3721.83005 714.330252,3722.18849 714.522466,3722.54692 C714.88701,3723.27708 715.244926,3723.92094 715.549817,3724.53825 C715.64261,3724.70419 715.722147,3724.88341 715.808311,3725.05599 L716.159599,3725.77951 C716.398209,3726.26406 716.610308,3726.74862 716.822406,3727.23318 C717.213462,3728.116 717.511725,3728.85279 717.756963,3729.51656 L717.922665,3729.94138 L718.479423,3731.46806 L719.03618,3729.94138 C719.082577,3729.80198 719.142229,3729.66259 719.201882,3729.51656 C719.460376,3728.75322 719.79178,3727.98324 720.123183,3727.2199 C720.335281,3726.68888 720.660057,3726.13131 720.911923,3725.61356 C721.16379,3725.09582 721.428912,3724.55152 721.674151,3724.06697 C721.919389,3723.58241 722.177884,3723.09786 722.449635,3722.54029 L723.006392,3721.51144 C723.225119,3721.14636 723.443845,3720.77465 723.669199,3720.40957 C723.748736,3720.27681 723.795132,3720.22371 723.927694,3719.99803 C724.060255,3719.77234 724.199444,3719.55994 724.338634,3719.33425 C724.477823,3719.10857 724.617013,3718.88952 724.76283,3718.67048 C725.041209,3718.24566 725.332844,3717.81421 725.631107,3717.38939 C725.803437,3717.15043 725.969138,3716.91811 726.13484,3716.67915 C726.433103,3716.28089 726.731366,3715.88262 727.036257,3715.48436 L727.241727,3715.21885 C727.341148,3715.07946 727.453825,3714.94006 727.573131,3714.79403 L727.818369,3714.4887 L728.527572,3713.59924 L729.2898,3712.72969 C729.49527,3712.51728 729.694112,3712.2916 729.90621,3712.06592 C730.237614,3711.6942 730.569017,3711.34904 730.940189,3710.95078 L731.264964,3710.62553 L731.516831,3710.36665 L732.404992,3709.49047 L732.928609,3708.99264 C735.245101,3706.83001 737.746877,3704.87542 740.484606,3703.10496 C740.975083,3703.33064 741.458931,3703.57624 741.94278,3703.82183 C742.572447,3704.16036 743.268394,3704.52543 743.931201,3704.9237 L743.294906,3705.39498 L742.433257,3706.05875 C742.134994,3706.29108 741.830103,3706.53667 741.545096,3706.77563 L740.749728,3707.43941 L739.927848,3708.18947 C739.642841,3708.43507 739.37109,3708.6873 739.09934,3708.9329 C738.635375,3709.35772 738.151526,3709.829 737.501975,3710.47286 C737.34953,3710.62553 737.203712,3710.76492 737.064523,3710.91095 C736.713235,3711.26939 736.35532,3711.6411 735.984148,3712.046 L734.274107,3713.97759 L732.809304,3715.82952 L732.590578,3716.10167 L731.868118,3717.08406 C731.62288,3717.40267 731.390897,3717.73456 731.152287,3718.06644 L730.595529,3718.89616 C730.310522,3719.33425 730.018887,3719.76571 729.680856,3720.3631 C729.541667,3720.57551 729.395849,3720.8012 729.177123,3721.17955 C728.87886,3721.71721 728.5342,3722.26814 728.216053,3722.8589 C728.149773,3722.9651 728.09012,3723.07794 728.030467,3723.18415 C727.818369,3723.57578 727.606271,3723.96076 727.414057,3724.35239 C727.274868,3724.6179 727.182075,3724.78385 727.009745,3725.15556 C726.837415,3725.52727 726.671714,3725.83925 726.506012,3726.19105 C726.373451,3726.46541 726.249727,3726.73756 726.13484,3727.06723 L725.949254,3727.49205 C725.69076,3728.08281 725.452149,3728.66029 725.220167,3729.26433 C725.14063,3729.45903 725.100862,3729.55639 725.100862,3729.55639 C724.497708,3731.09635 723.980718,3732.66949 723.536638,3734.2891 C723.317912,3735.01262 723.138954,3735.70958 722.986508,3736.34017 L722.887087,3736.7849 C722.754526,3737.32919 722.635221,3737.87349 722.5358,3738.40451 C722.489403,3738.61692 722.449635,3738.8426 722.409866,3739.06828 C722.297189,3739.63249 722.197768,3740.20334 722.104975,3740.77419 L722.032067,3741.23219 L721.932646,3741.9557 C721.899505,3742.14156 721.859737,3742.32078 721.859737,3742.5 C721.819968,3742.79206 721.760316,3743.09076 721.760316,3743.37618 C721.720547,3743.48902 721.720547,3743.61514 721.720547,3743.72135 C721.700663,3743.97358 721.660895,3744.2059 721.660895,3744.44486 C721.660895,3744.55106 721.660895,3744.66391 721.660895,3744.77011 L721.475309,3748.57354 C721.475309,3748.73948 721.475309,3748.91207 721.475309,3749.08465 L721.475309,3749.74842 C721.475309,3749.97411 721.475309,3750.19315 721.475309,3750.4122 L721.475309,3750.83038 C721.475309,3751.04942 721.475309,3751.27511 721.475309,3751.49415 C721.488565,3751.85259 721.528333,3752.21103 721.528333,3752.68895 C721.528333,3752.80179 721.528333,3752.90799 721.528333,3753.00092 C721.548218,3753.30626 721.587986,3753.69125 721.601242,3753.90365 C721.614498,3754.11606 721.660895,3754.31519 721.660895,3754.56743 C721.660895,3754.81966 721.700663,3755.10509 721.720547,3755.35732 C721.740432,3755.60956 721.773572,3755.85515 721.81334,3756.15385 C721.866365,3756.59637 721.928227,3757.03888 721.998926,3757.4814 L722.071835,3757.92613 C722.111603,3758.15845 722.171256,3758.45715 722.197768,3758.62309 C722.22428,3758.78904 722.283933,3758.94834 722.323701,3759.33333 C722.934729,3762.67902 723.860146,3765.95938 725.087605,3769.13065 C725.37924,3769.89399 725.710644,3770.66397 726.081816,3771.50697 C728.545194,3776.97803 731.878183,3782.01284 735.951008,3786.41535 Z" id="Combined-Shape" fill="#FFFFFF" fill-rule="nonzero"></path>
    </g>
</svg>