<svg xmlns="http://www.w3.org/2000/svg" id="logo" viewBox="0 0 167 21.8" width="100%" height="100%">
    <g class="st0">
        <path fill="white"
              d="M28.4 6.6c.8.9 1.2 2 1.2 3.5v7.1h-3v-6.7c0-1.5-.9-2.4-2.3-2.4-1.5 0-2.5.9-2.5 2.9v6.2h-3V5.7h3V7c.7-1.1 1.9-1.6 3.4-1.6 1.4 0 2.4.4 3.2 1.2zM48.1 8.6v1.2c0 2.3-.7 4.2-2.2 5.6s-3.4 2.1-5.7 2.1c-2.5 0-4.6-.8-6.2-2.4-1.6-1.6-2.4-3.6-2.4-5.9s.8-4.3 2.4-6c1.6-1.6 3.6-2.4 6-2.4 3 0 5.6 1.5 7 3.7l-2.7 1.6c-.8-1.3-2.4-2.2-4.3-2.2-1.5 0-2.8.5-3.8 1.5s-1.5 2.3-1.5 3.8.5 2.8 1.5 3.8 2.3 1.5 4 1.5c2.5 0 4.1-1.2 4.7-3.1H40V8.6h8.1zM53.2 7.7c.6-1.5 1.9-2.2 3.5-2.2v3.3c-.9-.1-1.7.1-2.4.6s-1.1 1.3-1.1 2.4v5.4h-3V5.7h3v2zM58.1 2.5c0-1 .8-1.8 1.8-1.8s1.8.9 1.8 1.8c0 1-.8 1.8-1.8 1.8s-1.8-.8-1.8-1.8zm.3 14.7V5.7h3v11.5h-3zM72.8 1.1h3v16.1h-3v-1.4c-.9 1.1-2.1 1.7-3.7 1.7-1.5 0-2.9-.6-4-1.7-1.1-1.2-1.6-2.6-1.6-4.3s.6-3.1 1.6-4.3c1.1-1.2 2.4-1.8 4-1.8s2.9.6 3.7 1.7v-6zm-3.2 13.6c.9 0 1.7-.3 2.3-.9.6-.6.9-1.4.9-2.3 0-.9-.3-1.7-.9-2.3-.6-.7-1.3-1-2.3-1s-1.7.3-2.3.9c-.6.6-.9 1.4-.9 2.3 0 .9.3 1.7.9 2.3.7.7 1.4 1 2.3 1z"></path>
    </g>
    <path fill="white" d="M8.2 4c1.1 0 2-.9 2-2s-.9-2-2-2-2 .9-2 2 .9 2 2 2z"></path>
    <g class="st0">
        <path fill="white"
              d="M83.8 13.5l1.4-.8c.6 2 2.2 3.2 4.6 3.2s3.8-1.1 3.8-2.9c0-.9-.3-1.5-.9-1.9s-1.6-.9-3-1.3c-1.7-.6-2.8-1-3.3-1.3-1.2-.7-1.8-1.8-1.8-3.2s.5-2.4 1.4-3.2S88.1.9 89.5.9c2.5 0 4.4 1.4 5.3 3.5l-1.4.8c-.7-1.8-2-2.7-4-2.7s-3.3 1-3.3 2.8c0 .8.3 1.4.8 1.8.6.4 1.5.8 2.7 1.2l1.2.4c.3.1.6.2 1.1.4s.9.3 1.1.5c.5.3 1.3.8 1.5 1.4.3.5.6 1.2.6 2.1 0 1.4-.5 2.5-1.5 3.3-1 .8-2.3 1.2-3.9 1.2-2.9-.1-5.1-1.6-5.9-4.1zM105.5 5.7h1.6l-4.9 12.6c-.9 2.3-2.6 3.7-4.6 3.5v-1.4c1.4.2 2.4-.6 3.2-2.4l.3-.7-5.2-11.6h1.6l4.3 9.6 3.7-9.6zM111.9 10.7c1.9.5 4.3 1 4.3 3.5 0 1-.4 1.8-1.2 2.4-.8.6-1.8.9-3 .9-2.2 0-3.8-1.1-4.4-2.6l1.3-.8c.4 1.2 1.6 1.9 3.2 1.9 1.5 0 2.6-.6 2.6-1.8 0-1-1.1-1.6-2.4-2-1.9-.5-4.3-1-4.3-3.5 0-.9.4-1.7 1.1-2.3.8-.6 1.7-.9 2.8-.9 1.9 0 3.4.9 4 2.3l-1.3.7c-.4-1.1-1.4-1.6-2.8-1.6-1.3 0-2.4.6-2.4 1.8.1 1 1.2 1.6 2.5 2zM124.4 7.2h-3.3v7c0 2 1.1 1.8 3.3 1.7v1.3c-3.2.5-4.8-.4-4.8-3.1V7.2h-2.4V5.7h2.4V2.9l1.5-.5v3.2h3.3v1.6zM135.6 7.2c1.1 1.2 1.6 2.6 1.6 4.3v.7h-10.1c.3 2.3 2.1 3.8 4.6 3.8 1.7 0 3.1-.8 3.7-2l1.3.8c-1 1.6-2.8 2.6-5.1 2.6-1.8 0-3.3-.6-4.4-1.7s-1.7-2.6-1.7-4.3.6-3.2 1.7-4.3 2.6-1.7 4.3-1.7c1.7 0 3.1.6 4.1 1.8zm-8.5 3.5h8.6c-.2-1.2-.6-2.2-1.4-2.8s-1.7-1-2.7-1c-2.5 0-4.2 1.6-4.5 3.8zM156.2 10v7.2h-1.5V10c0-2-1.1-3.1-2.8-3.1-1.9 0-3.2 1.2-3.2 3.9v6.4h-1.5V10c0-2-1-3.1-2.7-3.1-1.8 0-3.3 1.3-3.3 3.9v6.4h-1.5V5.7h1.5v1.7c.8-1.3 2-2 3.5-2 1.7 0 2.8.7 3.5 2.1.8-1.4 2.1-2.1 3.7-2.1 2.6 0 4.3 1.8 4.3 4.6zM162.7 10.7c1.9.5 4.3 1 4.3 3.5 0 1-.4 1.8-1.2 2.4-.8.6-1.8.9-3 .9-2.2 0-3.8-1.1-4.4-2.6l1.3-.8c.4 1.2 1.6 1.9 3.2 1.9 1.5 0 2.6-.6 2.6-1.8 0-1-1.1-1.6-2.4-2-1.9-.5-4.3-1-4.3-3.5 0-.9.4-1.7 1.1-2.3.8-.6 1.7-.9 2.8-.9 1.9 0 3.4.9 4 2.3l-1.3.7c-.4-1.1-1.4-1.6-2.8-1.6-1.3 0-2.4.6-2.4 1.8.1 1 1.2 1.6 2.5 2z"></path>
    </g>
    <path fill="white"
          d="M11.3 1.3s-.1 0 0 0l-.1 3.4c.3.2.6.4.8.7 1 1 1.5 2.3 1.5 3.8S13 12 12 13s-2.2 1.5-3.7 1.5S5.6 14 4.6 13s-1.5-2.3-1.5-3.8.5-2.8 1.5-3.8c.2-.2.4-.4.6-.5V1.4l-.1-.1c-1 .4-1.9 1-2.7 1.8C.8 4.8 0 6.8 0 9.2c0 2.3.8 4.3 2.4 6C4 16.8 6 17.6 8.3 17.6s4.3-.8 5.9-2.4 2.4-3.6 2.4-6c0-2.3-.8-4.3-2.4-5.9-.8-1-1.8-1.6-2.9-2z"></path>
</svg>