<?xml version="1.0" encoding="UTF-8"?>
<svg width="119px" height="49px" viewBox="0 0 119 49" version="1.1" xmlns="http://www.w3.org/2000/svg" xmlns:xlink="http://www.w3.org/1999/xlink">
    <!-- Generator: Sketch 48.2 (47327) - http://www.bohemiancoding.com/sketch -->
    <title>Icon-01</title>
    <desc>Created with Sketch.</desc>
    <defs></defs>
    <g id="Выбранный-вариант-10" stroke="none" stroke-width="1" fill="none" fill-rule="evenodd" transform="translate(-395.000000, -928.000000)">
        <g id="Icon-01" transform="translate(395.000000, 927.000000)" fill="#E6EDF8" fill-rule="nonzero">
            <path d="M86,28 C85.9038284,27.870002 85.7517049,27.793315 85.59,27.793315 C85.4282951,27.793315 85.2761716,27.870002 85.18,28 C83.99,29.71 82.75,31.5 81.64,33.08 C76.378311,40.558856 67.7888612,44.9883737 58.6446733,44.9385253 C49.5004854,44.888677 40.9598386,40.3657766 35.78,32.83 C31.15,26.08 26.6,19.29 21.93,12.57 C17.11,5.66 10.58,1.45 2,1 C1.02212885,0.973787678 0.189298157,1.70565788 0.089624348,2.67878902 C-0.0100494613,3.65192016 0.657119745,4.53742916 1.62,4.71 L1.67,4.71 C9.18675187,5.77665819 15.8726106,10.0478751 20,16.42 C24.15,22.42 28.88,28.19 32.26,34.63 C42.19,53.51 74.65,55.86 86.75,32.19 C87.0042713,31.7541136 87.2249118,31.2994605 87.41,30.83 C87.5631802,30.4259597 87.4949836,29.9713157 87.23,29.63 L86,28 Z" id="Shape"></path>
            <path d="M116.68,45.93 C107.74,44.49 101.04,39.93 96.18,32.29 C92.6,26.69 89.88,23.55 86.18,17.46 C75.41,-2 43.55,-6.41 30.58,18.08 L30.28,18.66 C29.9665259,19.1969979 30.0018878,19.8688751 30.37,20.37 C30.69,20.83 31,21.24 31.27,21.64 C31.4091136,21.83271 31.6323243,21.9468718 31.87,21.9468718 C32.1076757,21.9468718 32.3308864,21.83271 32.47,21.64 C33.62,20.08 34.76,18.51 35.92,16.95 C48.16,0.48 70.1,0.84 81.78,17.75 C86.51,24.59 91.1,31.53 95.87,38.34 C100.450433,45.0666867 107.957297,49.2136532 116.09,49.51 C116.222954,49.5242248 116.357046,49.5242248 116.49,49.51 C117.389333,49.4324021 118.094021,48.7040329 118.141861,47.8026267 C118.189701,46.9012205 117.566068,46.1023538 116.68,45.93 Z" id="Shape"></path>
            <path d="M92.45,22.17 C92.672147,22.3864751 92.9786397,22.4936529 93.2872789,22.4627889 C93.5959181,22.431925 93.8751183,22.266178 94.05,22.01 C94.51,21.33 95.05,20.53 95.19,20.31 C100.72,11.45 105.87,6.31 116.99,5.66 L117.17,5.66 C117.964259,5.41579956 118.496282,4.66956605 118.46821,3.83908869 C118.440137,3.00861132 117.858936,2.30000793 117.05,2.11 C116.973696,2.09945432 116.896304,2.09945432 116.82,2.11 C106.13,1.65 95.34,9 91.68,19 C91.5631858,19.3168472 91.4296653,19.6272823 91.28,19.93 C91.044482,20.4477817 91.1789213,21.0588695 91.61,21.43 C91.93,21.68 92.22,21.94 92.45,22.17 Z" id="Shape"></path>
            <path d="M24.94,27.6 C18.1,37.07 13.69,44 2,44.86 C1.65107149,44.9208663 1.3137159,45.0355672 1,45.2 C0.481342528,45.4371163 0.137607204,45.9430149 0.108185006,46.5125446 C0.0787628084,47.0820743 0.368537451,47.6207003 0.86,47.91 L0.92,47.91 C9.92,49.3 18.66,42.91 24,34.82 C25.0010898,33.3130639 25.9158926,31.750554 26.74,30.14 C27.21,29.21 26.39,28.7 25.53,27.56 C25.4519792,27.475721 25.3400274,27.4312495 25.2254419,27.439018 C25.1108564,27.4467865 25.0059314,27.5059615 24.94,27.6 Z" id="Shape"></path>
            <rect id="Rectangle-path" x="11.07" y="12.03" width="1" height="25.76"></rect>
            <rect id="Rectangle-path" x="17.53" y="19.28" width="1" height="11.25"></rect>
            <rect id="Rectangle-path" x="107.07" y="12.03" width="1" height="25.76"></rect>
            <rect id="Rectangle-path" x="100.62" y="19.28" width="1" height="11.25"></rect>
            <rect id="Rectangle-path" x="62.16" y="9.03" width="1" height="31.75"></rect>
            <rect id="Rectangle-path" x="69.61" y="12.03" width="1" height="25.76"></rect>
            <rect id="Rectangle-path" x="76.07" y="19.28" width="1" height="11.25"></rect>
            <rect id="Rectangle-path" x="53.9" y="9.03" width="1" height="31.75"></rect>
            <rect id="Rectangle-path" x="46.45" y="12.03" width="1" height="25.76"></rect>
            <rect id="Rectangle-path" x="39.99" y="19.28" width="1" height="11.25"></rect>
        </g>
    </g>
</svg>