<svg xmlns="http://www.w3.org/2000/svg" width="24" height="20">
  <path fill="#FFF" d="M17.1594 10.8929c.062.1583.09.3219.09.4843 0 .3271-.113.6448-.3025.9042-.1875.2563-.4532.4552-.7657.5427h.0005c-.0026.001-.0052.001-.0065.002-.0013 0-.0034.0012-.0044.0012a1.3741 1.3741 0 0 1-.4453.0734c-.349 0-.6917-.1258-.9656-.3402-.2719-.2134-.4777-.5202-.5422-.884h-.0006c0-.0011 0-.0024-.0005-.004 0-.001 0-.002-.001-.0035h.001a1.323 1.323 0 0 1-.0307-.2802c0-.315.1073-.6177.2844-.8677.1765-.2485.4255-.4458.7169-.5474.001 0 .0021-.0006.0021-.0006.0015 0 .0015-.0015.0028-.0015a1.4774 1.4774 0 0 1 .511-.0915c.3135 0 .6224.0951.8828.269.2573.1711.4661.422.5708.7334.001.002.001.0039.002.0057 0 .0021.0011.0032.0021.0047h-.0014zm-.9594 3.866c-.1229-.0797-.2651-.1278-.4156-.1278a.6506.6506 0 0 0-.3596.109c-1.0604.633-2.3076.9797-3.5459.9797-.929 0-1.8525-.196-2.689-.607l-.0043-.002-.0042-.0016c-.1262-.0516-.27-.1612-.4267-.2656-.0797-.0516-.1629-.1029-.2552-.1407-.0912-.0387-.1924-.0659-.3006-.0659a.6697.6697 0 0 0-.2766.0623 1.8713 1.8713 0 0 0-.014.0054h.0005a.6697.6697 0 0 0-.3334.2787c-.0765.1244-.1141.2693-.1141.4135 0 .1302.0307.2604.0943.3786a.679.679 0 0 0 .2756.2756c1.1957.8064 2.6036 1.1718 4.017 1.1705 1.2744 0 2.5564-.295 3.6978-.832l.006-.0036.0057-.0031c.1505-.0891.3506-.169.5391-.2854.0933-.0594.1844-.1281.2625-.2175a.8206.8206 0 0 0 .1763-.3278v-.0005a.6669.6669 0 0 0 .0219-.1688.6875.6875 0 0 0-.0693-.2968c-.0632-.136-.1669-.2475-.2882-.3272zm-8.3952-1.9395c.002 0 .0048.0008.0072.002.1526.0558.3099.0834.4656.0834.3885 0 .7661-.1592 1.052-.4185.2854-.2602.4809-.6281.4809-1.0476 0-.011 0-.0219-.0006-.0349a1.0864 1.0864 0 0 0 .0016-.0604c0-.4162-.1928-.7856-.4755-1.0469-.2837-.2615-.6604-.4213-1.0504-.4213-.1042 0-.2103.0122-.314.0364-.0016 0-.0028.0005-.0044.0005h-.0015c-.5163.1081-.9694.4912-1.1366 1.0182v.0006c0 .001-.0005.002-.0005.002a1.3935 1.3935 0 0 0-.0705.4406c0 .323.1068.6375.2908.8963.1824.2545.4405.4545.7504.548.0022 0 .0033.0006.0055.0016zm16.1905-3.766v.002c.0037.0525.0047.1048.0047.1569 0 .5829-.187 1.1434-.4989 1.619-.2912.445-.6927.8173-1.1552 1.07.0297.232.0469.4658.0469.699-.0006 1.255-.4334 2.4889-1.187 3.4777v.0005h-.0015c-1.3933 1.8534-3.5328 2.9463-5.6933 3.4976h-.0005l-.0015.0013A14.9775 14.9775 0 0 1 11.9812 20c-1.7704 0-3.5395-.3193-5.1903-.9812l-.0005-.0016h-.0016c-1.7114-.7054-3.3422-1.8267-4.3422-3.4697-.538-.8765-.8333-1.905-.8333-2.9382 0-.2338.0157-.468.047-.6995a3.3531 3.3531 0 0 1-1.1302-1.0427C.2209 10.406.0248 9.8656 0 9.2944v-.0089c.0005-.8.348-1.5577.888-2.1165.54-.5586 1.2776-.9237 2.0688-.9237h.0328a3.6993 3.6993 0 0 1 .2504-.0088c.3974 0 .7957.0643 1.174.2093l.002.0016.0022.0007c.3229.136.6437.3.9297.5272.0927-.0486.1937-.1033.3071-.1465 1.7333-1.0264 3.748-1.4223 5.7115-1.5365.017-.9726.1366-1.9909.6109-2.882.395-.7403 1.0808-1.3167 1.8972-1.5165l.0034-.0017.0044-.0005a4.9264 4.9264 0 0 1 .936-.0878c.8296 0 1.6494.1964 2.4166.503.3396-.5124.8245-.9124 1.3933-1.1368l.0055-.0031.0054-.002C18.9731.0608 19.3257 0 19.6797 0c.3734 0 .7497.0682 1.1023.2258V.2245c.0005.0013.001.0013.001.0013.0027.0008.0048.0024.0066.0024.5054.1947.9333.5545 1.2367 1.0016.3036.449.4823.987.4823 1.54 0 .1019-.0057.204-.0177.3062l-.001.002c0 .0016 0 .0039-.0006.0054-.0593.7147-.4213 1.3418-.9338 1.789-.5156.4491-1.1834.7203-1.8688.7203a2.5102 2.5102 0 0 1-.3312-.0208c-.6798-.052-1.3136-.381-1.7792-.8702-.4672-.4885-.7683-1.1412-.7683-1.8458 0-.034.0031-.069.0042-.1028-.6381-.2841-1.3157-.5198-1.989-.5193-.0975 0-.1948.0054-.2923.0153h-.001c-.5042.0486-.973.3663-1.2.8234v.002c-.3448.6715-.4136 1.4564-.424 2.2355 1.9328.126 3.877.5898 5.5823 1.57h.0026l.0244.0145c.0324.0191.0922.052.1464.0808.1172-.095.2412-.1928.3826-.277.5169-.3443 1.1294-.5155 1.7422-.5155.2718 0 .544.0346.808.1023h.001l.011.0033c.0039.0005.0067.0018.01.0018v.0005c.624.1587 1.1884.517 1.6135 1.0003.4247.484.7103 1.0963.766 1.761v.0014h-.0006zM18.3021 2.728c0 .0262.0006.053.0032.0803v.0047c.0125.3358.171.6483.412.8792.2421.231.5635.374.8895.3752h.0089c.0234.0019.0474.0019.0703.0019.3291.0005.6557-.1413.901-.3714.2458-.2312.4078-.5457.4208-.8843l.0005-.0016V2.81a.9208.9208 0 0 0 .0032-.0769c0-.3485-.163-.6808-.4182-.9269-.2542-.2458-.5964-.3981-.9338-.3972-.1089 0-.2168.0148-.3224.0476l-.0037.0003-.0031.0013c-.2781.0722-.5388.2437-.726.4714-.1882.2266-.3022.5069-.3022.7984zM4.0349 7.9086c-.2584-.1203-.5255-.2062-.7896-.2051-.0443 0-.089.0026-.1333.0074h-.0062l-.0061.0008c-.3792.0104-.7618.1758-1.049.4407-.2876.264-.4777.6206-.4923 1.0137v.0036l-.0007.0033a1.1717 1.1717 0 0 0-.0036.0939c0 .2424.0744.4768.2005.69.0933.159.2158.3037.3542.4298.4431-.9702 1.1354-1.7936 1.926-2.4781zm16.8375 4.746c0-.8649-.312-1.7336-.8172-2.433-1.0074-1.4016-2.5698-2.3157-4.1954-2.8254l-.0114-.004a13.3735 13.3735 0 0 0-.9448-.253 13.064 13.064 0 0 0-2.897-.324c-1.3064 0-2.6129.1934-3.8638.5792C6.5177 7.91 4.95 8.8178 3.945 10.2239v.001c-.5094.7023-.8077 1.574-.8077 2.4419 0 .3195.04.639.1245.95l.001.0005c.183.6979.5407 1.3208 1.0038 1.8632.4628.5438 1.0307 1.0076 1.628 1.386.1323.082.265.1601.401.2364 1.735.9684 3.7328 1.393 5.7163 1.393.3355 0 .673-.012 1.0063-.036 1.9974-.1651 4.003-.7547 5.6245-1.9593l.0005-.0013c.5162-.3815.9943-.8432 1.3724-1.3685.3797-.5255.6578-1.113.7813-1.751v-.0018l.0005-.0006a3.4751 3.4751 0 0 0 .0751-.7228zm1.5766-3.4419c-.0005-.21-.0485-.4189-.1537-.6138l-.0026-.0024-.001-.0032c-.1407-.2895-.3616-.5083-.6277-.6574-.2661-.15-.5776-.2263-.89-.2263-.2826 0-.5636.0632-.813.1886.7932.6887 1.489 1.5165 1.9387 2.4905.1448-.126.2683-.28.3607-.451.1204-.2245.1886-.4764.1886-.725z"/>
</svg>
