<svg xmlns="http://www.w3.org/2000/svg" viewBox="0 0 26.649 26.649">
  <path fill="#010002" d="M26.157 1.238C25.723.67 25.05.346 24.31.346c-.478 0-.973.133-1.472.395L1.593 11.88c-1.51.793-1.615 1.987-1.59 2.463.024.48.255 1.654 1.84 2.283L4.556 17.7c.515.204 1.09.31 1.71.31.1 0 .193-.014.29-.02-.037.05-.082.086-.116.136-.505.757-.53 1.783-.072 2.888l.02.05c.804 1.78 1.697 3.788 1.805 4.067.266.698.944 1.176 1.688 1.176 1.15 0 1.49-.552 3.365-3.604.146-.224.47-.744.526-1.406.22.09.425.17.6.242l3.01 1.226 1.408.58c.086.053.177.098.272.137.21.084.436.127.663.127 1.368 0 1.696-1.185 1.872-1.82.087-.314.207-.75.336-1.23L26.52 3.7c.346-1.274-.08-2.087-.362-2.46zm-14.43 20.5S10.025 24.51 9.88 24.51c-.004 0-.006-.002-.008-.006-.167-.45-1.85-4.176-1.85-4.176-.31-.747-.253-1.387.28-1.387.117 0 .257.035.42.1l1.307.68c.214.15.452.28.714.38l.066.028.124.062c1.01.533 1.33.726.79 1.55zM24.79 3.225l-4.587 16.858c-.26.95-.475 1.727-.48 1.727-.003-.003-.008-.02-.008-.024 0-.006-.748-.312-1.662-.686l-3.01-1.226c-.914-.37-2.413-.97-3.332-1.323l-.15-.06-.56-.29c-.556-.427-.605-1.13-.045-1.73l9.313-9.97c.374-.4.515-.604.434-.604-.064 0-.27.133-.617.404L8.298 15.59c-.514.4-1.295.625-2.03.625-.375 0-.74-.06-1.05-.183L2.503 14.96c-.917-.362-.952-1.032-.08-1.492L23.67 2.328c.246-.13.46-.19.64-.19.456 0 .664.4.48 1.086z"/>
</svg>
