<svg xmlns="http://www.w3.org/2000/svg" viewBox="0 0 96 96">
  <path fill="#030104" d="M53.174 52.908c-1.54-.896-3.678-.896-5.416-.896H42.05v11.76h5.24c1.938 0 4.41.14 6.083-1.035 1.535-1.033 2.404-3.06 2.404-4.992 0-1.794-1.068-3.94-2.603-4.837zM51.02 42.865c1.27-.967 1.937-2.69 1.937-4.28 0-1.724-.8-3.38-2.27-4.276-1.537-.898-4.346-.69-6.15-.69H42.05v10.35h3.29c1.87 0 4.078.136 5.68-1.106zM79.126 0H16.873C7.555 0 0 7.555 0 16.875v62.25C0 88.443 7.555 96 16.873 96h62.252C88.443 96 96 88.443 96 79.125v-62.25C96 7.555 88.443 0 79.125 0zm-28.52 72.535H30.99V25.2h21.43c6.207 0 11.934 3.952 11.934 10.92 0 5.382-3.004 9.067-6.836 10.212v.14c5.682 1.173 9.74 4.26 9.74 11.704 0 6.89-4.692 14.36-16.654 14.36z"/>
</svg>
