<svg xmlns="http://www.w3.org/2000/svg" width="548.358" height="548.358" viewBox="0 0 548.358 548.358">
  <path d="M545.45 400.298c-.663-1.43-1.282-2.618-1.857-3.57-9.514-17.134-27.695-38.166-54.532-63.1l-.56-.572-.28-.28-.28-.287h-.29c-12.18-11.62-19.89-19.42-23.12-23.42-5.91-7.62-7.23-15.32-4-23.13 2.28-5.9 10.855-18.36 25.697-37.4 7.805-10.09 13.99-18.18 18.554-24.27 32.93-43.78 47.21-71.76 42.83-83.94l-1.7-2.85c-1.147-1.72-4.097-3.28-8.85-4.71-4.764-1.43-10.853-1.67-18.28-.71l-82.226.56c-1.332-.47-3.234-.43-5.712.14l-3.71.86-1.43.714-1.134.86c-.95.566-2 1.565-3.14 2.993-1.14 1.42-2.09 3.09-2.85 4.993-8.95 23.03-19.13 44.448-30.552 64.24-7.04 11.806-13.51 22.035-19.416 30.696-5.9 8.66-10.85 15.04-14.842 19.126-4 4.092-7.61 7.37-10.85 9.85-3.238 2.476-5.71 3.523-7.42 3.14-1.715-.38-3.33-.76-4.86-1.14-2.662-1.716-4.804-4.047-6.42-6.997-1.62-2.95-2.713-6.66-3.284-11.134-.57-4.475-.903-8.325-1-11.562-.09-3.236-.05-7.81.146-13.71.2-5.9.29-9.897.29-11.99 0-7.235.143-15.086.426-23.556.29-8.47.52-15.18.718-20.123.195-4.95.285-10.185.285-15.705s-.334-9.85-1-12.99c-.654-3.14-1.66-6.187-2.99-9.14-1.333-2.95-3.29-5.235-5.85-6.855-2.57-1.62-5.764-2.9-9.565-3.854-10.09-2.28-22.94-3.52-38.55-3.71-35.4-.38-58.147 1.91-68.235 6.858-4 2.09-7.613 4.95-10.85 8.564-3.43 4.19-3.904 6.477-1.43 6.85 11.42 1.714 19.508 5.807 24.267 12.278l1.718 3.43c1.335 2.47 2.667 6.85 4 13.13 1.33 6.28 2.19 13.23 2.568 20.84.95 13.895.95 25.79 0 35.69-.952 9.9-1.852 17.604-2.71 23.124-.86 5.52-2.143 9.99-3.855 13.416-1.71 3.427-2.85 5.52-3.424 6.28-.57.76-1.05 1.24-1.426 1.428-2.48.948-5.05 1.43-7.71 1.43-2.67 0-5.9-1.333-9.71-4-3.805-2.665-7.754-6.327-11.847-10.99-4.09-4.666-8.706-11.185-13.85-19.56-5.134-8.373-10.464-18.27-15.984-29.69l-4.57-8.282c-2.853-5.322-6.753-13.08-11.702-23.26-4.95-10.184-9.33-20.036-13.135-29.553-1.52-3.997-3.806-7.04-6.85-9.134l-1.43-.86c-.95-.76-2.474-1.565-4.566-2.425-2.093-.86-4.28-1.473-6.565-1.852l-78.23.57c-7.996 0-13.42 1.81-16.276 5.427l-1.14 1.71c-.57.952-.86 2.474-.86 4.57 0 2.093.57 4.663 1.716 7.706 11.42 26.84 23.84 52.727 37.26 77.66 13.42 24.935 25.08 45.02 34.976 60.238 9.895 15.23 19.983 29.603 30.262 43.113 10.28 13.513 17.087 22.174 20.416 25.98 3.334 3.81 5.95 6.66 7.855 8.564l7.14 6.85c4.565 4.57 11.273 10.04 20.124 16.41 8.855 6.38 18.656 12.66 29.41 18.85 10.758 6.18 23.27 11.223 37.548 15.124 14.278 3.906 28.17 5.47 41.687 4.72h32.835c6.66-.577 11.708-2.67 15.137-6.285l1.134-1.43c.766-1.14 1.48-2.906 2.14-5.28.67-2.38 1-5 1-7.85-.194-8.186.43-15.56 1.85-22.127 1.426-6.565 3.048-11.514 4.86-14.847 1.815-3.33 3.86-6.14 6.138-8.42 2.28-2.284 3.91-3.667 4.86-4.143.95-.48 1.707-.804 2.278-1 4.57-1.52 9.948-.047 16.14 4.43 6.19 4.473 11.99 9.996 17.42 16.56 5.427 6.57 11.945 13.94 19.557 22.124 7.62 8.183 14.28 14.27 19.985 18.27l5.704 3.427c3.81 2.288 8.76 4.38 14.85 6.285 6.08 1.9 11.41 2.38 15.983 1.43l73.08-1.13c7.23 0 12.854-1.195 16.844-3.57 3.997-2.38 6.37-5 7.14-7.85.76-2.855.8-6.093.14-9.713-.675-3.61-1.342-6.136-2.01-7.56z"/>
</svg>
