<svg xmlns="http://www.w3.org/2000/svg" width="23" height="17">
  <path fill="#FFF" d="M22.0225 2.0342C21.3986.9228 20.7215.7184 19.343.6406c-1.3771-.0935-4.84-.1324-7.8401-.1324-3.0058 0-6.4702.0389-7.8459.131C2.2813.7184 1.6028.9214.9732 2.0342.3306 3.1442 0 5.056 0 8.422v.0116c0 3.3514.3306 5.2777.9732 6.3761.6296 1.1114 1.3067 1.313 2.6824 1.4065 1.377.0807 4.8415.1282 7.8473.1282 3 0 6.463-.0475 7.8415-.1267 1.3786-.0936 2.0557-.2952 2.6795-1.4066.6483-1.0984.9761-3.0246.9761-6.3761v-.0115c0-3.3674-.3278-5.2792-.9775-6.3892zM8.625 12.7452V4.1073l7.1875 4.319-7.1875 4.3189z"/>
</svg>
