<svg xmlns="http://www.w3.org/2000/svg" width="28" height="24">
  <g fill="#3172FD">
    <path d="M27.334 5.525L14.434.087a1.117 1.117 0 0 0-.867 0L.666 5.525A1.08 1.08 0 0 0 0 6.52c0 .433.264.823.668.993l12.901 5.402a1.117 1.117 0 0 0 .862 0l12.9-5.402c.406-.17.669-.56.669-.993a1.08 1.08 0 0 0-.666-.994zM14 10.745L3.896 6.516 14 2.255l10.104 4.26L14 10.745zm13.91 6.858c-.239-.505-.886-.739-1.443-.522L14 21.922l-12.467-4.84c-.559-.218-1.204.017-1.444.521-.24.505.02 1.09.577 1.307l12.9 5.01a1.2 1.2 0 0 0 .868 0l12.9-5.01c.558-.217.816-.802.577-1.307z"/>
    <path d="M27.912 11.608c-.239-.508-.884-.744-1.443-.528L14 15.913 1.532 11.08c-.559-.216-1.205.02-1.443.528s.022 1.096.58 1.312l12.9 5a1.196 1.196 0 0 0 .863 0l12.9-5c.559-.216.819-.804.58-1.312z"/>
  </g>
</svg>
