<svg xmlns="http://www.w3.org/2000/svg" width="20" height="20">
  <g fill="#4C4C4C" opacity=".3015">
    <path d="M9.9143 0C4.4476 0 0 4.4476 0 9.9143s4.4476 9.9143 9.9143 9.9143 9.9143-4.4476 9.9143-9.9143S15.381 0 9.9143 0zm0 17.719c-4.3035 0-7.805-3.501-7.805-7.8047 0-4.3037 3.5015-7.8047 7.805-7.8047s7.8049 3.501 7.8049 7.8047c0 4.3037-3.5014 7.8047-7.805 7.8047z"/>
    <path d="M15.0812 9.6082h-4.4555V4.251a.8164.8164 0 0 0-1.6326 0v6.1735c0 .4508.3655.8163.8163.8163h5.2718a.8164.8164 0 0 0 0-1.6326z"/>
  </g>
</svg>
