<svg xmlns="http://www.w3.org/2000/svg" width="40" height="41">
  <g fill="none" fill-rule="evenodd">
    <path fill="#FFF" d="M40 20C40 8.9543 31.0458 0 20 0S0 8.9543 0 20s8.9542 20 20 20 20-8.9543 20-20m-6.5225 0c0 7.4435-6.0342 13.4775-13.4775 13.4775-7.4434 0-13.4776-6.034-13.4776-13.4775 0-7.4435 6.0342-13.4775 13.4776-13.4775 7.4433 0 13.4775 6.034 13.4775 13.4775"/>
    <path fill="#91B3FA" d="M40 20.7221c0-.1386-.0024-.2765-.005-.4146-.2188 11.4804-11.3879 21.603-24.4048 15.4396-6.9257-3.2792-8.566-9.8001-8.9422-13.1814-.0803-.6034-.1256-1.218-.1256-1.8436 0-7.5469 6.0342-13.6648 13.4777-13.6648 6.8929 0 12.5734 5.2476 13.3765 12.017-.1116-3.2437-1.2667-10.4244-8.9862-13.6789C12.5908.4204 1.5022 9.6346.0673 19.0594A20.8642 20.8642 0 0 0 0 20.722C0 31.9213 8.9544 41 20 41c11.0459 0 20-9.0787 20-20.2779"/>
  </g>
</svg>
