<svg xmlns="http://www.w3.org/2000/svg" width="48" height="48">
  <g fill="none">
    <path fill="#E7ECED" d="M17.3597 37.5694l-7.2036 3.9297c-.4227.2305-.8026.5139-1.1561.8227C13.1999 45.8634 18.6215 48 24.5451 48 30.425 48 35.8119 45.8953 40 42.402c-.3863-.3262-.8054-.6196-1.27-.851l-7.7138-3.8568a2.942 2.942 0 0 1-1.6262-2.6314v-3.0267c.2168-.247.4646-.564.7298-.9385 1.0513-1.4851 1.8466-3.1188 2.3978-4.8326.9894-.3053 1.7182-1.2191 1.7182-2.3052v-3.2309c0-.7107-.316-1.3457-.8071-1.7903V14.268S34.388 7 24.546 7s-8.8826 7.268-8.8826 7.268v4.6706c-.492.4446-.8072 1.0796-.8072 1.7903v3.2309c0 .851.4473 1.6 1.117 2.0327.807 3.5143 2.9207 6.0436 2.9207 6.0436v2.952a2.945 2.945 0 0 1-1.5342 2.5813z"/>
    <path fill="#5C8DF5" d="M24.4112.0035C11.1582-.2205.23 10.2317.0036 23.349-.125 30.7867 3.2242 37.4713 8.557 41.9166c.3487-.3012.7227-.5773 1.1384-.8014l7.1614-3.8662c.9392-.5074 1.5242-1.4818 1.5242-2.5414v-2.9044s-2.102-2.4885-2.9036-5.946c-.6648-.4258-1.1104-1.1617-1.1104-1.9999v-3.1787c0-.6992.3143-1.324.8024-1.7615v-4.595S14.2157 7.1713 24 7.1713c9.7842 0 8.8305 7.1508 8.8305 7.1508v4.595c.489.4375.8024 1.0623.8024 1.7615v3.1787c0 1.0686-.7245 1.9677-1.708 2.268-.548 1.6861-1.3387 3.2934-2.3839 4.7546-.2635.3684-.5099.6804-.7254.9233v2.978c0 1.0962.6258 2.0993 1.6166 2.5888l7.6685 3.7945c.4601.2277.8758.5155 1.259.8355 5.1715-4.2688 8.5126-10.6513 8.6367-17.8388C48.2246 11.044 37.665.2276 24.4112.0035z"/>
  </g>
</svg>
