<svg xmlns="http://www.w3.org/2000/svg" width="22" height="25">
  <path fill="#FFF" d="M16.5 0H7.071C5.41 0 3.93 1.516 3.93 3.125l-.909.021C1.36 3.146 0 4.641 0 6.25v15.625C0 23.484 1.48 25 3.143 25h11.786c1.662 0 3.142-1.516 3.142-3.125h.786c1.663 0 3.143-1.516 3.143-3.125V6.269L16.5 0zm-1.571 23.438H3.143c-.825 0-1.572-.767-1.572-1.563V6.25c0-.796.672-1.537 1.497-1.537l.86-.025V18.75c0 1.609 1.48 3.125 3.143 3.125H16.5c0 .796-.746 1.563-1.571 1.563zm5.5-4.688c0 .796-.747 1.562-1.572 1.562H7.071c-.825 0-1.571-.766-1.571-1.562V3.125c0-.796.746-1.562 1.571-1.562h7.858c-.013 1.799 0 3.144 0 3.144 0 1.623 1.469 3.106 3.142 3.106h2.358V18.75zM18.07 6.25c-.836 0-1.571-1.512-1.571-2.323V1.585l3.929 4.665H18.07zm-1.57 4.702H9.429a.783.783 0 0 0-.786.78c0 .431.352.78.786.78H16.5a.783.783 0 0 0 .786-.78.783.783 0 0 0-.786-.78zm0 3.902H9.429a.783.783 0 0 0-.786.78c0 .432.352.78.786.78H16.5a.782.782 0 0 0 .786-.78.783.783 0 0 0-.786-.78z"/>
</svg>
