<svg xmlns="http://www.w3.org/2000/svg" width="25" height="36">
  <g fill="none" fill-rule="evenodd">
    <circle cx="11" cy="9" r="8" fill="#FFF"/>
    <path fill="#F84F78" fill-rule="nonzero" d="M24.41 8.96c-.13-.48-.392-.992-.586-1.44C21.502 1.984 16.428 0 12.33 0 6.847 0 .806 3.648 0 11.168v1.536c0 .064.022.64.054.928.452 3.584 3.303 7.392 5.431 10.976 2.29 3.84 4.667 7.617 7.022 11.392 1.452-2.464 2.899-4.96 4.317-7.36.387-.704.836-1.408 1.223-2.08.258-.448.751-.896.976-1.312 2.29-4.16 5.977-8.352 5.977-12.48v-1.696c0-.447-.56-2.015-.59-2.112zM12.326 16c-1.597 0-3.346-.78-4.209-2.937C7.99 12.719 8 12.03 8 11.968V11c0-2.75 2.388-4 4.465-4C15.022 7 17 9 17 11.5S14.884 16 12.327 16z"/>
  </g>
</svg>
