<svg xmlns="http://www.w3.org/2000/svg" width="138" height="37">
  <g fill="none" fill-rule="evenodd">
    <path fill="#FFF" d="M37.0303 18.1818C37.0303 8.1403 28.8901 0 18.8485 0 8.8069 0 .6667 8.1403.6667 18.1818c0 10.0416 8.1402 18.1818 18.1818 18.1818 10.0416 0 18.1818-8.1402 18.1818-18.1818m-5.9296 0c0 6.7668-5.4856 12.2523-12.2522 12.2523-6.7668 0-12.2524-5.4855-12.2524-12.2523S12.0817 5.9295 18.8485 5.9295c6.7666 0 12.2522 5.4855 12.2522 12.2523m45.8854 8.9997a.1449.1449 0 0 0-.0206-.0744c-.0138-.0238-.0394-.0433-.0765-.0585-.0373-.0152-.0863-.0268-.1471-.0357-.061-.0088-.1482-.0129-.262-.0129-.0941 0-.1729.004-.2355.013-.0629.0088-.113.0204-.15.0356-.0376.0152-.064.0347-.0796.0585a.1323.1323 0 0 0-.0235.0744v4.038c0 .38-.0324.6773-.0973.8908-.0647.2142-.1638.3946-.2972.5414a1.2662 1.2662 0 0 1-.4769.3306c-.1845.0733-.3885.1103-.6121.1103-.2238 0-.4289-.037-.6152-.1103a1.2884 1.2884 0 0 1-.4827-.3306c-.1354-.1468-.2376-.3293-.3062-.5475-.0687-.2181-.1029-.537-.1029-.956v-3.9667a.134.134 0 0 0-.0235-.0744c-.0159-.0238-.0424-.0433-.0795-.0585-.0373-.0152-.0885-.0268-.1532-.0357-.0647-.0088-.1482-.0129-.2502-.0129-.0942 0-.1727.004-.2353.013-.0629.0088-.114.0204-.1532.0356-.0393.0152-.0667.0347-.0824.0585a.1323.1323 0 0 0-.0235.0744v4.0445c0 .5487.0569.9841.1706 1.3059.1138.322.2797.592.4978.81.2176.2183.4796.3826.7856.4927.306.11.6455.1654 1.0183.1654.3846 0 .7321-.0606 1.042-.1815.31-.121.573-.295.789-.5217.2158-.227.3836-.5035.5033-.8298.1195-.326.1795-.7397.1795-1.241v-4.0445zm8.8721.0259a.219.219 0 0 0-.0175-.0908c-.0118-.0258-.0344-.0474-.0678-.0649-.0334-.017-.0785-.03-.1354-.0388-.0569-.0088-.1323-.0129-.2265-.0129-.0905 0-.163.004-.2179.013-.055.0088-.1001.0217-.1354.0387-.0354.0175-.059.039-.0707.065a.219.219 0 0 0-.0175.0907v3.2473c0 .1727.0008.3522.0029.5378.0019.1859.0037.3703.006.5541.0018.1838.0037.3674.0057.551.0019.1838.0048.3617.009.5348h-.012a55.5821 55.5821 0 0 0-.4916-1.0533 652.6632 652.6632 0 0 0-.503-1.0468l-1.4955-3.085a1.46 1.46 0 0 0-.097-.1816c-.0335-.0517-.0697-.094-.1091-.1264a.4201.4201 0 0 0-.1383-.0744.5795.5795 0 0 0-.1795-.0259h-.73c-.0942 0-.1787.0345-.2531.1037-.0746.069-.112.1772-.112.324v6.2676c0 .03.0069.0572.0207.081.0138.0236.0383.0431.0736.0583.0354.015.0814.0268.1383.0356.0569.0087.1325.013.2267.013.0863 0 .157-.0043.212-.013.0549-.0088.099-.0206.1324-.0356.0334-.0152.0568-.0347.0707-.0583a.1612.1612 0 0 0 .0206-.081V29.988a39.7795 39.7795 0 0 0-.0118-.943 38.43 38.43 0 0 1-.0117-.9433h.006c.1529.3285.3068.6591.4618.9916.155.333.311.6614.468.9854l1.6484 3.3896c.0627.1428.1315.2476.2061.3145.0744.0668.1725.1006.2943.1006h.677c.102 0 .1864-.0348.2532-.1037.0665-.0692.1-.1772.1-.3243v-6.248zm5.1399-.0259a.1326.1326 0 0 0-.0237-.0744c-.0157-.0238-.0431-.0433-.0825-.0585-.0391-.0152-.0902-.0268-.1529-.0357-.0628-.0088-.1434-.0129-.2413-.0129-.0942 0-.173.004-.2356.013-.0627.0088-.1138.0204-.1531.0356-.0392.0152-.0676.0347-.0854.0585a.1243.1243 0 0 0-.0263.0744v6.5528c0 .03.0078.0572.0235.081.0156.0236.043.0431.0824.0583.0392.015.0913.0268.1562.0356.0645.0087.144.013.2383.013.0979 0 .1785-.0043.2413-.013.0627-.0088.1138-.0206.153-.0356.0393-.0152.0667-.0347.0824-.0583a.1449.1449 0 0 0 .0237-.081v-6.5528zm8.0654.1006c-.008-.0584-.0188-.106-.0324-.1428-.0136-.0365-.0313-.0624-.0531-.0778a.1253.1253 0 0 0-.0736-.0225h-4.3796a.1273.1273 0 0 0-.0738.0225c-.0216.0154-.0402.0413-.0558.0778-.0157.0368-.0266.0844-.0322.1428a1.973 1.973 0 0 0-.0088.204c0 .0778.0027.1458.0088.2042.0056.0583.0165.106.0322.1427.0156.0368.0342.0638.0558.081a.1172.1172 0 0 0 .0738.0259h1.6894v5.7944c0 .03.0078.0572.0235.081.0159.0236.0433.0431.0824.0583.0392.015.0893.0268.15.0356.0609.0087.1423.013.2445.013.0981 0 .1795-.0043.2442-.013.065-.0088.1148-.0206.1503-.0356.0354-.0152.0616-.0347.0793-.0583a.133.133 0 0 0 .0268-.081v-5.7944h1.6892c.055 0 .0973-.0357.1267-.107.0295-.0716.0444-.1869.0444-.3469a1.55 1.55 0 0 0-.012-.204zm7.0057 5.9625c-.0079-.0538-.0186-.098-.0324-.133-.0136-.0342-.0313-.059-.053-.0744a.1177.1177 0 0 0-.0676-.0225h-2.4902v-2.2489h2.1135a.126.126 0 0 0 .0736-.0227c.0214-.0152.0402-.0399.0558-.0746.0157-.0345.0266-.0788.0324-.1328a1.765 1.765 0 0 0 .0089-.1912 2.014 2.014 0 0 0-.009-.2074c-.0057-.056-.0166-.1015-.0323-.1362-.0156-.0345-.0344-.0592-.0558-.0746a.1258.1258 0 0 0-.0736-.0225h-2.1135v-1.9964h2.449a.1159.1159 0 0 0 .0738-.0258c.0212-.0173.039-.0423.0528-.0747.0136-.0322.0245-.0756.0325-.1296a1.4418 1.4418 0 0 0 .0116-.1976c0-.078-.004-.146-.0116-.2042-.008-.0583-.019-.1046-.0325-.1394-.0138-.0344-.0316-.0592-.0528-.0746a.1273.1273 0 0 0-.0738-.0225h-3.12c-.0784 0-.1532.0311-.2237.094-.0705.0626-.106.165-.106.3079v6.0404c0 .1427.0355.2453.106.3079.0705.0629.1453.0942.2236.0942h3.1613a.1147.1147 0 0 0 .0676-.0227c.0217-.0152.0394-.041.053-.0779.0138-.037.0245-.0832.0324-.1393a1.4493 1.4493 0 0 0 .0117-.201c0-.0779-.0037-.1437-.0117-.1979zm8.7309-4.2839c-.1338-.4127-.329-.7617-.5857-1.0467-.2573-.2855-.5753-.5026-.9539-.6515-.3788-.149-.839-.2235-1.3804-.2235h-1.607c-.0787 0-.1533.0311-.2238.094-.0707.0626-.1061.165-.1061.3079v6.0404c0 .1427.0354.2453.1061.3079.0705.0629.1451.0942.2239.0942h1.4773c.5533 0 1.0263-.0704 1.419-.2108.3924-.1403.7238-.3554.9946-.6451.2708-.2891.4777-.6545.6211-1.0951.1433-.4407.2148-.9635.2148-1.5684 0-.523-.0668-.9907-.2-1.4033zm-.9656 2.586c-.0863.3262-.217.5985-.3914.8166-.1747.2183-.3936.38-.6566.4863-.2628.106-.5946.1583-.9948.1583h-.8475V27.914h.8535c.4237 0 .7683.0626 1.0331.1877.2649.1257.4806.2995.6478.5219.1665.2226.2893.485.3679.7876.078.3024.1174.6308.1174.985 0 .4409-.0432.8244-.1294 1.1504zM51.9282 7.277H49v12.4288h6.3978V17.213h-3.4696V7.277zM62.1848 7c-2.7589 0-3.9607 1.5408-3.9607 3.4968v5.591c0 2.4755 1.2357 3.9122 3.9436 3.9122 2.742 0 3.9437-1.4367 3.9437-3.9121V10.514c0-1.9387-1.1679-3.514-3.9266-3.514zm-.017 2.2849c.4908 0 1.0156.312 1.0156 1.0215v6.3007c0 .7444-.5248 1.108-1.0157 1.108-.5077 0-1.0154-.3636-1.0154-1.108v-6.3007c0-.7096.5077-1.0215 1.0154-1.0215zm7.0191-2.008v12.4289h2.7926V16.763c0-1.333-.3553-3.306-.4906-4.6218h.0168l2.5218 7.5646h2.8266V7.277h-2.7926v3.0986c0 1.3677.3724 3.3235.457 4.7082h-.017l-2.488-7.8068h-2.8266zm18.7316 4.1028v-.883C87.9185 8.3156 86.7675 7 84.0933 7c-2.6573 0-3.842 1.281-3.842 3.4968v5.92c0 2.7177 1.5571 3.5832 3.0295 3.5832 1.2694 0 2.3357-.554 2.6065-1.3502l.1185 1.056h1.9127v-6.6819h-3.8252v2.2332h1.0325v1.4022c0 .727-.5079 1.108-.9986 1.108-.5079 0-1.0494-.3982-1.0494-1.143v-6.422c0-.5365.3723-.9174 1.0663-.9174.711 0 .9817.3636.9817.9002v1.1946h2.7927zm3.6218 8.326h6.804v-2.3542h-3.8759V14.426h3.4696v-2.354h-3.4696V9.631h3.876V7.277h-6.8041v12.4288zM101.272 7.277l2.6913 12.4288h3.4527l2.6913-12.4288h-2.9621l-1.1676 6.526c-.1018.5192-.2034 2.3196-.305 3.462h-.0337c-.1016-1.1424-.254-2.9428-.3383-3.4273l-1.0665-6.5607h-2.962zm11.8644 12.4288h2.9282V7.277h-2.9282v12.4288zM124.2057 9.631h2.1495V7.277h-7.1424v2.354h2.3018v10.0748h2.691V9.631zm4.959-2.3541l2.962 6.907v5.5218h2.928V14.184L138 7.277h-2.8266l-1.5234 3.9294-1.5234-3.9294h-2.9619z"/>
    <path fill="#91B3FA" d="M37.0303 18.3983c0-.125-.0022-.2491-.0045-.3735-.199 10.3426-10.3526 19.462-22.1862 13.9095-6.2961-2.9542-7.7872-8.829-8.1293-11.875-.073-.5437-.1142-1.0974-.1142-1.661 0-6.799 5.4857-12.3107 12.2524-12.3107 6.2663 0 11.4304 4.7276 12.1605 10.8262-.1015-2.9222-1.1515-9.3914-8.1692-12.3233C12.1128.1085 2.0323 8.4095.7278 16.9003a18.6282 18.6282 0 0 0-.0611 1.498c0 10.0894 8.1403 18.2684 18.1818 18.2684 10.0417 0 18.1818-8.179 18.1818-18.2684"/>
  </g>
</svg>
