<?xml version="1.0" encoding="UTF-8"?>
<svg width="1474px" height="783px" viewBox="0 0 1474 783" version="1.1" xmlns="http://www.w3.org/2000/svg" xmlns:xlink="http://www.w3.org/1999/xlink">
    <!-- Generator: Sketch 48.2 (47327) - http://www.bohemiancoding.com/sketch -->
    <title>Group 9 Copy 4</title>
    <desc>Created with Sketch.</desc>
    <defs></defs>
    <g id="HomePage" stroke="none" stroke-width="1" fill="none" fill-rule="evenodd">
        <g id="Group-9-Copy-4" fill="#346FDF" fill-rule="nonzero">
            <g id="Group-12">
                <g id="Icon-01" opacity="0.100317029" transform="translate(146.735571, 226.310936) rotate(-36.000000) translate(-146.735571, -226.310936) translate(112.735571, 212.310936)">
                    <path d="M49.1473917,15.630903 C49.0923804,15.5556461 49.005364,15.5112515 48.9128669,15.5112515 C48.8203697,15.5112515 48.7333533,15.5556461 48.678342,15.630903 C47.9976478,16.6208352 47.2883531,17.65708 46.6534198,18.5717541 C43.6436711,22.9013214 38.7304036,25.4656034 33.4998193,25.4367458 C28.269235,25.4078882 23.3838833,22.7895463 20.420954,18.4270272 C17.7725389,14.5194002 15.1698847,10.5886169 12.4985892,6.69835718 C9.74149178,2.69810496 6.00625406,0.260903544 1.09839194,0.000395078351 C0.539037998,-0.0147794369 0.0626489317,0.408905858 0.00563432638,0.972258968 C-0.0513802789,1.53561208 0.330248448,2.04824006 0.881027414,2.14814265 L0.90962801,2.14814265 C5.20929955,2.76563929 9.03369034,5.23827966 11.3946062,8.92715183 C13.7684556,12.400598 16.4740719,15.7408955 18.4074721,19.4690611 C24.0875503,30.3988385 42.6550566,31.7592716 49.5764007,18.0565263 C49.7218469,17.8041883 49.8480558,17.5409861 49.9539285,17.2692118 C50.0415494,17.0353098 50.0025402,16.7721128 49.8509664,16.5745226 L49.1473917,15.630903 Z" id="Shape"></path>
                    <path d="M66.1686634,25.9168322 C61.0935697,25.0813996 57.2900878,22.4358631 54.5311442,18.003429 C52.498836,14.7545245 50.9547358,12.9328173 48.8543055,9.39963361 C42.7403503,-1.89030969 24.6539424,-4.44882202 17.2910827,9.75933375 L17.1207775,10.0958274 C16.9428233,10.407373 16.9628978,10.7971702 17.1718691,11.0879036 C17.3535279,11.3547779 17.5295099,11.5926442 17.6827846,11.8247088 C17.7617571,11.9365117 17.8884702,12.002744 18.0233949,12.002744 C18.1583195,12.002744 18.2850327,11.9365117 18.3640052,11.8247088 C19.0168416,10.9196568 19.6640013,10.0088032 20.3225145,9.10375123 C27.270965,-0.451509103 39.725949,-0.242650954 46.3564965,9.56788045 C49.0416412,13.5361853 51.6473102,17.5625063 54.3551622,21.5134063 C56.9554003,25.4159711 61.2169255,27.8218815 65.8337299,27.9938105 C65.9092057,28.0020632 65.9853277,28.0020632 66.0608035,27.9938105 C66.5713405,27.9487912 66.9713802,27.5262194 66.9985381,27.0032582 C67.0256961,26.480297 66.6716697,26.0168253 66.1686634,25.9168322 Z" id="Shape"></path>
                    <path d="M52.7529587,11.8245175 C52.8831347,11.9519904 53.0627365,12.0151027 53.2435961,11.9969283 C53.4244557,11.9787539 53.5880643,11.8811525 53.6905433,11.7303003 C53.9600988,11.3298775 54.2765336,10.8587918 54.3585723,10.7292433 C57.599099,5.51196954 60.6169494,2.48524414 67.1331622,2.10248704 L67.2386405,2.10248704 C67.7040684,1.95868788 68.0158291,1.51926299 67.9993789,1.03023051 C67.9829287,0.541198035 67.6423504,0.123931914 67.1683216,0.0120443963 C67.1236082,0.00583449813 67.0782573,0.00583449813 67.0335438,0.0120443963 C60.7693069,-0.258829861 54.4464708,4.06926969 52.3017461,9.95784051 C52.2332941,10.1444182 52.1550524,10.3272201 52.06735,10.5054776 C51.9293387,10.810377 52.0081188,11.1702204 52.2607268,11.3887632 C52.4482437,11.5359775 52.6181809,11.6890803 52.7529587,11.8245175 Z" id="Shape"></path>
                    <path d="M13.9145682,15.0939976 C10.0820732,20.5937659 7.61112249,24.6184116 1.06114203,25.1178626 C0.865635191,25.1532111 0.676612733,25.2198245 0.500835743,25.31532 C0.210228702,25.4530269 0.0176316394,25.746831 0.00114619704,26.0775894 C-0.0153392453,26.4083477 0.147023308,26.7211585 0.422392863,26.8891713 L0.45601124,26.8891713 C5.4987678,27.6964234 10.3958447,23.9853865 13.3878803,19.2870628 C13.9487972,18.4118992 14.461367,17.5044607 14.9231195,16.5691203 C15.1864635,16.0290163 14.7270123,15.7328303 14.2451489,15.0707673 C14.2014334,15.0218217 14.1387061,14.9959946 14.0745031,15.0005062 C14.0103001,15.0050178 13.95151,15.0393841 13.9145682,15.0939976 Z" id="Shape"></path>
                    <rect id="Rectangle-path" x="6" y="6" width="1" height="15"></rect>
                    <rect id="Rectangle-path" x="10" y="10" width="1" height="7"></rect>
                    <rect id="Rectangle-path" x="61" y="6" width="1" height="15"></rect>
                    <rect id="Rectangle-path" x="57" y="10" width="1" height="7"></rect>
                    <rect id="Rectangle-path" x="36" y="4" width="1" height="18"></rect>
                    <rect id="Rectangle-path" x="40" y="6" width="1" height="15"></rect>
                    <rect id="Rectangle-path" x="43" y="10" width="1" height="7"></rect>
                    <rect id="Rectangle-path" x="31" y="4" width="1" height="18"></rect>
                    <rect id="Rectangle-path" x="27" y="6" width="1" height="15"></rect>
                    <rect id="Rectangle-path" x="23" y="10" width="1" height="7"></rect>
                </g>
                <g id="Icon-01-Copy-11" opacity="0.163779438" transform="translate(63.154468, 431.634753) rotate(48.000000) translate(-63.154468, -431.634753) translate(29.154468, 417.634753)">
                    <path d="M49.1473917,15.630903 C49.0923804,15.5556461 49.005364,15.5112515 48.9128669,15.5112515 C48.8203697,15.5112515 48.7333533,15.5556461 48.678342,15.630903 C47.9976478,16.6208352 47.2883531,17.65708 46.6534198,18.5717541 C43.6436711,22.9013214 38.7304036,25.4656034 33.4998193,25.4367458 C28.269235,25.4078882 23.3838833,22.7895463 20.420954,18.4270272 C17.7725389,14.5194002 15.1698847,10.5886169 12.4985892,6.69835718 C9.74149178,2.69810496 6.00625406,0.260903544 1.09839194,0.000395078351 C0.539037998,-0.0147794369 0.0626489317,0.408905858 0.00563432638,0.972258968 C-0.0513802789,1.53561208 0.330248448,2.04824006 0.881027414,2.14814265 L0.90962801,2.14814265 C5.20929955,2.76563929 9.03369034,5.23827966 11.3946062,8.92715183 C13.7684556,12.400598 16.4740719,15.7408955 18.4074721,19.4690611 C24.0875503,30.3988385 42.6550566,31.7592716 49.5764007,18.0565263 C49.7218469,17.8041883 49.8480558,17.5409861 49.9539285,17.2692118 C50.0415494,17.0353098 50.0025402,16.7721128 49.8509664,16.5745226 L49.1473917,15.630903 Z" id="Shape"></path>
                    <path d="M66.1686634,25.9168322 C61.0935697,25.0813996 57.2900878,22.4358631 54.5311442,18.003429 C52.498836,14.7545245 50.9547358,12.9328173 48.8543055,9.39963361 C42.7403503,-1.89030969 24.6539424,-4.44882202 17.2910827,9.75933375 L17.1207775,10.0958274 C16.9428233,10.407373 16.9628978,10.7971702 17.1718691,11.0879036 C17.3535279,11.3547779 17.5295099,11.5926442 17.6827846,11.8247088 C17.7617571,11.9365117 17.8884702,12.002744 18.0233949,12.002744 C18.1583195,12.002744 18.2850327,11.9365117 18.3640052,11.8247088 C19.0168416,10.9196568 19.6640013,10.0088032 20.3225145,9.10375123 C27.270965,-0.451509103 39.725949,-0.242650954 46.3564965,9.56788045 C49.0416412,13.5361853 51.6473102,17.5625063 54.3551622,21.5134063 C56.9554003,25.4159711 61.2169255,27.8218815 65.8337299,27.9938105 C65.9092057,28.0020632 65.9853277,28.0020632 66.0608035,27.9938105 C66.5713405,27.9487912 66.9713802,27.5262194 66.9985381,27.0032582 C67.0256961,26.480297 66.6716697,26.0168253 66.1686634,25.9168322 Z" id="Shape"></path>
                    <path d="M52.7529587,11.8245175 C52.8831347,11.9519904 53.0627365,12.0151027 53.2435961,11.9969283 C53.4244557,11.9787539 53.5880643,11.8811525 53.6905433,11.7303003 C53.9600988,11.3298775 54.2765336,10.8587918 54.3585723,10.7292433 C57.599099,5.51196954 60.6169494,2.48524414 67.1331622,2.10248704 L67.2386405,2.10248704 C67.7040684,1.95868788 68.0158291,1.51926299 67.9993789,1.03023051 C67.9829287,0.541198035 67.6423504,0.123931914 67.1683216,0.0120443963 C67.1236082,0.00583449813 67.0782573,0.00583449813 67.0335438,0.0120443963 C60.7693069,-0.258829861 54.4464708,4.06926969 52.3017461,9.95784051 C52.2332941,10.1444182 52.1550524,10.3272201 52.06735,10.5054776 C51.9293387,10.810377 52.0081188,11.1702204 52.2607268,11.3887632 C52.4482437,11.5359775 52.6181809,11.6890803 52.7529587,11.8245175 Z" id="Shape"></path>
                    <path d="M13.9145682,15.0939976 C10.0820732,20.5937659 7.61112249,24.6184116 1.06114203,25.1178626 C0.865635191,25.1532111 0.676612733,25.2198245 0.500835743,25.31532 C0.210228702,25.4530269 0.0176316394,25.746831 0.00114619704,26.0775894 C-0.0153392453,26.4083477 0.147023308,26.7211585 0.422392863,26.8891713 L0.45601124,26.8891713 C5.4987678,27.6964234 10.3958447,23.9853865 13.3878803,19.2870628 C13.9487972,18.4118992 14.461367,17.5044607 14.9231195,16.5691203 C15.1864635,16.0290163 14.7270123,15.7328303 14.2451489,15.0707673 C14.2014334,15.0218217 14.1387061,14.9959946 14.0745031,15.0005062 C14.0103001,15.0050178 13.95151,15.0393841 13.9145682,15.0939976 Z" id="Shape"></path>
                    <rect id="Rectangle-path" x="6" y="6" width="1" height="15"></rect>
                    <rect id="Rectangle-path" x="10" y="10" width="1" height="7"></rect>
                    <rect id="Rectangle-path" x="61" y="6" width="1" height="15"></rect>
                    <rect id="Rectangle-path" x="57" y="10" width="1" height="7"></rect>
                    <rect id="Rectangle-path" x="36" y="4" width="1" height="18"></rect>
                    <rect id="Rectangle-path" x="40" y="6" width="1" height="15"></rect>
                    <rect id="Rectangle-path" x="43" y="10" width="1" height="7"></rect>
                    <rect id="Rectangle-path" x="31" y="4" width="1" height="18"></rect>
                    <rect id="Rectangle-path" x="27" y="6" width="1" height="15"></rect>
                    <rect id="Rectangle-path" x="23" y="10" width="1" height="7"></rect>
                </g>
                <g id="Icon-01-Copy-17" opacity="0.163779438" transform="translate(1171.154468, 34.634753) rotate(48.000000) translate(-1171.154468, -34.634753) translate(1137.154468, 20.634753)">
                    <path d="M49.1473917,15.630903 C49.0923804,15.5556461 49.005364,15.5112515 48.9128669,15.5112515 C48.8203697,15.5112515 48.7333533,15.5556461 48.678342,15.630903 C47.9976478,16.6208352 47.2883531,17.65708 46.6534198,18.5717541 C43.6436711,22.9013214 38.7304036,25.4656034 33.4998193,25.4367458 C28.269235,25.4078882 23.3838833,22.7895463 20.420954,18.4270272 C17.7725389,14.5194002 15.1698847,10.5886169 12.4985892,6.69835718 C9.74149178,2.69810496 6.00625406,0.260903544 1.09839194,0.000395078351 C0.539037998,-0.0147794369 0.0626489317,0.408905858 0.00563432638,0.972258968 C-0.0513802789,1.53561208 0.330248448,2.04824006 0.881027414,2.14814265 L0.90962801,2.14814265 C5.20929955,2.76563929 9.03369034,5.23827966 11.3946062,8.92715183 C13.7684556,12.400598 16.4740719,15.7408955 18.4074721,19.4690611 C24.0875503,30.3988385 42.6550566,31.7592716 49.5764007,18.0565263 C49.7218469,17.8041883 49.8480558,17.5409861 49.9539285,17.2692118 C50.0415494,17.0353098 50.0025402,16.7721128 49.8509664,16.5745226 L49.1473917,15.630903 Z" id="Shape"></path>
                    <path d="M66.1686634,25.9168322 C61.0935697,25.0813996 57.2900878,22.4358631 54.5311442,18.003429 C52.498836,14.7545245 50.9547358,12.9328173 48.8543055,9.39963361 C42.7403503,-1.89030969 24.6539424,-4.44882202 17.2910827,9.75933375 L17.1207775,10.0958274 C16.9428233,10.407373 16.9628978,10.7971702 17.1718691,11.0879036 C17.3535279,11.3547779 17.5295099,11.5926442 17.6827846,11.8247088 C17.7617571,11.9365117 17.8884702,12.002744 18.0233949,12.002744 C18.1583195,12.002744 18.2850327,11.9365117 18.3640052,11.8247088 C19.0168416,10.9196568 19.6640013,10.0088032 20.3225145,9.10375123 C27.270965,-0.451509103 39.725949,-0.242650954 46.3564965,9.56788045 C49.0416412,13.5361853 51.6473102,17.5625063 54.3551622,21.5134063 C56.9554003,25.4159711 61.2169255,27.8218815 65.8337299,27.9938105 C65.9092057,28.0020632 65.9853277,28.0020632 66.0608035,27.9938105 C66.5713405,27.9487912 66.9713802,27.5262194 66.9985381,27.0032582 C67.0256961,26.480297 66.6716697,26.0168253 66.1686634,25.9168322 Z" id="Shape"></path>
                    <path d="M52.7529587,11.8245175 C52.8831347,11.9519904 53.0627365,12.0151027 53.2435961,11.9969283 C53.4244557,11.9787539 53.5880643,11.8811525 53.6905433,11.7303003 C53.9600988,11.3298775 54.2765336,10.8587918 54.3585723,10.7292433 C57.599099,5.51196954 60.6169494,2.48524414 67.1331622,2.10248704 L67.2386405,2.10248704 C67.7040684,1.95868788 68.0158291,1.51926299 67.9993789,1.03023051 C67.9829287,0.541198035 67.6423504,0.123931914 67.1683216,0.0120443963 C67.1236082,0.00583449813 67.0782573,0.00583449813 67.0335438,0.0120443963 C60.7693069,-0.258829861 54.4464708,4.06926969 52.3017461,9.95784051 C52.2332941,10.1444182 52.1550524,10.3272201 52.06735,10.5054776 C51.9293387,10.810377 52.0081188,11.1702204 52.2607268,11.3887632 C52.4482437,11.5359775 52.6181809,11.6890803 52.7529587,11.8245175 Z" id="Shape"></path>
                    <path d="M13.9145682,15.0939976 C10.0820732,20.5937659 7.61112249,24.6184116 1.06114203,25.1178626 C0.865635191,25.1532111 0.676612733,25.2198245 0.500835743,25.31532 C0.210228702,25.4530269 0.0176316394,25.746831 0.00114619704,26.0775894 C-0.0153392453,26.4083477 0.147023308,26.7211585 0.422392863,26.8891713 L0.45601124,26.8891713 C5.4987678,27.6964234 10.3958447,23.9853865 13.3878803,19.2870628 C13.9487972,18.4118992 14.461367,17.5044607 14.9231195,16.5691203 C15.1864635,16.0290163 14.7270123,15.7328303 14.2451489,15.0707673 C14.2014334,15.0218217 14.1387061,14.9959946 14.0745031,15.0005062 C14.0103001,15.0050178 13.95151,15.0393841 13.9145682,15.0939976 Z" id="Shape"></path>
                    <rect id="Rectangle-path" x="6" y="6" width="1" height="15"></rect>
                    <rect id="Rectangle-path" x="10" y="10" width="1" height="7"></rect>
                    <rect id="Rectangle-path" x="61" y="6" width="1" height="15"></rect>
                    <rect id="Rectangle-path" x="57" y="10" width="1" height="7"></rect>
                    <rect id="Rectangle-path" x="36" y="4" width="1" height="18"></rect>
                    <rect id="Rectangle-path" x="40" y="6" width="1" height="15"></rect>
                    <rect id="Rectangle-path" x="43" y="10" width="1" height="7"></rect>
                    <rect id="Rectangle-path" x="31" y="4" width="1" height="18"></rect>
                    <rect id="Rectangle-path" x="27" y="6" width="1" height="15"></rect>
                    <rect id="Rectangle-path" x="23" y="10" width="1" height="7"></rect>
                </g>
                <g id="Icon-01-Copy" opacity="0.100317029" transform="translate(184.000000, 450.000000)">
                    <path d="M57.9939222,18.4221357 C57.9290089,18.3334401 57.8263295,18.2811178 57.7171829,18.2811178 C57.6080363,18.2811178 57.5053569,18.3334401 57.4404435,18.4221357 C56.6372244,19.5888415 55.8002566,20.8101299 55.0510354,21.8881388 C51.4995319,26.9908431 45.7018763,30.0130326 39.5297868,29.9790218 C33.3576973,29.945011 27.5929823,26.8591082 24.0967257,21.7175678 C20.9715959,17.1121503 17.900464,12.4794414 14.7483352,7.89449239 C11.4949603,3.17990942 7.08737979,0.307493462 1.29610249,0.000465628056 C0.636064837,-0.0174186221 0.0739257394,0.481924761 0.00664850513,1.14587664 C-0.0606287291,1.80982852 0.389693168,2.41399721 1.03961235,2.53173955 L1.07336105,2.53173955 C6.14697347,3.25950345 10.6597546,6.17368674 13.4456353,10.5212861 C16.2467776,14.6149905 19.4394048,18.5517697 21.7208171,22.9456791 C28.4233093,35.8272025 50.3329668,37.43057 58.5001528,21.280906 C58.6717793,20.9835076 58.8207059,20.6733051 58.9456357,20.3529996 C59.0490283,20.0773294 59.0029974,19.767133 58.8241403,19.5342587 L57.9939222,18.4221357 Z" id="Shape"></path>
                    <path d="M78.0190228,30.544838 C72.0304122,29.560221 67.5423036,26.4422672 64.2867501,21.2183271 C61.8886264,17.389261 60.0665883,15.242249 57.5880805,11.0781396 C50.3736134,-2.22786499 29.0316521,-5.24325452 20.3434776,11.5020719 L20.1425175,11.8986538 C19.9325315,12.2658324 19.9562193,12.7252364 20.2028055,13.0678864 C20.4171629,13.3824169 20.6248217,13.6627592 20.8056858,13.9362639 C20.8988734,14.0680317 21.0483949,14.1460912 21.207606,14.1460912 C21.3668171,14.1460912 21.5163386,14.0680317 21.6095261,13.9362639 C22.3798731,12.8695955 23.1435215,11.7960895 23.9205671,10.7294211 C32.1197387,-0.532135729 46.8166198,-0.285981481 54.6406659,11.2764305 C57.8091366,15.9533612 60.883826,20.6986681 64.0790914,25.355086 C67.1473724,29.9545373 72.1759721,32.7900746 77.6238013,32.9927052 C77.7128628,33.0024316 77.8026866,33.0024316 77.8917481,32.9927052 C78.4941817,32.9396468 78.9662286,32.4416157 78.998275,31.8252686 C79.0303214,31.2089215 78.6125703,30.6626869 78.0190228,30.544838 Z" id="Shape"></path>
                    <path d="M61.8470785,13.7952704 C61.9935265,13.9439887 62.1955785,14.0176199 62.3990456,13.9964163 C62.6025126,13.9752128 62.7865723,13.8613446 62.9018612,13.6853504 C63.2051112,13.2181904 63.5611003,12.6685905 63.6533938,12.5174505 C67.2989864,6.43063113 70.694068,2.8994515 78.0248075,2.45290154 L78.1434705,2.45290154 C78.667077,2.28513586 79.0178077,1.77247349 78.9993012,1.2019356 C78.9807947,0.631397707 78.5976442,0.144587233 78.0643618,0.0140517957 C78.0140592,0.00680691449 77.9630394,0.00680691449 77.9127368,0.0140517957 C70.8654702,-0.301968172 63.7522797,4.7474813 61.3394644,11.6174806 C61.2624559,11.8351546 61.1744339,12.0484235 61.0757687,12.2563905 C60.920506,12.6121065 61.0091337,13.0319238 61.2933176,13.2868904 C61.5042742,13.4586404 61.6954535,13.6372604 61.8470785,13.7952704 Z" id="Shape"></path>
                    <path d="M16.6974818,18.1096639 C12.0984879,24.5260603 9.13334699,29.2214802 1.27337043,29.804173 C1.03876223,29.845413 0.81193528,29.9231285 0.601002891,30.0345399 C0.252274442,30.1951981 0.0211579673,30.5379695 0.00137543645,30.9238543 C-0.0184070944,31.309739 0.176427969,31.6746849 0.506871435,31.8706998 L0.547213488,31.8706998 C6.59852136,32.812494 12.4750137,28.482951 16.0654563,23.0015733 C16.7385567,21.980549 17.3536403,20.9218708 17.9077434,19.8306403 C18.2237562,19.200519 17.6724148,18.8549686 17.0941787,18.0825619 C17.0417201,18.0254587 16.9664473,17.995327 16.8894037,18.0005906 C16.8123601,18.0058541 16.741812,18.0459481 16.6974818,18.1096639 Z" id="Shape"></path>
                    <rect id="Rectangle-path" x="7" y="7" width="1" height="18"></rect>
                    <rect id="Rectangle-path" x="12" y="12" width="1" height="8"></rect>
                    <rect id="Rectangle-path" x="77" y="5" width="1" height="22"></rect>
                    <rect id="Rectangle-path" x="72" y="7" width="1" height="18"></rect>
                    <rect id="Rectangle-path" x="68" y="12" width="1" height="8"></rect>
                    <rect id="Rectangle-path" x="42" y="5" width="1" height="22"></rect>
                    <rect id="Rectangle-path" x="47" y="7" width="1" height="18"></rect>
                    <rect id="Rectangle-path" x="51" y="12" width="1" height="8"></rect>
                    <rect id="Rectangle-path" x="36" y="5" width="1" height="22"></rect>
                    <rect id="Rectangle-path" x="31" y="7" width="1" height="18"></rect>
                    <rect id="Rectangle-path" x="27" y="12" width="1" height="8"></rect>
                </g>
                <g id="Icon-01-Copy-9" opacity="0.100317029" transform="translate(31.722084, 691.547771) rotate(1.000000) translate(-31.722084, -691.547771) translate(0.222084, 678.547771)">
                    <path d="M45.0120149,14.6550746 C44.9616791,14.5870342 44.8820583,14.5468966 44.7974227,14.5468966 C44.7127871,14.5468966 44.6331664,14.5870342 44.5828306,14.6550746 C43.9599899,15.550081 43.3109795,16.4869589 42.7300104,17.3139239 C39.976066,21.2283236 35.4803864,23.5467134 30.6943594,23.5206229 C25.9083324,23.4945325 21.4381961,21.1272667 18.7270918,17.183075 C16.3037705,13.6501552 13.9223209,10.0962996 11.4780638,6.57908171 C8.95529738,2.96241866 5.53752462,0.758923507 1.04679104,0.523395522 C0.534977661,0.50967611 0.0990778079,0.892733696 0.0469089824,1.40206618 C-0.00525984305,1.91139866 0.343933532,2.3748701 0.847900746,2.46519291 L0.874070522,2.46519291 C4.80830479,3.02347703 8.30765334,5.25901284 10.4679104,8.59415447 C12.6400019,11.7345276 15.1156627,14.7545198 16.8847395,18.1251869 C22.0820571,28.0068944 39.0714757,29.2368739 45.4045615,16.8481019 C45.537646,16.6199609 45.6531282,16.3819975 45.7500026,16.1362839 C45.8301764,15.9248111 45.7944826,15.6868524 45.6557914,15.5082093 L45.0120149,14.6550746 Z" id="Shape"></path>
                    <path d="M61.0697895,24.0395563 C56.3906336,23.2858668 52.8838836,20.8991832 50.3401813,16.9004414 C48.4664254,13.9694265 47.0427895,12.3259645 45.1062261,9.13848582 C39.4692563,-1.04679104 22.793875,-3.3549653 16.0054351,9.46299104 L15.8484164,9.76656044 C15.6843455,10.0476227 15.7028537,10.3992802 15.895522,10.6615668 C16.0630086,10.9023287 16.2252612,11.1169209 16.366578,11.3262791 C16.4393894,11.4271427 16.5562169,11.4868944 16.6806153,11.4868944 C16.8050137,11.4868944 16.9218412,11.4271427 16.9946526,11.3262791 C17.5965575,10.5097821 18.1932283,9.68805111 18.8003672,8.8715541 C25.2067283,0.251229851 36.6900261,0.439652239 42.8032858,9.29027052 C45.2789466,12.8702959 47.6813321,16.5026608 50.1779287,20.0669843 C52.575307,23.587702 56.5043657,25.7582057 60.7609862,25.9133123 C60.8305737,25.9207575 60.9007569,25.9207575 60.9703444,25.9133123 C61.4410514,25.8726979 61.8098816,25.4914727 61.8349209,25.0196808 C61.8599601,24.5478888 61.5335534,24.1297655 61.0697895,24.0395563 Z" id="Shape"></path>
                    <path d="M48.387916,11.6036787 C48.5041868,11.7169808 48.6646037,11.7730772 48.826144,11.7569231 C48.9876844,11.7407691 49.1338166,11.6540178 49.2253489,11.5199354 C49.4661108,11.1640265 49.7487444,10.7453101 49.8220198,10.6301631 C52.716397,5.99287873 55.4118839,3.30262574 61.2320421,2.96241866 L61.3262533,2.96241866 C61.7419648,2.83460524 62.0204235,2.44402996 62.0057305,2.00936183 C61.9910375,1.57469369 61.6868394,1.20381385 61.2634459,1.10436455 C61.2235087,1.09884499 61.1830021,1.09884499 61.1430649,1.10436455 C55.5479668,0.863602612 49.9005291,4.7105597 47.9849015,9.94451492 C47.9237614,10.1103513 47.8538774,10.2728317 47.7755433,10.4312728 C47.6522742,10.7022774 47.7226391,11.022118 47.9482638,11.216366 C48.1157504,11.3472149 48.2675351,11.4832978 48.387916,11.6036787 Z" id="Shape"></path>
                    <path d="M13.0534843,14.4457164 C9.47345895,19.402272 7.1652847,23.029403 1.04679104,23.4795231 C0.864163425,23.5113803 0.68759302,23.5714142 0.523395522,23.6574776 C0.251932524,23.7815832 0.0720229944,24.0463683 0.0566235478,24.3444576 C0.0412241012,24.6425469 0.192890851,24.9244613 0.450120149,25.0758795 L0.48152388,25.0758795 C5.19208358,25.8033992 9.76656044,22.4589019 12.5614925,18.2246321 C13.0854585,17.4359085 13.5642621,16.6180978 13.9955963,15.775141 C14.2415922,15.2883832 13.8124078,15.0214515 13.3622877,14.4247806 C13.321452,14.3806693 13.2628569,14.3573931 13.2028833,14.3614592 C13.1429098,14.3655252 13.0879925,14.3964971 13.0534843,14.4457164 Z" id="Shape"></path>
                    <rect id="Rectangle-path" x="1.89469179" y="4.72626156" width="1" height="16.6178078"></rect>
                    <rect id="Rectangle-path" x="5.79398843" y="6.29644813" width="1" height="13.4826687"></rect>
                    <rect id="Rectangle-path" x="9.1751235" y="10.0910657" width="1" height="5.88819962"></rect>
                    <rect id="Rectangle-path" x="56.0399586" y="6.29644813" width="1" height="13.4826687"></rect>
                    <rect id="Rectangle-path" x="52.6640574" y="10.0910657" width="1" height="5.88819962"></rect>
                    <rect id="Rectangle-path" x="32.5342657" y="4.72626156" width="1" height="16.6178078"></rect>
                    <rect id="Rectangle-path" x="36.4335623" y="6.29644813" width="1" height="13.4826687"></rect>
                    <rect id="Rectangle-path" x="39.8146974" y="10.0910657" width="1" height="5.88819962"></rect>
                    <rect id="Rectangle-path" x="28.2110186" y="4.72626156" width="1" height="16.6178078"></rect>
                    <rect id="Rectangle-path" x="24.311722" y="6.29644813" width="1" height="13.4826687"></rect>
                    <rect id="Rectangle-path" x="20.9305869" y="10.0910657" width="1" height="5.88819962"></rect>
                </g>
                <g id="Icon-01-Copy-2" opacity="0.112149004" transform="translate(1334.073210, 181.951973) rotate(29.000000) translate(-1334.073210, -181.951973) translate(1306.073210, 169.951973)">
                    <path d="M40.4120549,13.1574132 C40.3668632,13.0963262 40.2953792,13.0602904 40.2193928,13.0602904 C40.1434064,13.0602904 40.0719224,13.0963262 40.0267307,13.1574132 C39.4675406,13.9609553 38.8848552,14.8020899 38.3632577,15.5445439 C35.89075,19.0589153 31.8545021,21.1403794 27.5575786,21.1169553 C23.2606551,21.0935311 19.2473401,18.9681858 16.8132945,15.427067 C14.6376222,12.2551906 12.4995426,9.0645179 10.305074,5.90673873 C8.0401193,2.6596771 4.97162257,0.681366042 0.939815231,0.469907615 C0.480306128,0.457590245 0.0889526457,0.801501626 0.0421151637,1.25878336 C-0.0047223184,1.71606509 0.308785572,2.13217252 0.761250337,2.21326487 L0.784745718,2.21326487 C4.31692467,2.71449567 7.45866062,4.72157303 9.39815231,7.71588304 C11.3482689,10.5353287 13.5709319,13.2466957 15.1592197,16.2729007 C19.8254023,25.1447565 35.0786035,26.2490394 40.7644856,15.1263261 C40.8839697,14.9214998 40.9876503,14.7078549 41.0746247,14.4872518 C41.1466052,14.2973902 41.1145591,14.0837495 40.9900413,13.9233626 L40.4120549,13.1574132 Z" id="Shape"></path>
                    <path d="M54.8288206,21.5828568 C50.6278465,20.9061898 47.4794655,18.7634111 45.1957144,15.1733169 C43.5134452,12.5418343 42.2352965,11.0663243 40.4966383,8.20458696 C35.4357333,-0.939815231 20.4644766,-3.01210781 14.3697749,8.49592969 L14.2288026,8.7684761 C14.0814987,9.02081551 14.0981156,9.3365357 14.2710943,9.57201813 C14.4214647,9.78817563 14.5671361,9.98083775 14.6940111,10.1688008 C14.7593817,10.2593567 14.8642701,10.3130022 14.9759557,10.3130022 C15.0876413,10.3130022 15.1925297,10.2593567 15.2579003,10.1688008 C15.798294,9.43574492 16.3339887,8.69798996 16.8790815,7.96493408 C22.6307508,0.225555655 32.9405238,0.394722397 38.4290448,8.34086017 C40.6517078,11.5550283 42.8085838,14.8161871 45.0500431,18.016258 C47.2024236,21.1771793 50.7299559,23.1258704 54.5515751,23.265126 C54.6140511,23.2718104 54.677062,23.2718104 54.7395381,23.265126 C55.1621417,23.2286622 55.4932797,22.886396 55.5157601,22.4628183 C55.5382404,22.0392407 55.2451905,21.6638471 54.8288206,21.5828568 Z" id="Shape"></path>
                    <path d="M43.442959,10.4178518 C43.5473476,10.5195751 43.6913709,10.5699388 43.8364028,10.5554356 C43.9814347,10.5409324 44.112633,10.4630466 44.1948112,10.3426666 C44.4109687,10.0231294 44.6647188,9.64720334 44.7305059,9.54382367 C47.329095,5.3804422 49.7491192,2.96511705 54.9744919,2.6596771 L55.0590753,2.6596771 C55.4323035,2.54492546 55.6823054,2.19426465 55.6691139,1.80401701 C55.6559224,1.41376937 55.3828116,1.08079124 55.0026864,0.991505068 C54.9668305,0.986549573 54.9304635,0.986549573 54.8946076,0.991505068 C49.8712952,0.775347565 44.800992,4.22916854 43.0811302,8.92824469 C43.0262383,9.07713359 42.963496,9.22300943 42.8931671,9.36525877 C42.7824954,9.60856836 42.8456695,9.89572317 43.0482366,10.0701202 C43.1986071,10.1875971 43.3348803,10.3097731 43.442959,10.4178518 Z" id="Shape"></path>
                    <path d="M11.7194959,12.9694502 C8.50532784,17.4194753 6.43303525,20.6759351 0.939815231,21.0800556 C0.775851067,21.1086572 0.617325106,21.162556 0.469907615,21.2398242 C0.22618652,21.351247 0.0646626731,21.5889726 0.0508369583,21.8565989 C0.0370112435,22.1242253 0.173178555,22.3773297 0.404120549,22.5132739 L0.432315006,22.5132739 C4.66148354,23.1664454 8.7684761,20.1637358 11.2777828,16.3621832 C11.7482025,15.6540624 12.1780753,14.9198271 12.5653296,14.1630155 C12.7861862,13.7260014 12.400862,13.4863486 11.9967414,12.9506539 C11.9600789,12.9110505 11.9074719,12.890153 11.8536272,12.8938035 C11.7997826,12.897454 11.7504776,12.9252608 11.7194959,12.9694502 Z" id="Shape"></path>
                    <rect id="Rectangle-path" x="5.2018773" y="5.65298861" width="1" height="12.1048202"></rect>
                    <rect id="Rectangle-path" x="8.2374805" y="9.05981882" width="1" height="5.28646067"></rect>
                    <rect id="Rectangle-path" x="50.3130084" y="5.65298861" width="1" height="12.1048202"></rect>
                    <rect id="Rectangle-path" x="47.2821043" y="9.05981882" width="1" height="5.28646067"></rect>
                    <rect id="Rectangle-path" x="29.2094574" y="4.24326577" width="1" height="14.9195668"></rect>
                    <rect id="Rectangle-path" x="32.7102691" y="5.65298861" width="1" height="12.1048202"></rect>
                    <rect id="Rectangle-path" x="35.7458723" y="9.05981882" width="1" height="5.28646067"></rect>
                    <rect id="Rectangle-path" x="25.3280205" y="4.24326577" width="1" height="14.9195668"></rect>
                    <rect id="Rectangle-path" x="21.8272087" y="5.65298861" width="1" height="12.1048202"></rect>
                    <rect id="Rectangle-path" x="18.7916055" y="9.05981882" width="1" height="5.28646067"></rect>
                </g>
                <g id="Icon-01-Copy-3" opacity="0.14136096" transform="translate(1103.254042, 241.547630) rotate(-25.000000) translate(-1103.254042, -241.547630) translate(1071.754042, 228.047630)">
                    <path d="M45.4495891,14.7975406 C45.398764,14.7288388 45.3183692,14.688311 45.2329109,14.688311 C45.1474525,14.688311 45.0670577,14.7288388 45.0162326,14.7975406 C44.3873371,15.7012476 43.7320175,16.6472332 43.1454007,17.4822373 C40.3646844,21.43469 35.8253011,23.7756175 30.9927478,23.7492734 C26.1601945,23.7229294 21.6466027,21.3326507 18.909143,17.3501164 C16.462264,13.7828521 14.0576636,10.1944485 11.5896452,6.64303878 C9.0423543,2.99121715 5.59135643,0.766301212 1.05696719,0.528483595 C0.540178326,0.514630812 0.100040971,0.901412207 0.0473649976,1.41569605 C-0.00531097544,1.92997989 0.347277005,2.39795687 0.856143423,2.48915773 L0.882567603,2.48915773 C4.85504765,3.05286908 8.38841433,5.31013716 10.5696719,8.67770062 C12.7628788,11.8486022 15.2626062,14.8979525 17.0488808,18.3013869 C22.2967229,28.2791571 39.4513003,29.5210936 45.8459518,17.0118869 C45.98033,16.7815281 46.0969349,16.5412514 46.194751,16.2931492 C46.2757043,16.0796206 46.2396635,15.8393486 46.099624,15.6589689 L45.4495891,14.7975406 Z" id="Shape"></path>
                    <path d="M61.6634658,24.2732515 C56.9388225,23.5122351 53.3979824,21.1023499 50.8295521,17.0647353 C48.9375809,14.1052271 47.5001055,12.4457887 45.5447162,9.22732356 C39.8529479,-1.05696719 23.0154605,-3.38757984 16.1610283,9.55498339 L16.0024832,9.86150388 C15.8368173,10.1452985 15.8555055,10.5003745 16.0500468,10.7652108 C16.2191615,11.0083133 16.3829914,11.2249916 16.525682,11.436385 C16.5992012,11.5382291 16.7171644,11.5985617 16.8427722,11.5985617 C16.9683799,11.5985617 17.0863431,11.5382291 17.1598623,11.436385 C17.7676185,10.6119506 18.3700897,9.78223134 18.9831307,8.95779693 C25.4517699,0.253672125 37.0467,0.443926219 43.2193884,9.3805838 C45.7191158,12.9954116 48.1448555,16.6630877 50.6657222,20.262061 C53.0864061,23.8170046 57.0536603,26.0086083 61.3516605,26.1652228 C61.4219245,26.1727403 61.49279,26.1727403 61.5630539,26.1652228 C62.0383368,26.1242136 62.4107526,25.7392824 62.4360352,25.262904 C62.4613179,24.7865256 62.1317381,24.3643377 61.6634658,24.2732515 Z" id="Shape"></path>
                    <path d="M48.8583083,11.7164813 C48.9757094,11.8308848 49.1376857,11.8875265 49.3007965,11.8712154 C49.4639072,11.8549044 49.61146,11.7673098 49.7038821,11.6319239 C49.9469845,11.2725551 50.2323657,10.8497682 50.3063534,10.7335018 C53.2288677,6.05113716 55.9505582,3.33473148 61.8272957,2.99121715 L61.9224228,2.99121715 C62.3421755,2.86216122 62.6233412,2.46778905 62.6085053,2.02889539 C62.5936695,1.59000172 62.2865142,1.21551646 61.8590048,1.11510038 C61.8186793,1.10952717 61.7777789,1.10952717 61.7374535,1.11510038 C56.0879639,0.871997931 50.3856259,4.75635235 48.451376,10.0411883 C48.3896416,10.2086368 48.3190782,10.3726967 48.2399825,10.532678 C48.1155151,10.8063172 48.1865641,11.1292671 48.4143821,11.3254034 C48.5834969,11.4575243 48.7367571,11.5949301 48.8583083,11.7164813 Z" id="Shape"></path>
                    <path d="M13.1803809,14.5861472 C9.56555306,19.5908869 7.23494041,23.2532782 1.05696719,23.7077741 C0.872564196,23.7399409 0.694277301,23.8005584 0.528483595,23.8874585 C0.25438163,24.0127706 0.0727231498,24.2801297 0.057174001,24.5811168 C0.0416248521,24.8821039 0.194765997,25.1667589 0.454495891,25.319649 L0.486204907,25.319649 C5.24255726,26.0542412 9.86150388,22.677231 12.6836063,18.4017988 C13.2126658,17.6054077 13.6961241,16.7796469 14.1316513,15.9284955 C14.3800386,15.4370058 13.9466821,15.1674792 13.4921862,14.5650079 C13.4509535,14.5204678 13.3917888,14.4969653 13.3312322,14.5010709 C13.2706756,14.5051764 13.2152245,14.5364494 13.1803809,14.5861472 Z" id="Shape"></path>
                    <rect id="Rectangle-path" x="5.85031339" y="6.35765764" width="1" height="13.6137374"></rect>
                    <rect id="Rectangle-path" x="9.26431741" y="10.1891637" width="1" height="5.94544044"></rect>
                    <rect id="Rectangle-path" x="56.5847385" y="6.35765764" width="1" height="13.6137374"></rect>
                    <rect id="Rectangle-path" x="53.1760193" y="10.1891637" width="1" height="5.94544044"></rect>
                    <rect id="Rectangle-path" x="32.8505402" y="4.77220686" width="1" height="16.7793541"></rect>
                    <rect id="Rectangle-path" x="36.787743" y="6.35765764" width="1" height="13.6137374"></rect>
                    <rect id="Rectangle-path" x="40.201747" y="10.1891637" width="1" height="5.94544044"></rect>
                    <rect id="Rectangle-path" x="28.4852658" y="4.77220686" width="1" height="16.7793541"></rect>
                    <rect id="Rectangle-path" x="24.548063" y="6.35765764" width="1" height="13.6137374"></rect>
                    <rect id="Rectangle-path" x="21.1340589" y="10.1891637" width="1" height="5.94544044"></rect>
                </g>
                <g id="Icon-01-Copy-15" opacity="0.14136096" transform="translate(315.254042, 43.547630) rotate(-25.000000) translate(-315.254042, -43.547630) translate(283.754042, 30.047630)">
                    <path d="M45.4495891,14.7975406 C45.398764,14.7288388 45.3183692,14.688311 45.2329109,14.688311 C45.1474525,14.688311 45.0670577,14.7288388 45.0162326,14.7975406 C44.3873371,15.7012476 43.7320175,16.6472332 43.1454007,17.4822373 C40.3646844,21.43469 35.8253011,23.7756175 30.9927478,23.7492734 C26.1601945,23.7229294 21.6466027,21.3326507 18.909143,17.3501164 C16.462264,13.7828521 14.0576636,10.1944485 11.5896452,6.64303878 C9.0423543,2.99121715 5.59135643,0.766301212 1.05696719,0.528483595 C0.540178326,0.514630812 0.100040971,0.901412207 0.0473649976,1.41569605 C-0.00531097544,1.92997989 0.347277005,2.39795687 0.856143423,2.48915773 L0.882567603,2.48915773 C4.85504765,3.05286908 8.38841433,5.31013716 10.5696719,8.67770062 C12.7628788,11.8486022 15.2626062,14.8979525 17.0488808,18.3013869 C22.2967229,28.2791571 39.4513003,29.5210936 45.8459518,17.0118869 C45.98033,16.7815281 46.0969349,16.5412514 46.194751,16.2931492 C46.2757043,16.0796206 46.2396635,15.8393486 46.099624,15.6589689 L45.4495891,14.7975406 Z" id="Shape"></path>
                    <path d="M61.6634658,24.2732515 C56.9388225,23.5122351 53.3979824,21.1023499 50.8295521,17.0647353 C48.9375809,14.1052271 47.5001055,12.4457887 45.5447162,9.22732356 C39.8529479,-1.05696719 23.0154605,-3.38757984 16.1610283,9.55498339 L16.0024832,9.86150388 C15.8368173,10.1452985 15.8555055,10.5003745 16.0500468,10.7652108 C16.2191615,11.0083133 16.3829914,11.2249916 16.525682,11.436385 C16.5992012,11.5382291 16.7171644,11.5985617 16.8427722,11.5985617 C16.9683799,11.5985617 17.0863431,11.5382291 17.1598623,11.436385 C17.7676185,10.6119506 18.3700897,9.78223134 18.9831307,8.95779693 C25.4517699,0.253672125 37.0467,0.443926219 43.2193884,9.3805838 C45.7191158,12.9954116 48.1448555,16.6630877 50.6657222,20.262061 C53.0864061,23.8170046 57.0536603,26.0086083 61.3516605,26.1652228 C61.4219245,26.1727403 61.49279,26.1727403 61.5630539,26.1652228 C62.0383368,26.1242136 62.4107526,25.7392824 62.4360352,25.262904 C62.4613179,24.7865256 62.1317381,24.3643377 61.6634658,24.2732515 Z" id="Shape"></path>
                    <path d="M48.8583083,11.7164813 C48.9757094,11.8308848 49.1376857,11.8875265 49.3007965,11.8712154 C49.4639072,11.8549044 49.61146,11.7673098 49.7038821,11.6319239 C49.9469845,11.2725551 50.2323657,10.8497682 50.3063534,10.7335018 C53.2288677,6.05113716 55.9505582,3.33473148 61.8272957,2.99121715 L61.9224228,2.99121715 C62.3421755,2.86216122 62.6233412,2.46778905 62.6085053,2.02889539 C62.5936695,1.59000172 62.2865142,1.21551646 61.8590048,1.11510038 C61.8186793,1.10952717 61.7777789,1.10952717 61.7374535,1.11510038 C56.0879639,0.871997931 50.3856259,4.75635235 48.451376,10.0411883 C48.3896416,10.2086368 48.3190782,10.3726967 48.2399825,10.532678 C48.1155151,10.8063172 48.1865641,11.1292671 48.4143821,11.3254034 C48.5834969,11.4575243 48.7367571,11.5949301 48.8583083,11.7164813 Z" id="Shape"></path>
                    <path d="M13.1803809,14.5861472 C9.56555306,19.5908869 7.23494041,23.2532782 1.05696719,23.7077741 C0.872564196,23.7399409 0.694277301,23.8005584 0.528483595,23.8874585 C0.25438163,24.0127706 0.0727231498,24.2801297 0.057174001,24.5811168 C0.0416248521,24.8821039 0.194765997,25.1667589 0.454495891,25.319649 L0.486204907,25.319649 C5.24255726,26.0542412 9.86150388,22.677231 12.6836063,18.4017988 C13.2126658,17.6054077 13.6961241,16.7796469 14.1316513,15.9284955 C14.3800386,15.4370058 13.9466821,15.1674792 13.4921862,14.5650079 C13.4509535,14.5204678 13.3917888,14.4969653 13.3312322,14.5010709 C13.2706756,14.5051764 13.2152245,14.5364494 13.1803809,14.5861472 Z" id="Shape"></path>
                    <rect id="Rectangle-path" x="5.85031339" y="6.35765764" width="1" height="13.6137374"></rect>
                    <rect id="Rectangle-path" x="9.26431741" y="10.1891637" width="1" height="5.94544044"></rect>
                    <rect id="Rectangle-path" x="56.5847385" y="6.35765764" width="1" height="13.6137374"></rect>
                    <rect id="Rectangle-path" x="53.1760193" y="10.1891637" width="1" height="5.94544044"></rect>
                    <rect id="Rectangle-path" x="32.8505402" y="4.77220686" width="1" height="16.7793541"></rect>
                    <rect id="Rectangle-path" x="36.787743" y="6.35765764" width="1" height="13.6137374"></rect>
                    <rect id="Rectangle-path" x="40.201747" y="10.1891637" width="1" height="5.94544044"></rect>
                    <rect id="Rectangle-path" x="28.4852658" y="4.77220686" width="1" height="16.7793541"></rect>
                    <rect id="Rectangle-path" x="24.548063" y="6.35765764" width="1" height="13.6137374"></rect>
                    <rect id="Rectangle-path" x="21.1340589" y="10.1891637" width="1" height="5.94544044"></rect>
                </g>
                <g id="Icon-01-Copy-10" opacity="0.100317029" transform="translate(314.078987, 741.694696) rotate(-123.000000) translate(-314.078987, -741.694696) translate(275.078987, 725.194696)">
                    <path d="M56.0383373,18.2450401 C55.9756711,18.1603322 55.8765461,18.1103624 55.7711778,18.1103624 C55.6658095,18.1103624 55.5666845,18.1603322 55.5040183,18.2450401 C54.7286041,19.3592907 53.9206095,20.5256701 53.197324,21.5552116 C49.7687623,26.4284983 44.1718032,29.31481 38.2133719,29.2823284 C32.2549407,29.2498468 26.689782,26.3026861 23.3145548,21.3923095 C20.2976071,16.9939516 17.3327881,12.5695294 14.289776,8.19071977 C11.1490227,3.68810453 6.89401871,0.944832432 1.30321715,0.651608574 C0.666027919,0.6345284 0.123348302,1.1114213 0.0583999936,1.74552189 C-0.00654831516,2.37962248 0.428184859,2.95662774 1.05560589,3.06907638 L1.08818632,3.06907638 C5.98616628,3.76412 10.3427292,6.54728157 13.0321715,10.6994128 C15.7363471,14.6090642 18.8184556,18.3688457 21.0208926,22.5652049 C27.4913657,34.8675748 48.64258,36.3988549 56.5270438,20.97528 C56.6927291,20.6912527 56.8365003,20.3949968 56.9571054,20.0890923 C57.056919,19.8258162 57.0124815,19.5295663 56.8398159,19.307162 L56.0383373,18.2450401 Z" id="Shape"></path>
                    <path d="M76.0296884,29.9283818 C70.2043077,28.9900654 65.8385303,26.0187303 62.6717126,21.0404408 C60.3389539,17.3914328 58.5665786,15.3453819 56.1556269,11.3770857 C49.1378025,-1.30321715 28.3775534,-4.17681096 19.9261902,11.781083 L19.7307076,12.159016 C19.5264452,12.5089284 19.5494873,12.9467293 19.7893524,13.2732666 C19.9978671,13.5730066 20.1998658,13.8401661 20.3758001,14.1008095 C20.4664477,14.226381 20.6118937,14.3007699 20.7667652,14.3007699 C20.9216368,14.3007699 21.0670828,14.226381 21.1577304,14.1008095 C21.9070802,13.0843002 22.649914,12.0612747 23.40578,11.0447653 C31.3814689,0.312772115 45.677761,0.547351202 53.2885492,11.5660522 C56.3706577,16.0230548 59.3615411,20.5452183 62.469714,24.9826727 C65.4543636,29.3658394 70.3459001,32.0680384 75.6452393,32.2611405 C75.7318732,32.2704095 75.8192488,32.2704095 75.9058827,32.2611405 C76.491896,32.210577 76.9510764,31.7359654 76.9822494,31.1486014 C77.0134223,30.5612374 76.6070577,30.040689 76.0296884,29.9283818 Z" id="Shape"></path>
                    <path d="M60.2412126,14.4461621 C60.3859655,14.5872191 60.5856788,14.6570571 60.7867907,14.6369459 C60.9879027,14.6168347 61.169832,14.5088325 61.2837863,14.3419047 C61.5835263,13.8988109 61.9353949,13.377524 62.0266201,13.2341701 C65.6300155,7.46091817 68.9857997,4.1116501 76.231687,3.68810453 L76.3489766,3.68810453 C76.8665223,3.52898143 77.2131934,3.04272928 77.1949011,2.5015831 C77.1766089,1.96043693 76.7978933,1.49870489 76.2707835,1.37489409 C76.2210632,1.36802244 76.1706339,1.36802244 76.1209136,1.37489409 C69.1552179,1.07515415 62.1243614,5.86447716 59.739474,12.3805629 C59.6633569,12.5870232 59.5763538,12.7893054 59.4788306,12.9865589 C59.325365,13.3239499 59.4129668,13.7221399 59.6938614,13.9639717 C59.9023762,14.1268739 60.0913427,14.2962921 60.2412126,14.4461621 Z" id="Shape"></path>
                    <path d="M16.2511178,17.9843966 C11.7941152,24.1551298 8.92052137,28.6707772 1.30321715,29.2311606 C1.07585234,29.2708216 0.856028544,29.3455617 0.651608574,29.4527075 C0.313646918,29.6072146 0.0896660339,29.9368624 0.0704942776,30.3079729 C0.0513225212,30.6790833 0.240142162,31.0300566 0.560383373,31.2185668 L0.599479888,31.2185668 C6.46395705,32.1243027 12.159016,27.9605239 15.6386058,22.6890105 C16.2909245,21.707078 16.8870178,20.6889332 17.4240133,19.6394824 C17.7302693,19.0334864 17.1959503,18.7011661 16.6355669,17.9583323 C16.5847279,17.9034154 16.5117791,17.8744374 16.4371142,17.8794994 C16.3624493,17.8845614 16.2940793,17.9231203 16.2511178,17.9843966 Z" id="Shape"></path>
                    <rect id="Rectangle-path" x="2.35882304" y="5.88402542" width="1" height="20.6885722"></rect>
                    <rect id="Rectangle-path" x="7.21330691" y="7.83885114" width="1" height="16.7854369"></rect>
                    <rect id="Rectangle-path" x="11.4226983" y="12.5630133" width="1" height="7.33059645"></rect>
                    <rect id="Rectangle-path" x="69.76773" y="7.83885114" width="1" height="16.7854369"></rect>
                    <rect id="Rectangle-path" x="65.5648547" y="12.5630133" width="1" height="7.33059645"></rect>
                    <rect id="Rectangle-path" x="40.5039889" y="5.88402542" width="1" height="20.6885722"></rect>
                    <rect id="Rectangle-path" x="45.3584728" y="7.83885114" width="1" height="16.7854369"></rect>
                    <rect id="Rectangle-path" x="49.5678642" y="12.5630133" width="1" height="7.33059645"></rect>
                    <rect id="Rectangle-path" x="35.1217021" y="5.88402542" width="1" height="20.6885722"></rect>
                    <rect id="Rectangle-path" x="30.2672182" y="7.83885114" width="1" height="16.7854369"></rect>
                    <rect id="Rectangle-path" x="26.0578269" y="12.5630133" width="1" height="7.33059645"></rect>
                </g>
                <g id="Icon-01-Copy-4" opacity="0.100317029" transform="translate(406.000000, 144.000000)">
                    <path d="M51.1132874,16.1891495 C51.0560757,16.1112049 50.9655785,16.0652247 50.8693815,16.0652247 C50.7731845,16.0652247 50.6826874,16.1112049 50.6254757,16.1891495 C49.9175537,17.2144364 49.1798872,18.28769 48.5195566,19.2350311 C45.389418,23.7192258 40.2796198,26.3750892 34.8398121,26.345201 C29.4000044,26.3153127 24.3192387,23.6034587 21.2377922,19.0851353 C18.4834404,15.0379502 15.7766801,10.9667818 12.9985327,6.93758422 C10.1311515,2.79446586 6.24650422,0.270221527 1.14232761,0.000409188292 C0.560599518,-0.015307274 0.065154889,0.423509639 0.00585969944,1.0069825 C-0.0534354901,1.59045537 0.343458386,2.12139149 0.916268511,2.22486203 L0.94601313,2.22486203 C5.41767153,2.86441212 9.39503796,5.42536108 11.8503904,9.24597868 C14.3191938,12.8434765 17.1330347,16.3030703 19.143771,20.1643847 C25.0510523,31.4845113 44.3612589,32.8935312 51.5594567,18.7014022 C51.7107207,18.4400521 51.8419781,18.1674499 51.9520857,17.8859694 C52.0432114,17.6437137 52.0026418,17.3711169 51.845005,17.1664698 L51.1132874,16.1891495 Z" id="Shape"></path>
                    <path d="M70.1187832,26.8424334 C64.7391838,25.9771639 60.707493,23.2371439 57.7830128,18.6464086 C55.6287661,15.2814718 53.99202,13.3947036 51.7655639,9.73533481 C45.2847713,-1.95782075 26.113179,-4.60770852 18.3085477,10.1078814 L18.1280242,10.4563927 C17.9393927,10.7790648 17.9606716,11.1827835 18.1821812,11.4839002 C18.3747396,11.7603057 18.5612805,12.0066672 18.7237516,12.2470198 C18.8074625,12.3628157 18.9417784,12.4314134 19.0847986,12.4314134 C19.2278187,12.4314134 19.3621346,12.3628157 19.4458455,12.2470198 C20.1378521,11.3096445 20.8238413,10.3662605 21.5218654,9.4288852 C28.8872229,-0.467634428 42.0895059,-0.251317059 49.1178863,9.90959046 C51.9641397,14.0196205 54.7261488,18.1897386 57.5964719,22.2817422 C60.3527243,26.3236843 64.869941,28.8155201 69.7637537,28.9935895 C69.8437581,29.0021368 69.9244473,29.0021368 70.0044517,28.9935895 C70.5456209,28.9469623 70.969663,28.5092987 70.9984504,27.9676603 C71.0272379,27.4260219 70.6519699,26.9459976 70.1187832,26.8424334 Z" id="Shape"></path>
                    <path d="M54.7529587,11.8245175 C54.8831347,11.9519904 55.0627365,12.0151027 55.2435961,11.9969283 C55.4244557,11.9787539 55.5880643,11.8811525 55.6905433,11.7303003 C55.9600988,11.3298775 56.2765336,10.8587918 56.3585723,10.7292433 C59.599099,5.51196954 62.6169494,2.48524414 69.1331622,2.10248704 L69.2386405,2.10248704 C69.7040684,1.95868788 70.0158291,1.51926299 69.9993789,1.03023051 C69.9829287,0.541198035 69.6423504,0.123931914 69.1683216,0.0120443963 C69.1236082,0.00583449813 69.0782573,0.00583449813 69.0335438,0.0120443963 C62.7693069,-0.258829861 56.4464708,4.06926969 54.3017461,9.95784051 C54.2332941,10.1444182 54.1550524,10.3272201 54.06735,10.5054776 C53.9293387,10.810377 54.0081188,11.1702204 54.2607268,11.3887632 C54.4482437,11.5359775 54.6181809,11.6890803 54.7529587,11.8245175 Z" id="Shape"></path>
                    <path d="M14.8422061,15.0939976 C10.7542114,20.5937659 8.11853066,24.6184116 1.13188483,25.1178626 C0.923344203,25.1532111 0.721720249,25.2198245 0.534224792,25.31532 C0.224243949,25.4530269 0.018807082,25.746831 0.00122261018,26.0775894 C-0.0163618617,26.4083477 0.156824862,26.7211585 0.450552387,26.8891713 L0.486411989,26.8891713 C5.86535232,27.6964234 11.088901,23.9853865 14.2804056,19.2870628 C14.878717,18.4118992 15.4254581,17.5044607 15.9179941,16.5691203 C16.1988944,16.0290163 15.7088131,15.7328303 15.1948255,15.0707673 C15.1481956,15.0218217 15.0812865,14.9959946 15.0128033,15.0005062 C14.9443201,15.0050178 14.8816107,15.0393841 14.8422061,15.0939976 Z" id="Shape"></path>
                    <rect id="Rectangle-path" x="7" y="6" width="1" height="15"></rect>
                    <rect id="Rectangle-path" x="10" y="11" width="1" height="7"></rect>
                    <rect id="Rectangle-path" x="64" y="6" width="1" height="15"></rect>
                    <rect id="Rectangle-path" x="60" y="11" width="1" height="7"></rect>
                    <rect id="Rectangle-path" x="37" y="4" width="1" height="19"></rect>
                    <rect id="Rectangle-path" x="42" y="6" width="1" height="15"></rect>
                    <rect id="Rectangle-path" x="45" y="11" width="1" height="7"></rect>
                    <rect id="Rectangle-path" x="32" y="4" width="1" height="19"></rect>
                    <rect id="Rectangle-path" x="28" y="6" width="1" height="15"></rect>
                    <rect id="Rectangle-path" x="24" y="11" width="1" height="7"></rect>
                </g>
                <g id="Icon-01-Copy-16" opacity="0.100317029" transform="translate(852.000000, 55.000000)">
                    <path d="M51.1132874,16.1891495 C51.0560757,16.1112049 50.9655785,16.0652247 50.8693815,16.0652247 C50.7731845,16.0652247 50.6826874,16.1112049 50.6254757,16.1891495 C49.9175537,17.2144364 49.1798872,18.28769 48.5195566,19.2350311 C45.389418,23.7192258 40.2796198,26.3750892 34.8398121,26.345201 C29.4000044,26.3153127 24.3192387,23.6034587 21.2377922,19.0851353 C18.4834404,15.0379502 15.7766801,10.9667818 12.9985327,6.93758422 C10.1311515,2.79446586 6.24650422,0.270221527 1.14232761,0.000409188292 C0.560599518,-0.015307274 0.065154889,0.423509639 0.00585969944,1.0069825 C-0.0534354901,1.59045537 0.343458386,2.12139149 0.916268511,2.22486203 L0.94601313,2.22486203 C5.41767153,2.86441212 9.39503796,5.42536108 11.8503904,9.24597868 C14.3191938,12.8434765 17.1330347,16.3030703 19.143771,20.1643847 C25.0510523,31.4845113 44.3612589,32.8935312 51.5594567,18.7014022 C51.7107207,18.4400521 51.8419781,18.1674499 51.9520857,17.8859694 C52.0432114,17.6437137 52.0026418,17.3711169 51.845005,17.1664698 L51.1132874,16.1891495 Z" id="Shape"></path>
                    <path d="M70.1187832,26.8424334 C64.7391838,25.9771639 60.707493,23.2371439 57.7830128,18.6464086 C55.6287661,15.2814718 53.99202,13.3947036 51.7655639,9.73533481 C45.2847713,-1.95782075 26.113179,-4.60770852 18.3085477,10.1078814 L18.1280242,10.4563927 C17.9393927,10.7790648 17.9606716,11.1827835 18.1821812,11.4839002 C18.3747396,11.7603057 18.5612805,12.0066672 18.7237516,12.2470198 C18.8074625,12.3628157 18.9417784,12.4314134 19.0847986,12.4314134 C19.2278187,12.4314134 19.3621346,12.3628157 19.4458455,12.2470198 C20.1378521,11.3096445 20.8238413,10.3662605 21.5218654,9.4288852 C28.8872229,-0.467634428 42.0895059,-0.251317059 49.1178863,9.90959046 C51.9641397,14.0196205 54.7261488,18.1897386 57.5964719,22.2817422 C60.3527243,26.3236843 64.869941,28.8155201 69.7637537,28.9935895 C69.8437581,29.0021368 69.9244473,29.0021368 70.0044517,28.9935895 C70.5456209,28.9469623 70.969663,28.5092987 70.9984504,27.9676603 C71.0272379,27.4260219 70.6519699,26.9459976 70.1187832,26.8424334 Z" id="Shape"></path>
                    <path d="M54.7529587,11.8245175 C54.8831347,11.9519904 55.0627365,12.0151027 55.2435961,11.9969283 C55.4244557,11.9787539 55.5880643,11.8811525 55.6905433,11.7303003 C55.9600988,11.3298775 56.2765336,10.8587918 56.3585723,10.7292433 C59.599099,5.51196954 62.6169494,2.48524414 69.1331622,2.10248704 L69.2386405,2.10248704 C69.7040684,1.95868788 70.0158291,1.51926299 69.9993789,1.03023051 C69.9829287,0.541198035 69.6423504,0.123931914 69.1683216,0.0120443963 C69.1236082,0.00583449813 69.0782573,0.00583449813 69.0335438,0.0120443963 C62.7693069,-0.258829861 56.4464708,4.06926969 54.3017461,9.95784051 C54.2332941,10.1444182 54.1550524,10.3272201 54.06735,10.5054776 C53.9293387,10.810377 54.0081188,11.1702204 54.2607268,11.3887632 C54.4482437,11.5359775 54.6181809,11.6890803 54.7529587,11.8245175 Z" id="Shape"></path>
                    <path d="M14.8422061,15.0939976 C10.7542114,20.5937659 8.11853066,24.6184116 1.13188483,25.1178626 C0.923344203,25.1532111 0.721720249,25.2198245 0.534224792,25.31532 C0.224243949,25.4530269 0.018807082,25.746831 0.00122261018,26.0775894 C-0.0163618617,26.4083477 0.156824862,26.7211585 0.450552387,26.8891713 L0.486411989,26.8891713 C5.86535232,27.6964234 11.088901,23.9853865 14.2804056,19.2870628 C14.878717,18.4118992 15.4254581,17.5044607 15.9179941,16.5691203 C16.1988944,16.0290163 15.7088131,15.7328303 15.1948255,15.0707673 C15.1481956,15.0218217 15.0812865,14.9959946 15.0128033,15.0005062 C14.9443201,15.0050178 14.8816107,15.0393841 14.8422061,15.0939976 Z" id="Shape"></path>
                    <rect id="Rectangle-path" x="7" y="6" width="1" height="15"></rect>
                    <rect id="Rectangle-path" x="10" y="11" width="1" height="7"></rect>
                    <rect id="Rectangle-path" x="64" y="6" width="1" height="15"></rect>
                    <rect id="Rectangle-path" x="60" y="11" width="1" height="7"></rect>
                    <rect id="Rectangle-path" x="37" y="4" width="1" height="19"></rect>
                    <rect id="Rectangle-path" x="42" y="6" width="1" height="15"></rect>
                    <rect id="Rectangle-path" x="45" y="11" width="1" height="7"></rect>
                    <rect id="Rectangle-path" x="32" y="4" width="1" height="19"></rect>
                    <rect id="Rectangle-path" x="28" y="6" width="1" height="15"></rect>
                    <rect id="Rectangle-path" x="24" y="11" width="1" height="7"></rect>
                </g>
                <g id="Icon-01-Copy-5" opacity="0.115998641" transform="translate(599.178723, 665.439389) rotate(42.000000) translate(-599.178723, -665.439389) translate(558.178723, 647.939389)">
                    <path d="M59.1186819,19.2479429 C59.052571,19.1585788 58.9479972,19.1058622 58.836837,19.1058622 C58.7256768,19.1058622 58.621103,19.1585788 58.5549921,19.2479429 C57.7369545,20.4234423 56.8845456,21.6539358 56.1215022,22.7400697 C52.5044776,27.8812338 46.5998619,30.9262018 40.3139045,30.8919347 C34.0279471,30.8576676 28.1568799,27.7485059 24.5961214,22.5682131 C21.4133365,17.928084 18.2855458,13.2604578 15.0752639,8.64095152 C11.761868,3.89083418 7.27297272,0.996768473 1.37485307,0.687426533 C0.702638489,0.669407487 0.130128576,1.17251448 0.0616101549,1.84147065 C-0.00690826636,2.51042681 0.451721548,3.1191492 1.11363098,3.23777897 L1.14800231,3.23777897 C6.31521699,3.97102811 10.9112537,6.90717596 13.7485307,11.2875437 C16.6013508,15.4121029 19.8528783,19.378554 22.17638,23.8055808 C29.0025254,36.7841938 51.3163907,38.3996462 59.6342518,22.1282601 C59.8090446,21.8286202 59.9607187,21.5160796 60.0879533,21.19336 C60.1932534,20.915612 60.1463733,20.6030776 59.9642165,20.3684482 L59.1186819,19.2479429 Z" id="Shape"></path>
                    <path d="M80.2089279,31.5735007 C74.0633347,30.5836065 69.4575769,27.4489415 66.116684,22.1970028 C63.655697,18.3474142 61.7858968,16.1888949 59.2424186,12.0024673 C51.8388349,-1.37485307 29.9374255,-4.40640408 21.0215034,12.4286717 L20.8152754,12.8273791 C20.599785,13.1965257 20.6240937,13.6583919 20.8771438,14.0028785 C21.0971203,14.3190947 21.3102225,14.6009396 21.4958277,14.8759102 C21.5914581,15.0083842 21.744899,15.086862 21.9082836,15.086862 C22.0716682,15.086862 22.2251092,15.0083842 22.3207395,14.8759102 C23.11128,13.8035248 23.8949463,12.7242651 24.6923611,11.6518797 C33.1064618,0.329964736 48.1886,0.577438288 56.2177419,12.201821 C59.4692694,16.9038185 62.6245572,21.6745586 65.9035817,26.3559333 C69.0522932,30.9800362 74.2127102,33.830771 79.8033463,34.0344877 C79.8947423,34.0442661 79.9869208,34.0442661 80.0783169,34.0344877 C80.6965424,33.9811448 81.1809633,33.4804445 81.2138498,32.8607939 C81.2467362,32.2411434 80.8180344,31.6919812 80.2089279,31.5735007 Z" id="Shape"></path>
                    <path d="M63.552583,15.2402462 C63.7052927,15.389057 63.9159839,15.4627338 64.1281507,15.4415171 C64.3403175,15.4203004 64.5322472,15.3063615 64.6524655,15.130258 C64.9686817,14.662808 65.339892,14.1128667 65.4361317,13.9616329 C69.2376004,7.87103381 72.7778471,4.33766143 80.4220301,3.89083418 L80.5457669,3.89083418 C81.0917614,3.72296432 81.4574885,3.2099836 81.4381907,2.63909143 C81.4188929,2.06819925 81.0193599,1.58108648 80.4632757,1.45046999 C80.4108223,1.44322061 80.357621,1.44322061 80.3051676,1.45046999 C72.956578,1.13425378 65.5392457,6.1868388 63.0232646,13.0611041 C62.9429634,13.2789133 62.8511778,13.4923146 62.748294,13.7004108 C62.5863926,14.0563477 62.6788098,14.4764257 62.9751447,14.7315506 C63.1951212,14.9034072 63.3944749,15.0821381 63.552583,15.2402462 Z" id="Shape"></path>
                    <path d="M17.1444177,18.9729723 C12.4424203,25.4829016 9.41086924,30.2467675 1.37485307,30.8379543 C1.13499035,30.8797954 0.903083167,30.9586438 0.687426533,31.0716793 C0.330887626,31.2346794 0.0945948432,31.5824475 0.0743692438,31.9739573 C0.0541436443,32.3654671 0.253342422,32.7357329 0.591186819,32.9346052 L0.632432411,32.9346052 C6.81927121,33.8901281 12.8273791,29.4974725 16.4982368,23.9361919 C17.1864125,22.900284 17.8152722,21.8261733 18.3817855,20.7190357 C18.704876,20.079729 18.1411862,19.7291415 17.5499994,18.9454753 C17.4963658,18.8875396 17.4194072,18.8569687 17.3406381,18.862309 C17.2618689,18.8676493 17.1897408,18.9083278 17.1444177,18.9729723 Z" id="Shape"></path>
                    <rect id="Rectangle-path" x="2.48848405" y="6.2074616" width="1" height="21.8257924"></rect>
                    <rect id="Rectangle-path" x="7.60981172" y="8.2697412" width="1" height="17.7081075"></rect>
                    <rect id="Rectangle-path" x="12.0505871" y="13.2535836" width="1" height="7.7335485"></rect>
                    <rect id="Rectangle-path" x="73.6027589" y="8.2697412" width="1" height="17.7081075"></rect>
                    <rect id="Rectangle-path" x="69.1688578" y="13.2535836" width="1" height="7.7335485"></rect>
                    <rect id="Rectangle-path" x="42.7304333" y="6.2074616" width="1" height="21.8257924"></rect>
                    <rect id="Rectangle-path" x="47.851761" y="8.2697412" width="1" height="17.7081075"></rect>
                    <rect id="Rectangle-path" x="52.2925364" y="13.2535836" width="1" height="7.7335485"></rect>
                    <rect id="Rectangle-path" x="37.0522901" y="6.2074616" width="1" height="21.8257924"></rect>
                    <rect id="Rectangle-path" x="31.9309625" y="8.2697412" width="1" height="17.7081075"></rect>
                    <rect id="Rectangle-path" x="27.4901871" y="13.2535836" width="1" height="7.7335485"></rect>
                </g>
                <g id="Icon-01-Copy-8" opacity="0.125849185" transform="translate(933.341387, 730.072424) rotate(-41.000000) translate(-933.341387, -730.072424) translate(893.341387, 713.072424)">
                    <path d="M57.5079127,18.7235065 C57.4436031,18.6365772 57.3418786,18.5852969 57.2337471,18.5852969 C57.1256156,18.5852969 57.0238911,18.6365772 56.9595815,18.7235065 C56.1638325,19.8669778 55.3346486,21.0639448 54.5923953,22.1204855 C51.0739215,27.1215715 45.3301851,30.0835752 39.2154972,30.0502418 C33.1008093,30.0169083 27.3897073,26.99246 23.9259665,21.9533113 C20.829901,17.4396089 17.7873312,12.8991586 14.6645177,8.40551701 C11.4413998,3.78482309 7.07481066,0.969610157 1.33739332,0.66869666 C0.683494145,0.651168567 0.126583046,1.14056773 0.0599315022,1.79129727 C-0.00672004122,2.44202681 0.439413778,3.03416372 1.08328859,3.14956127 L1.11672342,3.14956127 C6.14315029,3.86283204 10.6139617,6.71898053 13.3739332,10.9799992 C16.1490243,14.9921791 19.3119595,18.8505588 21.5721542,23.1569653 C28.2123121,35.7819583 49.9182057,37.3533954 58.0094352,21.5253455 C58.1794656,21.2338697 58.3270071,20.9298447 58.450775,20.615918 C58.5532061,20.3457377 58.5076033,20.0417187 58.3304096,19.813482 L57.5079127,18.7235065 Z" id="Shape"></path>
                    <path d="M78.0235263,30.7132376 C72.0453781,29.7503144 67.5651105,26.7010576 64.3152447,21.5922151 C61.9213107,17.8475138 60.1024558,15.7478063 57.6282781,11.6754437 C50.4264151,-1.33739332 29.1217395,-4.28634559 20.4487439,12.0900356 L20.2481349,12.4778797 C20.0385158,12.8369684 20.0621622,13.2862504 20.3083176,13.621351 C20.5223005,13.9289514 20.7295965,14.2031171 20.9101446,14.4705957 C21.0031693,14.5994603 21.1524296,14.6757999 21.3113625,14.6757999 C21.4702955,14.6757999 21.6195558,14.5994603 21.7125805,14.4705957 C22.4815817,13.4274289 23.2438959,12.3775752 24.019584,11.3344084 C32.2044311,0.320974397 46.8756359,0.561705194 54.6860128,11.8693657 C57.848948,16.4432509 60.9182657,21.0840057 64.1079488,25.6378299 C67.1708693,30.1359428 72.1906837,32.9090055 77.6289952,33.1071716 C77.7179011,33.1166837 77.807568,33.1166837 77.8964739,33.1071716 C78.4978551,33.0552822 78.9690772,32.5682241 79.0010677,31.9654568 C79.0330581,31.3626895 78.6160368,30.82849 78.0235263,30.7132376 Z" id="Shape"></path>
                    <path d="M61.8210062,14.8250049 C61.9695551,14.9697611 62.1745058,15.0414305 62.3808918,15.0207919 C62.5872778,15.0001533 62.7739781,14.8893188 62.8909209,14.7180135 C63.1985213,14.2632998 63.5596175,13.7283424 63.653235,13.5812292 C67.3511276,7.65657675 70.7949154,4.21947592 78.2308222,3.78482309 L78.3511876,3.78482309 C78.8823058,3.62152708 79.2380681,3.12252322 79.2192961,2.56718578 C79.2005241,2.01184834 78.8118769,1.53800762 78.270944,1.41094995 C78.2199198,1.40389809 78.168168,1.40389809 78.1171438,1.41094995 C70.9687765,1.10334949 63.7535395,6.01826994 61.3061098,12.7052365 C61.2279965,12.9171112 61.1387118,13.1246981 61.0386311,13.3271244 C60.881141,13.6733633 60.9710401,14.0819957 61.259301,14.3301694 C61.4732839,14.4973436 61.667206,14.6712047 61.8210062,14.8250049 Z" id="Shape"></path>
                    <path d="M16.6772947,18.4560278 C12.1034095,24.7885852 9.15445727,29.422653 1.33739332,29.9977322 C1.10406599,30.0384333 0.878477434,30.1151334 0.66869666,30.225089 C0.321872141,30.3836479 0.0920174777,30.7219406 0.0723429523,31.1027832 C0.0526684269,31.4836258 0.246439762,31.8438033 0.575079127,32.037257 L0.615200927,32.037257 C6.63347086,32.9667453 12.4778797,28.6937737 16.0487198,23.2840177 C16.7181453,22.2763345 17.3298708,21.2314894 17.8809487,20.1545173 C18.1952361,19.5326294 17.6469049,19.1915941 17.0718257,18.4292799 C17.0196535,18.3729228 16.9447917,18.3431849 16.8681687,18.3483797 C16.7915458,18.3535745 16.7213828,18.3931446 16.6772947,18.4560278 Z" id="Shape"></path>
                    <rect id="Rectangle-path" x="2.42068191" y="6.03833084" width="1" height="21.2311189"></rect>
                    <rect id="Rectangle-path" x="7.40247202" y="8.04442082" width="1" height="17.225626"></rect>
                    <rect id="Rectangle-path" x="11.7222524" y="12.8924716" width="1" height="7.52283742"></rect>
                    <rect id="Rectangle-path" x="71.5973514" y="8.04442082" width="1" height="17.225626"></rect>
                    <rect id="Rectangle-path" x="67.2842579" y="12.8924716" width="1" height="7.52283742"></rect>
                    <rect id="Rectangle-path" x="41.5661844" y="6.03833084" width="1" height="21.2311189"></rect>
                    <rect id="Rectangle-path" x="46.5479745" y="8.04442082" width="1" height="17.225626"></rect>
                    <rect id="Rectangle-path" x="50.8677549" y="12.8924716" width="1" height="7.52283742"></rect>
                    <rect id="Rectangle-path" x="36.04275" y="6.03833084" width="1" height="21.2311189"></rect>
                    <rect id="Rectangle-path" x="31.0609598" y="8.04442082" width="1" height="17.225626"></rect>
                    <rect id="Rectangle-path" x="26.7411794" y="12.8924716" width="1" height="7.52283742"></rect>
                </g>
                <g id="Icon-01-Copy-12" opacity="0.100317029" transform="translate(1252.141016, 541.722432) rotate(-30.000000) translate(-1252.141016, -541.722432) translate(1212.141016, 524.722432)">
                    <path d="M57.5079127,18.7235065 C57.4436031,18.6365772 57.3418786,18.5852969 57.2337471,18.5852969 C57.1256156,18.5852969 57.0238911,18.6365772 56.9595815,18.7235065 C56.1638325,19.8669778 55.3346486,21.0639448 54.5923953,22.1204855 C51.0739215,27.1215715 45.3301851,30.0835752 39.2154972,30.0502418 C33.1008093,30.0169083 27.3897073,26.99246 23.9259665,21.9533113 C20.829901,17.4396089 17.7873312,12.8991586 14.6645177,8.40551701 C11.4413998,3.78482309 7.07481066,0.969610157 1.33739332,0.66869666 C0.683494145,0.651168567 0.126583046,1.14056773 0.0599315022,1.79129727 C-0.00672004122,2.44202681 0.439413778,3.03416372 1.08328859,3.14956127 L1.11672342,3.14956127 C6.14315029,3.86283204 10.6139617,6.71898053 13.3739332,10.9799992 C16.1490243,14.9921791 19.3119595,18.8505588 21.5721542,23.1569653 C28.2123121,35.7819583 49.9182057,37.3533954 58.0094352,21.5253455 C58.1794656,21.2338697 58.3270071,20.9298447 58.450775,20.615918 C58.5532061,20.3457377 58.5076033,20.0417187 58.3304096,19.813482 L57.5079127,18.7235065 Z" id="Shape"></path>
                    <path d="M78.0235263,30.7132376 C72.0453781,29.7503144 67.5651105,26.7010576 64.3152447,21.5922151 C61.9213107,17.8475138 60.1024558,15.7478063 57.6282781,11.6754437 C50.4264151,-1.33739332 29.1217395,-4.28634559 20.4487439,12.0900356 L20.2481349,12.4778797 C20.0385158,12.8369684 20.0621622,13.2862504 20.3083176,13.621351 C20.5223005,13.9289514 20.7295965,14.2031171 20.9101446,14.4705957 C21.0031693,14.5994603 21.1524296,14.6757999 21.3113625,14.6757999 C21.4702955,14.6757999 21.6195558,14.5994603 21.7125805,14.4705957 C22.4815817,13.4274289 23.2438959,12.3775752 24.019584,11.3344084 C32.2044311,0.320974397 46.8756359,0.561705194 54.6860128,11.8693657 C57.848948,16.4432509 60.9182657,21.0840057 64.1079488,25.6378299 C67.1708693,30.1359428 72.1906837,32.9090055 77.6289952,33.1071716 C77.7179011,33.1166837 77.807568,33.1166837 77.8964739,33.1071716 C78.4978551,33.0552822 78.9690772,32.5682241 79.0010677,31.9654568 C79.0330581,31.3626895 78.6160368,30.82849 78.0235263,30.7132376 Z" id="Shape"></path>
                    <path d="M61.8210062,14.8250049 C61.9695551,14.9697611 62.1745058,15.0414305 62.3808918,15.0207919 C62.5872778,15.0001533 62.7739781,14.8893188 62.8909209,14.7180135 C63.1985213,14.2632998 63.5596175,13.7283424 63.653235,13.5812292 C67.3511276,7.65657675 70.7949154,4.21947592 78.2308222,3.78482309 L78.3511876,3.78482309 C78.8823058,3.62152708 79.2380681,3.12252322 79.2192961,2.56718578 C79.2005241,2.01184834 78.8118769,1.53800762 78.270944,1.41094995 C78.2199198,1.40389809 78.168168,1.40389809 78.1171438,1.41094995 C70.9687765,1.10334949 63.7535395,6.01826994 61.3061098,12.7052365 C61.2279965,12.9171112 61.1387118,13.1246981 61.0386311,13.3271244 C60.881141,13.6733633 60.9710401,14.0819957 61.259301,14.3301694 C61.4732839,14.4973436 61.667206,14.6712047 61.8210062,14.8250049 Z" id="Shape"></path>
                    <path d="M16.6772947,18.4560278 C12.1034095,24.7885852 9.15445727,29.422653 1.33739332,29.9977322 C1.10406599,30.0384333 0.878477434,30.1151334 0.66869666,30.225089 C0.321872141,30.3836479 0.0920174777,30.7219406 0.0723429523,31.1027832 C0.0526684269,31.4836258 0.246439762,31.8438033 0.575079127,32.037257 L0.615200927,32.037257 C6.63347086,32.9667453 12.4778797,28.6937737 16.0487198,23.2840177 C16.7181453,22.2763345 17.3298708,21.2314894 17.8809487,20.1545173 C18.1952361,19.5326294 17.6469049,19.1915941 17.0718257,18.4292799 C17.0196535,18.3729228 16.9447917,18.3431849 16.8681687,18.3483797 C16.7915458,18.3535745 16.7213828,18.3931446 16.6772947,18.4560278 Z" id="Shape"></path>
                    <rect id="Rectangle-path" x="7.40247202" y="8.04442082" width="1" height="17.225626"></rect>
                    <rect id="Rectangle-path" x="11.7222524" y="12.8924716" width="1" height="7.52283742"></rect>
                    <rect id="Rectangle-path" x="71.5973514" y="8.04442082" width="1" height="17.225626"></rect>
                    <rect id="Rectangle-path" x="67.2842579" y="12.8924716" width="1" height="7.52283742"></rect>
                    <rect id="Rectangle-path" x="41.5661844" y="6.03833084" width="1" height="21.2311189"></rect>
                    <rect id="Rectangle-path" x="46.5479745" y="8.04442082" width="1" height="17.225626"></rect>
                    <rect id="Rectangle-path" x="50.8677549" y="12.8924716" width="1" height="7.52283742"></rect>
                    <rect id="Rectangle-path" x="36.04275" y="6.03833084" width="1" height="21.2311189"></rect>
                    <rect id="Rectangle-path" x="31.0609598" y="8.04442082" width="1" height="17.225626"></rect>
                    <rect id="Rectangle-path" x="26.7411794" y="12.8924716" width="1" height="7.52283742"></rect>
                </g>
                <g id="Icon-01-Copy-6" opacity="0.108525815" transform="translate(1433.562373, 391.412579) rotate(-24.000000) translate(-1433.562373, -391.412579) translate(1396.062373, 375.912579)">
                    <path d="M55.0450787,17.3056426 C54.9834661,17.2223225 54.8860076,17.1731713 54.7824109,17.1731713 C54.6788141,17.1731713 54.5813557,17.2223225 54.519743,17.3056426 C53.7573656,18.4016389 52.9629554,19.54891 52.2518302,20.5615849 C48.8809117,25.3550344 43.378052,28.1940609 37.5197976,28.1621114 C31.6615432,28.1301619 26.1899493,25.2312834 22.8714685,20.4013515 C19.9052436,16.0750502 16.9902709,11.7231116 13.9984198,7.4160383 C10.9104708,2.98718764 6.72700455,0.288857495 1.23019897,0.000437408174 C0.603722557,-0.0163629481 0.0701668035,0.4527172 0.00631044555,1.07642957 C-0.0575459124,1.70014194 0.369878261,2.26769435 0.986750704,2.37830079 L1.01878337,2.37830079 C5.83441549,3.06195778 10.1177332,5.79952391 12.7619589,9.88363238 C15.4206702,13.7292335 18.4509605,17.42742 20.6163688,21.5550319 C26.9780563,33.6558569 47.7736634,35.1620506 55.5255687,19.9911541 C55.6884685,19.7117799 55.8298225,19.4203775 55.9483999,19.1194845 C56.0465354,18.8605215 56.002845,18.5691249 55.8330823,18.3503643 L55.0450787,17.3056426 Z" id="Shape"></path>
                    <path d="M74.068903,28.6936357 C68.384798,27.7686925 64.1248983,24.8397056 61.0348815,19.9323679 C58.7586963,16.3353664 57.0293041,14.3184763 54.6768222,10.4067372 C47.8291924,-2.09284287 27.5724155,-4.92548152 19.3260126,10.8049767 L19.1352708,11.1775232 C18.9359621,11.5224486 18.9584455,11.9540099 19.1924934,12.2758933 C19.3959513,12.5713613 19.5930511,12.8347132 19.7647187,13.0916419 C19.8531679,13.2154237 19.9950866,13.2887523 20.1462023,13.2887523 C20.2973179,13.2887523 20.4392366,13.2154237 20.5276858,13.0916419 C21.2588626,12.08962 21.9836814,11.081175 22.7212163,10.0791531 C30.5034808,-0.499885078 44.4530629,-0.26864927 51.8792761,10.5930105 C54.8866382,14.9864909 57.8049874,19.4442034 60.8377816,23.8184141 C63.7500484,28.1391108 68.5229566,30.8027974 73.6937775,30.9931473 C73.7783104,31.0022842 73.863567,31.0022842 73.9480999,30.9931473 C74.5199013,30.9433045 74.9679458,30.4754572 74.9983627,29.8964644 C75.0287797,29.3174717 74.6322701,28.8043423 74.068903,28.6936357 Z" id="Shape"></path>
                    <path d="M58.8000186,12.8098939 C58.9383306,12.9479895 59.1291575,13.0163613 59.3213208,12.9966723 C59.5134841,12.9769833 59.6873183,12.8712486 59.7962022,12.7078254 C60.082605,12.274034 60.418817,11.7636912 60.5059831,11.6233469 C63.9490427,5.97130034 67.1555087,2.69234782 74.0789848,2.27769429 L74.1910555,2.27769429 C74.6855727,2.12191187 75.0168184,1.64586824 74.99934,1.11608306 C74.9818617,0.586297871 74.6199973,0.134259573 74.1163417,0.013048096 C74.0688337,0.00632070631 74.0206483,0.00632070631 73.9731403,0.013048096 C67.3173885,-0.280399016 60.5993753,4.4083755 58.3206052,10.7876605 C58.247875,10.9897864 58.1647432,11.1878218 58.0715593,11.3809341 C57.9249223,11.7112418 58.0086262,12.1010721 58.2770222,12.3378268 C58.4762589,12.4973089 58.6568172,12.6631704 58.8000186,12.8098939 Z" id="Shape"></path>
                    <path d="M15.769844,17.1018307 C11.4263496,23.0599131 8.62593883,27.4199459 1.20262763,27.9610178 C0.981053216,27.999312 0.766827764,28.0714765 0.567613842,28.1749299 C0.238259195,28.3241125 0.0199825246,28.6424003 0.00129902331,29.0007218 C-0.017384478,29.3590433 0.166626416,29.6979217 0.478711911,29.8799356 L0.516812739,29.8799356 C6.23193684,30.7544587 11.7819574,26.7341687 15.172931,21.644318 C15.8086368,20.6962241 16.3895492,19.7131658 16.9128688,18.6998803 C17.2113253,18.1147677 16.6906139,17.7938994 16.1445021,17.0766646 C16.0949578,17.0236402 16.0238669,16.9956608 15.9511035,17.0005484 C15.8783401,17.005436 15.8117113,17.0426661 15.769844,17.1018307 Z" id="Shape"></path>
                    <rect id="Rectangle-path" x="7" y="7" width="1" height="16"></rect>
                    <rect id="Rectangle-path" x="11" y="11" width="1" height="7"></rect>
                    <rect id="Rectangle-path" x="73" y="5" width="1" height="20"></rect>
                    <rect id="Rectangle-path" x="68" y="7" width="1" height="16"></rect>
                    <rect id="Rectangle-path" x="64" y="11" width="1" height="7"></rect>
                    <rect id="Rectangle-path" x="40" y="5" width="1" height="20"></rect>
                    <rect id="Rectangle-path" x="44" y="7" width="1" height="16"></rect>
                    <rect id="Rectangle-path" x="49" y="11" width="1" height="7"></rect>
                    <rect id="Rectangle-path" x="34" y="5" width="1" height="20"></rect>
                    <rect id="Rectangle-path" x="30" y="7" width="1" height="16"></rect>
                    <rect id="Rectangle-path" x="26" y="11" width="1" height="7"></rect>
                </g>
                <g id="Icon-01-Copy-14" opacity="0.108525815" transform="translate(851.562373, 446.412579) rotate(-24.000000) translate(-851.562373, -446.412579) translate(814.062373, 430.912579)">
                    <path d="M55.0450787,17.3056426 C54.9834661,17.2223225 54.8860076,17.1731713 54.7824109,17.1731713 C54.6788141,17.1731713 54.5813557,17.2223225 54.519743,17.3056426 C53.7573656,18.4016389 52.9629554,19.54891 52.2518302,20.5615849 C48.8809117,25.3550344 43.378052,28.1940609 37.5197976,28.1621114 C31.6615432,28.1301619 26.1899493,25.2312834 22.8714685,20.4013515 C19.9052436,16.0750502 16.9902709,11.7231116 13.9984198,7.4160383 C10.9104708,2.98718764 6.72700455,0.288857495 1.23019897,0.000437408174 C0.603722557,-0.0163629481 0.0701668035,0.4527172 0.00631044555,1.07642957 C-0.0575459124,1.70014194 0.369878261,2.26769435 0.986750704,2.37830079 L1.01878337,2.37830079 C5.83441549,3.06195778 10.1177332,5.79952391 12.7619589,9.88363238 C15.4206702,13.7292335 18.4509605,17.42742 20.6163688,21.5550319 C26.9780563,33.6558569 47.7736634,35.1620506 55.5255687,19.9911541 C55.6884685,19.7117799 55.8298225,19.4203775 55.9483999,19.1194845 C56.0465354,18.8605215 56.002845,18.5691249 55.8330823,18.3503643 L55.0450787,17.3056426 Z" id="Shape"></path>
                    <path d="M74.068903,28.6936357 C68.384798,27.7686925 64.1248983,24.8397056 61.0348815,19.9323679 C58.7586963,16.3353664 57.0293041,14.3184763 54.6768222,10.4067372 C47.8291924,-2.09284287 27.5724155,-4.92548152 19.3260126,10.8049767 L19.1352708,11.1775232 C18.9359621,11.5224486 18.9584455,11.9540099 19.1924934,12.2758933 C19.3959513,12.5713613 19.5930511,12.8347132 19.7647187,13.0916419 C19.8531679,13.2154237 19.9950866,13.2887523 20.1462023,13.2887523 C20.2973179,13.2887523 20.4392366,13.2154237 20.5276858,13.0916419 C21.2588626,12.08962 21.9836814,11.081175 22.7212163,10.0791531 C30.5034808,-0.499885078 44.4530629,-0.26864927 51.8792761,10.5930105 C54.8866382,14.9864909 57.8049874,19.4442034 60.8377816,23.8184141 C63.7500484,28.1391108 68.5229566,30.8027974 73.6937775,30.9931473 C73.7783104,31.0022842 73.863567,31.0022842 73.9480999,30.9931473 C74.5199013,30.9433045 74.9679458,30.4754572 74.9983627,29.8964644 C75.0287797,29.3174717 74.6322701,28.8043423 74.068903,28.6936357 Z" id="Shape"></path>
                    <path d="M58.8000186,12.8098939 C58.9383306,12.9479895 59.1291575,13.0163613 59.3213208,12.9966723 C59.5134841,12.9769833 59.6873183,12.8712486 59.7962022,12.7078254 C60.082605,12.274034 60.418817,11.7636912 60.5059831,11.6233469 C63.9490427,5.97130034 67.1555087,2.69234782 74.0789848,2.27769429 L74.1910555,2.27769429 C74.6855727,2.12191187 75.0168184,1.64586824 74.99934,1.11608306 C74.9818617,0.586297871 74.6199973,0.134259573 74.1163417,0.013048096 C74.0688337,0.00632070631 74.0206483,0.00632070631 73.9731403,0.013048096 C67.3173885,-0.280399016 60.5993753,4.4083755 58.3206052,10.7876605 C58.247875,10.9897864 58.1647432,11.1878218 58.0715593,11.3809341 C57.9249223,11.7112418 58.0086262,12.1010721 58.2770222,12.3378268 C58.4762589,12.4973089 58.6568172,12.6631704 58.8000186,12.8098939 Z" id="Shape"></path>
                    <path d="M15.769844,17.1018307 C11.4263496,23.0599131 8.62593883,27.4199459 1.20262763,27.9610178 C0.981053216,27.999312 0.766827764,28.0714765 0.567613842,28.1749299 C0.238259195,28.3241125 0.0199825246,28.6424003 0.00129902331,29.0007218 C-0.017384478,29.3590433 0.166626416,29.6979217 0.478711911,29.8799356 L0.516812739,29.8799356 C6.23193684,30.7544587 11.7819574,26.7341687 15.172931,21.644318 C15.8086368,20.6962241 16.3895492,19.7131658 16.9128688,18.6998803 C17.2113253,18.1147677 16.6906139,17.7938994 16.1445021,17.0766646 C16.0949578,17.0236402 16.0238669,16.9956608 15.9511035,17.0005484 C15.8783401,17.005436 15.8117113,17.0426661 15.769844,17.1018307 Z" id="Shape"></path>
                    <rect id="Rectangle-path" x="7" y="7" width="1" height="16"></rect>
                    <rect id="Rectangle-path" x="11" y="11" width="1" height="7"></rect>
                    <rect id="Rectangle-path" x="73" y="5" width="1" height="20"></rect>
                    <rect id="Rectangle-path" x="68" y="7" width="1" height="16"></rect>
                    <rect id="Rectangle-path" x="64" y="11" width="1" height="7"></rect>
                    <rect id="Rectangle-path" x="40" y="5" width="1" height="20"></rect>
                    <rect id="Rectangle-path" x="44" y="7" width="1" height="16"></rect>
                    <rect id="Rectangle-path" x="49" y="11" width="1" height="7"></rect>
                    <rect id="Rectangle-path" x="34" y="5" width="1" height="20"></rect>
                    <rect id="Rectangle-path" x="30" y="7" width="1" height="16"></rect>
                    <rect id="Rectangle-path" x="26" y="11" width="1" height="7"></rect>
                </g>
                <g id="Icon-01-Copy-7" opacity="0.0721807065" transform="translate(1374.558848, 672.249286) rotate(36.000000) translate(-1374.558848, -672.249286) translate(1332.558848, 654.249286)">
                    <path d="M60.9398116,19.8408689 C60.8716642,19.748752 60.7638691,19.6944114 60.6492846,19.6944114 C60.5347001,19.6944114 60.426905,19.748752 60.3587576,19.8408689 C59.5155206,21.0525791 58.6368536,22.3209775 57.8503049,23.4405694 C54.1218591,28.7401051 48.0353539,31.8788723 41.5557598,31.8435496 C35.0761658,31.8082269 29.0242424,28.6032886 25.353796,23.2634188 C22.0729666,18.4803522 18.8488254,13.6689415 15.539652,8.90713293 C12.1241881,4.01068993 7.49701403,1.02747357 1.41720492,0.70860246 C0.724283014,0.690028344 0.13413714,1.20863337 0.0635080335,1.89819649 C-0.00712107302,2.58775961 0.465636668,3.21523347 1.14793599,3.33751759 L1.18336611,3.33751759 C6.50975498,4.09335421 11.247371,7.11994903 14.1720492,11.6352524 C17.1127494,15.8868672 20.4644391,19.9755034 22.8595154,24.5389032 C29.8959378,37.9173177 52.8971737,39.5825334 61.4712634,22.8099132 C61.6514407,22.501043 61.8077871,22.1788747 61.9389411,21.8462139 C62.047485,21.5599099 61.9991607,21.237748 61.8113926,20.9958909 L60.9398116,19.8408689 Z" id="Shape"></path>
                    <path d="M82.6797351,32.546111 C76.3448291,31.5257235 71.5971926,28.2944962 68.1533846,22.8807734 C65.6165878,18.9125997 63.6891891,16.6875879 61.06736,12.372199 C53.4357115,-1.41720492 30.8596371,-4.54214177 21.6690632,12.8115325 L21.4564825,13.2225219 C21.234354,13.6030399 21.2594115,14.0791338 21.5202567,14.4342321 C21.7470095,14.7601892 21.9666763,15.0507163 22.1579989,15.3341572 C22.2565752,15.470712 22.4147428,15.5516074 22.5831604,15.5516074 C22.751578,15.5516074 22.9097457,15.470712 23.0083219,15.3341572 C23.8232147,14.2287374 24.6310215,13.1162315 25.4530004,12.0108117 C34.1262945,0.340129181 49.6730325,0.595226067 57.9495092,12.5776937 C61.3011988,17.4245345 64.5536841,22.3422356 67.9337179,27.1678183 C71.1794243,31.934365 76.4988061,34.8729157 82.2616596,35.0829078 C82.3558711,35.0929875 82.4508891,35.0929875 82.5451006,35.0829078 C83.1823704,35.0279218 83.6817137,34.5117975 83.7156132,33.8730589 C83.7495127,33.2343202 83.3076048,32.6682413 82.6797351,32.546111 Z" id="Shape"></path>
                    <path d="M65.5102975,15.7097165 C65.6677114,15.8631113 65.8848928,15.9390578 66.1035953,15.9171875 C66.3222979,15.8953173 66.5201398,15.7778685 66.6440614,15.5963402 C66.9700185,15.1144905 67.3526639,14.5476085 67.4518682,14.391716 C71.3704398,8.11349817 75.0197425,4.47128153 82.8994018,4.01068993 L83.0269503,4.01068993 C83.5897639,3.8376489 83.9667571,3.30886599 83.9468649,2.72038769 C83.9269726,2.13190938 83.5151321,1.62979128 82.941918,1.49515119 C82.8878488,1.4876785 82.8330086,1.4876785 82.7789394,1.49515119 C75.2039791,1.16919406 67.5581586,6.37742214 64.9646736,13.4634467 C64.8818987,13.6879654 64.7872858,13.9079405 64.6812326,14.122447 C64.5143439,14.4893485 64.609608,14.9223668 64.9150714,15.1853507 C65.1418242,15.3625013 65.3473189,15.546738 65.5102975,15.7097165 Z" id="Shape"></path>
                    <path d="M17.6725454,19.5574279 C12.8257045,26.2678932 9.70076768,31.1785083 1.41720492,31.7879064 C1.16995332,31.8310364 0.930902319,31.9123137 0.70860246,32.0288312 C0.3410805,32.1968524 0.0975088034,32.5553334 0.0766601616,32.9589036 C0.0558115198,33.3624737 0.261146544,33.7441454 0.609398116,33.9491439 L0.651914264,33.9491439 C7.02933641,34.9341013 13.2225219,30.4061316 17.006459,24.6735377 C17.7158338,23.605719 18.3640653,22.4985207 18.9480298,21.3572782 C19.2810729,20.6982779 18.7000189,20.3368906 18.0906208,19.5290838 C18.0353351,19.4693635 17.9560058,19.4378509 17.8748102,19.4433557 C17.7936146,19.4488604 17.7192645,19.490792 17.6725454,19.5574279 Z" id="Shape"></path>
                    <rect id="Rectangle-path" x="7.84422924" y="8.5244876" width="1" height="18.2535994"></rect>
                    <rect id="Rectangle-path" x="12.4218011" y="13.6618554" width="1" height="7.97177768"></rect>
                    <rect id="Rectangle-path" x="75.8700654" y="8.5244876" width="1" height="18.2535994"></rect>
                    <rect id="Rectangle-path" x="71.2995796" y="13.6618554" width="1" height="7.97177768"></rect>
                    <rect id="Rectangle-path" x="44.0467289" y="6.39868022" width="1" height="22.4981281"></rect>
                    <rect id="Rectangle-path" x="49.3258173" y="8.5244876" width="1" height="18.2535994"></rect>
                    <rect id="Rectangle-path" x="53.9033892" y="13.6618554" width="1" height="7.97177768"></rect>
                    <rect id="Rectangle-path" x="38.1936726" y="6.39868022" width="1" height="22.4981281"></rect>
                    <rect id="Rectangle-path" x="32.9145843" y="8.5244876" width="1" height="18.2535994"></rect>
                    <rect id="Rectangle-path" x="28.3370124" y="13.6618554" width="1" height="7.97177768"></rect>
                </g>
            </g>
        </g>
    </g>
</svg>