<svg xmlns="http://www.w3.org/2000/svg" width="18" height="18" viewBox="0 0 512.002 512.002">
  <path fill="#9b9b9b" d="M509.762 274.567c-7.776-23.968-33.504-37.056-57.472-29.28l-45.952 14.944c-10.176-31.36-21.024-64.704-31.2-96 27.936-9.088 45.952-14.944 45.952-14.944 23.968-7.776 37.056-33.504 29.28-57.472-7.776-23.968-33.504-37.056-57.472-29.28l-45.952 14.944c-9.088-27.936-14.944-45.952-14.944-45.952-7.744-23.936-33.472-37.056-57.44-29.28s-37.056 33.504-29.28 57.472l14.944 45.952-96 31.2c-9.056-27.936-14.912-45.952-14.912-45.952-7.808-23.968-33.536-37.088-57.472-29.28-23.968 7.776-37.088 33.504-29.28 57.44l14.944 45.984-47.424 15.424c-22.4 8.096-34.976 32.256-28.288 55.488 6.976 24.192 32.672 38.944 56.448 31.232.192-.064 18.848-6.112 47.424-15.424l31.2 96-47.424 15.424c-22.368 8.096-34.944 32.256-28.288 55.488 6.976 24.192 32.672 38.976 56.448 31.232.192-.064 18.848-6.112 47.456-15.424l15.424 47.424c8.096 22.368 32.256 34.944 55.488 28.288 24.192-6.976 38.976-32.672 31.232-56.448-.064-.192-6.112-18.816-15.392-47.424 31.36-10.176 64.704-21.024 96-31.2l15.424 47.424c8.096 22.368 32.256 34.944 55.488 28.288 24.192-6.976 38.976-32.672 31.232-56.448-.064-.192-6.112-18.816-15.424-47.424 27.936-9.088 45.952-14.944 45.952-14.944 23.936-7.776 37.056-33.504 29.28-57.472zm-286.144 45.056c-10.208-31.36-21.024-64.704-31.2-96 31.36-10.176 64.704-21.024 96-31.2l31.2 96-96 31.2z"/>
</svg>
