<?xml version="1.0" encoding="utf-8"?>
<!-- Generator: Adobe Illustrator 21.0.0, SVG Export Plug-In . SVG Version: 6.00 Build 0)  -->
<svg version="1.1" id="Слой_1" xmlns="http://www.w3.org/2000/svg" xmlns:xlink="http://www.w3.org/1999/xlink" x="0px" y="0px"
	 viewBox="0 0 94.7 78" style="enable-background:new 0 0 94.7 78;" xml:space="preserve">
<style type="text/css">
	.st0{fill:#5E94FD;}
</style>
<path id="BTC" class="st0" d="M67.1,37.4c0,0,8.9-4.1,8.9-15.4S61.4,9.8,61.4,9.8V0.1h-8.9v9.7h-9.8V0.1h-8.9v9.7h-8.9h-7v8.8h7
	v13.9v27.8h-7.3v9l7.3-0.2h8.9V78h8.9v-8.9H52V78h9.3v-9.7c0,0,17.9,0,17.9-14.6S67.1,37.4,67.1,37.4z M38.6,18.7h17.1
	c0,0,6.5-0.8,6.5,6.5s-6.5,7.4-6.5,7.4H38.6V18.7z M58.9,60.2H38.6V42.3h20.3c0,0,7.7-1.1,7.7,8.4S58.9,60.2,58.9,60.2z"/>
</svg>
