<?xml version="1.0" encoding="utf-8"?>
<!-- Generator: Adobe Illustrator 21.0.0, SVG Export Plug-In . SVG Version: 6.00 Build 0)  -->
<svg version="1.1" id="Слой_1" xmlns="http://www.w3.org/2000/svg" xmlns:xlink="http://www.w3.org/1999/xlink" x="0px" y="0px"
	 viewBox="0 0 94.7 78" style="enable-background:new 0 0 94.7 78;" xml:space="preserve">
<style type="text/css">
	.st0{fill:#5E94FD;}
</style>
<g id="BTG">
	<path class="st0" d="M56.7,38.4c0,0,4.5-1.9,4.7-7.6c0.1-5.7-7.2-6.3-7.2-6.3l0.1-4.9l-4.5-0.1l-0.1,4.9l-4.9-0.1l0.1-4.9l-4.5-0.1
		l-0.1,4.9l-4.5-0.1L32.3,24l-0.1,4.4l3.5,0.1l-0.2,6.9l-0.3,13.9l-3.5-0.1l-0.1,4.5h3.6l4.5,0.1l-0.1,4.5l4.5,0.1l0.1-4.5l4.7,0.1
		l-0.2,4.5l4.7,0.1l0.1-4.9c0,0,8.9,0.2,9.1-7.1C62.8,39.3,56.7,38.4,56.7,38.4z M42.7,28.7l8.5,0.2c0,0,3.3-0.3,3.2,3.3
		c-0.1,3.6-3.3,3.6-3.3,3.6l-8.5-0.2L42.7,28.7z M52.3,49.6l-10.1-0.2l0.2-8.9l10.2,0.2c0,0,3.9-0.4,3.8,4.3
		C56.3,49.7,52.3,49.6,52.3,49.6z"/>
	<path class="st0" d="M47.1,67.8c-15.9,0-28.9-12.9-28.9-28.9S31.1,10,47.1,10S76,22.9,76,38.9S63,67.8,47.1,67.8z M47.1,12.1
		c-14.8,0-26.8,12-26.8,26.8s12,26.8,26.8,26.8s26.8-12,26.8-26.8C73.9,24.2,61.9,12.1,47.1,12.1z"/>
	<path class="st0" d="M47.1,78c-21.5,0-39-17.5-39-39s17.5-39,39-39s39,17.5,39,39S68.6,78,47.1,78z M47.1,1.9
		c-20.4,0-37,16.6-37,37s16.6,37,37,37s37-16.6,37-37S67.5,1.9,47.1,1.9z"/>
	<path class="st0" d="M47.1,74.4c-19.6,0-35.5-15.9-35.5-35.5S27.5,3.4,47.1,3.4s35.5,15.9,35.5,35.5C82.5,58.5,66.6,74.4,47.1,74.4
		z M47.1,8.3C30.2,8.3,16.5,22,16.5,38.9s13.7,30.6,30.6,30.6S77.7,55.8,77.7,39S64,8.3,47.1,8.3z"/>
</g>
</svg>
