<?xml version="1.0" encoding="utf-8"?>
<!-- Generator: Adobe Illustrator 21.0.0, SVG Export Plug-In . SVG Version: 6.00 Build 0)  -->
<svg version="1.1" id="Слой_1" xmlns="http://www.w3.org/2000/svg" xmlns:xlink="http://www.w3.org/1999/xlink" x="0px" y="0px"
	 viewBox="0 0 94.7 78" style="enable-background:new 0 0 94.7 78;" xml:space="preserve">
<style type="text/css">
	.st0{fill:#5E94FD;}
</style>
<g id="GNT">
	<path class="st0" d="M8.2,40C3.7,40,0,36.3,0,31.8s3.7-8.2,8.2-8.2s8.2,3.7,8.2,8.2S12.8,40,8.2,40z M8.2,25.2
		c-3.5,0-6.5,2.9-6.5,6.5s2.9,6.5,6.5,6.5s6.5-2.9,6.5-6.5S11.8,25.2,8.2,25.2z"/>
	<path class="st0" d="M30.4,40c-4.5,0-8.2-3.7-8.2-8.2s3.7-8.2,8.2-8.2s8.2,3.7,8.2,8.2S34.9,40,30.4,40z M30.4,25.2
		c-3.6,0-6.5,2.9-6.5,6.5s2.9,6.5,6.5,6.5s6.5-2.9,6.5-6.5S34,25.2,30.4,25.2z"/>
	<path class="st0" d="M60.8,40c-4.5,0-8.2-3.7-8.2-8.2s3.7-8.2,8.2-8.2s8.2,3.7,8.2,8.2v0.9l-14.7-0.3c0.3,3.3,3.1,5.9,6.5,5.9
		c1.9,0,3.7-0.8,4.9-2.3l1.3,1C65.5,38.8,63.2,40,60.8,40z M54.4,30.5l12.8,0.2c-0.4-3.2-3.2-5.6-6.5-5.6
		C57.6,25.2,54.9,27.5,54.4,30.5z"/>
	<path class="st0" d="M8.2,61.8C3.7,61.8,0,58,0,53.5s3.7-8.2,8.2-8.2s8.2,3.7,8.2,8.2S12.8,61.8,8.2,61.8z M8.2,47
		c-3.5,0-6.5,3-6.5,6.6S4.6,60,8.2,60s6.5-2.9,6.5-6.5S11.8,47,8.2,47z"/>
	
		<rect x="12.5" y="22.9" transform="matrix(0.6854 -0.7282 0.7282 0.6854 -12.2783 19.0488)" class="st0" width="6.9" height="1.7"/>
	<rect x="7.4" y="39" class="st0" width="1.7" height="7.1"/>
	<rect x="44.6" y="16.7" class="st0" width="1.7" height="22.4"/>
	<polygon class="st0" points="94.7,39 93,39 93,25.2 76.7,25.2 76.7,39 75,39 75,23.5 94.7,23.5 	"/>
	<rect x="83.8" y="24.3" class="st0" width="1.7" height="14.8"/>
</g>
</svg>
