<?xml version="1.0" encoding="utf-8"?>
<!-- Generator: Adobe Illustrator 21.0.0, SVG Export Plug-In . SVG Version: 6.00 Build 0)  -->
<svg version="1.1" id="Слой_1" xmlns="http://www.w3.org/2000/svg" xmlns:xlink="http://www.w3.org/1999/xlink" x="0px" y="0px"
	 viewBox="0 0 94.7 78" style="enable-background:new 0 0 94.7 78;" xml:space="preserve">
<style type="text/css">
	.st0{fill:#5E94FD;}
</style>
<g id="IOT">
	<g>
		<g>
			<circle class="st0" cx="64.9" cy="60.5" r="3.4"/>
			<circle class="st0" cx="52.4" cy="63" r="2.8"/>
			<circle class="st0" cx="56.8" cy="57.4" r="2.8"/>
			<circle class="st0" cx="46.6" cy="58.7" r="2.3"/>
			<circle class="st0" cx="42.6" cy="54" r="2"/>
			<circle class="st0" cx="47" cy="48.2" r="2"/>
			<circle class="st0" cx="44.7" cy="43.5" r="1.8"/>
			<circle class="st0" cx="40.3" cy="49.3" r="1.8"/>
			<circle class="st0" cx="35.6" cy="53.2" r="1.8"/>
			<circle class="st0" cx="34.4" cy="48.8" r="1.5"/>
			<circle class="st0" cx="39.2" cy="44.9" r="1.5"/>
			<circle class="st0" cx="43.6" cy="39.3" r="1.5"/>
			<circle class="st0" cx="39.1" cy="41.2" r="1.3"/>
			<circle class="st0" cx="34.3" cy="45.1" r="1.3"/>
			<circle class="st0" cx="35" cy="42" r="1.1"/>
			<circle class="st0" cx="37.8" cy="57.8" r="2"/>
			<circle class="st0" cx="51" cy="53" r="2.3"/>
			<circle class="st0" cx="41.8" cy="62.5" r="2.3"/>
		</g>
		<g>
			
				<ellipse transform="matrix(0.5182 -0.8552 0.8552 0.5182 -24.0326 40.1164)" class="st0" cx="23.6" cy="41.4" rx="3.4" ry="3.4"/>
			
				<ellipse transform="matrix(0.5182 -0.8552 0.8552 0.5182 -11.7221 38.0118)" class="st0" cx="27.9" cy="29.4" rx="2.8" ry="2.8"/>
			
				<ellipse transform="matrix(0.5182 -0.8552 0.8552 0.5182 -16.2825 43.4047)" class="st0" cx="30.4" cy="36.2" rx="2.8" ry="2.8"/>
			<ellipse transform="matrix(0.5182 -0.8552 0.8552 0.5182 -6.0901 42.509)" class="st0" cx="34.7" cy="26.7" rx="2.3" ry="2.3"/>
			<ellipse transform="matrix(0.5182 -0.8552 0.8552 0.5182 -2.4081 47.1588)" class="st0" cx="40.7" cy="25.7" rx="2" ry="2"/>
			<ellipse transform="matrix(0.5182 -0.8552 0.8552 0.5182 -6.9785 52.7078)" class="st0" cx="43.3" cy="32.5" rx="2" ry="2"/>
			<ellipse transform="matrix(0.5182 -0.8552 0.8552 0.5182 -4.7649 57.424)" class="st0" cx="48.6" cy="32.9" rx="1.8" ry="1.8"/>
			<ellipse transform="matrix(0.5182 -0.8552 0.8552 0.5182 -0.3537 51.963)" class="st0" cx="45.9" cy="26.3" rx="1.8" ry="1.8"/>
			<ellipse transform="matrix(0.5182 -0.8552 0.8552 0.5182 4.4551 48.1931)" class="st0" cx="45" cy="20.1" rx="1.8" ry="1.8"/>
			<ellipse transform="matrix(0.5182 -0.8552 0.8552 0.5182 5.5245 52.5496)" class="st0" cx="49.4" cy="21.4" rx="1.5" ry="1.5"/>
			<ellipse transform="matrix(0.5182 -0.8552 0.8552 0.5182 0.7188 56.2215)" class="st0" cx="50.3" cy="27.5" rx="1.5" ry="1.5"/>
			<ellipse transform="matrix(0.5182 -0.8552 0.8552 0.5182 -3.8416 61.6145)" class="st0" cx="52.8" cy="34.2" rx="1.5" ry="1.5"/>
			<ellipse transform="matrix(0.5182 -0.8552 0.8552 0.5182 0.6237 59.91)" class="st0" cx="53.5" cy="29.4" rx="1.3" ry="1.3"/>
			<ellipse transform="matrix(0.5182 -0.8552 0.8552 0.5182 5.4294 56.2383)" class="st0" cx="52.6" cy="23.3" rx="1.3" ry="1.3"/>
			<ellipse transform="matrix(0.5182 -0.8552 0.8552 0.5182 4.6381 59.2889)" class="st0" cx="54.9" cy="25.5" rx="1.1" ry="1.1"/>
			<ellipse transform="matrix(0.5182 -0.8552 0.8552 0.5182 2.3876 43.6429)" class="st0" cx="39.9" cy="19.7" rx="2" ry="2"/>
			
				<ellipse transform="matrix(0.5182 -0.8552 0.8552 0.5182 -10.6503 47.9021)" class="st0" cx="37.2" cy="33.4" rx="2.3" ry="2.3"/>
			<ellipse transform="matrix(0.5182 -0.8552 0.8552 0.5182 -1.2912 38.8951)" class="st0" cx="33.9" cy="20.6" rx="2.3" ry="2.3"/>
		</g>
		<g>
			<ellipse transform="matrix(0.7071 -0.7071 0.7071 0.7071 6.8387 47.6764)" class="st0" cx="61" cy="15.6" rx="3.4" ry="3.4"/>
			<ellipse transform="matrix(0.7071 -0.7071 0.7071 0.7071 2.4992 56.2363)" class="st0" cx="69.1" cy="25.1" rx="2.8" ry="2.8"/>
			<ellipse transform="matrix(0.7071 -0.7071 0.7071 0.7071 1.1128 50.8232)" class="st0" cx="61.9" cy="24.1" rx="2.8" ry="2.8"/>
			<ellipse transform="matrix(0.7071 -0.7071 0.7071 0.7071 -2.9432 57.6423)" class="st0" cx="68.1" cy="32.4" rx="2.3" ry="2.3"/>
			<ellipse transform="matrix(0.7071 -0.7071 0.7071 0.7071 -7.5253 57.859)" class="st0" cx="66.1" cy="38" rx="2" ry="2"/>
			<ellipse transform="matrix(0.7071 -0.7071 0.7071 0.7071 -8.8116 52.5064)" class="st0" cx="59" cy="36.9" rx="2" ry="2"/>
			
				<ellipse transform="matrix(0.7071 -0.7071 0.7071 0.7071 -12.9224 51.8033)" class="st0" cx="56.1" cy="41.5" rx="1.8" ry="1.8"/>
			
				<ellipse transform="matrix(0.7071 -0.7071 0.7071 0.7071 -11.5559 57.1361)" class="st0" cx="63.2" cy="42.5" rx="1.8" ry="1.8"/>
			<ellipse transform="matrix(0.7071 -0.7071 0.7071 0.7071 -11.329 61.8475)" class="st0" cx="69" cy="44.6" rx="1.8" ry="1.8"/>
			<ellipse transform="matrix(0.7071 -0.7071 0.7071 0.7071 -14.5194 60.425)" class="st0" cx="65.7" cy="47.7" rx="1.5" ry="1.5"/>
			
				<ellipse transform="matrix(0.7071 -0.7071 0.7071 0.7071 -14.6852 55.8937)" class="st0" cx="60.1" cy="45.7" rx="1.5" ry="1.5"/>
			
				<ellipse transform="matrix(0.7071 -0.7071 0.7071 0.7071 -16.0327 50.3609)" class="st0" cx="52.8" cy="44.5" rx="1.5" ry="1.5"/>
			<ellipse transform="matrix(0.7071 -0.7071 0.7071 0.7071 -16.888 58.7828)" class="st0" cx="62.5" cy="49.8" rx="1.3" ry="1.3"/>
			
				<ellipse transform="matrix(0.7071 -0.7071 0.7071 0.7071 -17.0149 54.1319)" class="st0" cx="56.8" cy="47.6" rx="1.3" ry="1.3"/>
			
				<ellipse transform="matrix(0.7071 -0.7071 0.7071 0.7071 -18.3874 56.9912)" class="st0" cx="59.6" cy="50.7" rx="1.1" ry="1.1"/>
			<ellipse transform="matrix(0.7071 -0.7071 0.7071 0.7071 -7.4881 62.6807)" class="st0" cx="71.9" cy="40.4" rx="2" ry="2"/>
			<ellipse transform="matrix(0.7071 -0.7071 0.7071 0.7071 -4.3002 52.2604)" class="st0" cx="60.9" cy="31.3" rx="2.3" ry="2.3"/>
			<ellipse transform="matrix(0.7071 -0.7071 0.7071 0.7071 -2.6965 62.4339)" class="st0" cx="74" cy="34.5" rx="2.3" ry="2.3"/>
		</g>
	</g>
	<path class="st0" d="M48.2,78c-21.5,0-39-17.5-39-39s17.5-39,39-39s39,17.5,39,39S69.7,78,48.2,78z M48.2,2c-20.4,0-37,16.6-37,37
		s16.6,37,37,37s37-16.6,37-37S68.6,2,48.2,2z"/>
</g>
</svg>
