<?xml version="1.0" encoding="utf-8"?>
<!-- Generator: Adobe Illustrator 21.0.0, SVG Export Plug-In . SVG Version: 6.00 Build 0)  -->
<svg version="1.1" id="Слой_1" xmlns="http://www.w3.org/2000/svg" xmlns:xlink="http://www.w3.org/1999/xlink" x="0px" y="0px"
	 viewBox="0 0 94.7 78" style="enable-background:new 0 0 94.7 78;" xml:space="preserve">
<style type="text/css">
	.st0{fill:#5E94FD;}
</style>
<g id="NXT">
	<g>
		<path class="st0" d="M48.4,47.1h-7.8l-14.7-9.9h-6.7c-1.8,0-3.3-1.5-3.3-3.3s1.5-3.3,3.3-3.3h8.7l14.7,9.9h5.8
			c1.8,0,3.3,1.5,3.3,3.3S50.2,47.1,48.4,47.1z"/>
		<path class="st0" d="M70.9,47.2h-7.8l-14.7-9.9h-6.7c-1.8,0-3.3-1.5-3.3-3.3s1.5-3.3,3.3-3.3h8.7l14.7,9.9h5.8
			c1.8,0,3.3,1.5,3.3,3.3C74.2,45.7,72.7,47.2,70.9,47.2z"/>
		<path class="st0" d="M78.7,45.8c-1.8,0-3.3-1.5-3.3-3.3v-5.2H62.6c-1.8,0-3.3-1.5-3.3-3.3s1.5-3.3,3.3-3.3h15.3c2.2,0,4,1.8,4,4
			v7.7C82,44.4,80.5,45.8,78.7,45.8z M77.9,37.3L77.9,37.3L77.9,37.3z"/>
		<path class="st0" d="M27.7,47.2h-9.2c-1.8,0-3.3-1.5-3.3-3.3s1.5-3.3,3.3-3.3h9.2c1.8,0,3.3,1.5,3.3,3.3S29.5,47.2,27.7,47.2z"/>
	</g>
	<path class="st0" d="M48.6,78c-21.5,0-39-17.5-39-39s17.5-39,39-39s39,17.5,39,39S70.1,78,48.6,78z M48.6,1.9
		c-20.4,0-37,16.6-37,37s16.6,37,37,37s37-16.6,37-37S69,1.9,48.6,1.9z"/>
</g>
</svg>
