<svg xmlns="http://www.w3.org/2000/svg" width="25" height="25">
  <g fill="#EAF1FE">
    <path d="M24.9961 22.9222L23.7354 2.0778C23.6662.9344 22.6744 0 21.5205 0H3.4915c-1.1632 0-2.146.9303-2.216 2.0778L.004 22.9222C-.066 24.0656.8117 25 1.9645 25h21.07c1.1589 0 2.031-.9303 1.9616-2.0778zm-22.1678-.7L4.0146 2.7779h16.9815l1.176 19.4445H2.8283z"/>
    <path d="M15.341 6.6818v3.3327c0 .1951-.0856.5928-.3305.9724-.407.6306-1.141 1.0099-2.5104 1.0099-1.3695 0-2.1035-.3792-2.5105-1.01-.245-.3795-.3305-.7772-.3305-.9723V6.6818h-2.841v3.3327c0 .6305.1809 1.471.7349 2.3297.9247 1.4331 2.5877 2.2922 4.947 2.2922s4.0223-.859 4.947-2.2922c.554-.8586.7348-1.6992.7348-2.3297V6.6818H15.341z"/>
  </g>
</svg>
