<svg xmlns="http://www.w3.org/2000/svg" width="30" height="30">
  <g fill="none" fill-rule="evenodd">
    <path fill="#F5F6FA" d="M-918-846H522V394H-918z"/>
    <g fill="#000" fill-rule="nonzero" opacity=".296">
      <path d="M12.598 0H.878A.879.879 0 0 0 0 .879v11.719c0 .485.394.879.879.879h11.719a.879.879 0 0 0 .879-.88V.88a.879.879 0 0 0-.88-.879zm-.88 11.719h-9.96V1.758h9.96v9.96z"/>
      <path d="M8.496 4.102H4.98a.879.879 0 0 0-.878.878v3.516c0 .485.393.879.878.879h3.516a.879.879 0 0 0 .879-.879V4.98a.879.879 0 0 0-.879-.878zm-.879 3.515H5.86V5.86h1.758v1.758zM29.121 0H17.402a.879.879 0 0 0-.879.879v11.719c0 .485.394.879.88.879H29.12a.879.879 0 0 0 .879-.88V.88a.879.879 0 0 0-.878-.88zm-.879 11.719h-9.96V1.758h9.96v9.96z"/>
      <path d="M25.02 4.102h-3.516a.879.879 0 0 0-.879.878v3.516c0 .485.394.879.879.879h3.516a.879.879 0 0 0 .878-.879V4.98a.879.879 0 0 0-.878-.878zm-.88 3.515h-1.757V5.86h1.758v1.758zm-11.542 8.906H.878a.879.879 0 0 0-.878.88V29.12c0 .485.394.879.879.879h11.719a.879.879 0 0 0 .879-.879V17.402a.879.879 0 0 0-.88-.879zm-.88 11.72h-9.96V18.28h9.96v9.961z"/>
      <path d="M8.496 20.625H4.98a.879.879 0 0 0-.878.879v3.516c0 .485.393.878.878.878h3.516a.879.879 0 0 0 .879-.878v-3.516a.879.879 0 0 0-.879-.879zm-.879 3.516H5.86v-1.758h1.758v1.758zm21.504.623h-4.98v-3.26a.879.879 0 0 0-1.758 0v4.139c0 .485.393.879.879.879h4.98v1.72h-4.98a.879.879 0 0 0 0 1.758h5.86a.879.879 0 0 0 .878-.879v-3.478a.879.879 0 0 0-.879-.88zm0-8.241a.879.879 0 0 0-.879.88v4.1a.879.879 0 0 0 1.758 0v-4.1a.879.879 0 0 0-.879-.88zm-7.617 0h-4.102a.879.879 0 0 0-.879.88v4.1a.879.879 0 0 0 1.758 0v-3.222h3.223a.879.879 0 0 0 0-1.758zm-4.102 8.241a.879.879 0 0 0-.879.879v3.478a.879.879 0 0 0 1.758 0v-3.478a.879.879 0 0 0-.879-.88z"/>
    </g>
  </g>
</svg>
