<svg xmlns="http://www.w3.org/2000/svg" width="26" height="24">
  <path fill="#FFF" d="M14.125 0C9.75 0 5.875 2.4 3.875 6.0632 2.6037 2.9354 1.6454 1.967 1 3.1579c-.968 1.7863-.678 7.2843 0 8.2105.678.9263 6.3788.2828 7.2725-.4006.5958-.4557-.2867-1.501-2.6475-3.1362 1.625-3.158 4.75-5.3053 8.5-5.3053C19.25 2.5263 23.5 6.8211 23.5 12c0 5.179-4.25 9.4737-9.375 9.4737-4.125 0-7.5-2.6526-8.875-6.3158H2.625C4 20.2105 8.625 24 14.125 24 20.75 24 26 18.5684 26 12S20.625 0 14.125 0zM12.25 12.7579c3.0807 1.8596 5.039 3.0385 5.875 3.5368 1.254.7475 2.2402-.7945 1-1.642-.8268-.5651-2.4935-1.5757-5-3.0316V6.3158c0-1.2904-1.875-1.5192-1.875.2765v6.1656z" opacity=".9"/>
</svg>
