<svg xmlns="http://www.w3.org/2000/svg" width="40" height="40" viewBox="0 0 40 40">
    <g fill="#3172FD" fill-rule="nonzero">
        <path d="M20 8.889c2.689 0 4.889-2 4.889-4.445C24.889 2 22.689 0 20 0s-4.889 2-4.889 4.444c0 2.445 2.2 4.445 4.889 4.445z"/>
        <path d="M27.097.889c0 .255.716 1.828.716 4.052 0 1.51-.326 2.825-.977 3.945.724.456 1.577 1.37 2.08 1.84 2.41 2.4 3.614 5.52 3.614 9.119s-1.205 6.718-3.614 9.118c-2.41 2.399-5.302 3.599-8.916 3.599-3.614 0-6.506-1.2-8.916-3.6-2.41-2.399-3.614-5.518-3.614-9.117 0-3.6 1.205-6.719 3.614-9.118.482-.48 1.576-1.267 1.876-1.461-.977-1.73-1.465-3.261-1.465-4.595 0-1.333.322-2.594.965-3.782-2.41.96-4.75 2.4-6.677 4.319C1.928 9.287 0 14.086 0 19.845c0 5.518 1.928 10.317 5.783 14.396C9.64 38.081 14.458 40 20 40s10.361-1.92 14.217-5.759C38.072 30.402 40 25.603 40 19.845c0-5.52-1.928-10.318-5.783-14.157-1.956-1.814-4.535-3.757-7.12-4.8z"/>
    </g>
</svg>
