<svg xmlns="http://www.w3.org/2000/svg" width="36" height="33">
  <g fill="#FFF">
    <path d="M24 0c-5.8167 0-12 1.8738-12 5.3476v4.278c0 .5904.4887 1.0696 1.091 1.0696.602 0 1.0908-.4792 1.0908-1.0695V8.5112c2.315 1.431 6.1375 2.184 9.8182 2.184 3.6807 0 7.5033-.753 9.8182-2.184v1.1145c0 1.046-2.6837 2.7144-7.728 3.1272-.5978.0471-1.0451.5669-.995 1.1551.0459.5583.5237.9797 1.0844.9797.0328 0 .0611-.0021.0939-.0043 2.8407-.2331 5.6705-.954 7.5447-2.124v1.1443c0 .9134-1.9767 2.2268-5.6444 2.862-.5913.1027-.9883.6589-.8836 1.2386.0938.5176.5542.8834 1.0713.8834a.9712.9712 0 0 0 .192-.0171c2.2189-.3829 3.9949-1.0096 5.2647-1.8054v1.1166c0 .9134-1.9767 2.2268-5.6444 2.862-.5913.1027-.9883.6589-.8836 1.2386.0938.5176.5542.8834 1.0713.8834a.9712.9712 0 0 0 .192-.0171c2.2189-.383 3.9949-1.0118 5.2647-1.8054V22.46c0 .9134-1.9767 2.2267-5.6444 2.862-.5913.1027-.9883.6588-.8836 1.2385.0938.5177.5542.8835 1.0713.8835a.9712.9712 0 0 0 .192-.0172c2.2189-.3828 3.9949-1.0117 5.2647-1.8053v1.1166c0 1.046-2.6837 2.7144-7.728 3.1272-.5978.0471-1.0451.5669-.995 1.1551.0459.5583.5237.9797 1.0844.9797.0328 0 .0611-.0021.0939-.0043C31.1149 31.598 36 29.8203 36 26.738V5.3476C36 1.8738 29.8167 0 24 0zm0 8.5561c-5.9935 0-9.8182-1.9016-9.8182-3.2085 0-1.307 3.8247-3.2086 9.8182-3.2086 5.9935 0 9.8182 1.9016 9.8182 3.2086 0 1.307-3.8247 3.2085-9.8182 3.2085z"/>
    <path d="M12 13c-5.8167 0-12 1.9467-12 5.5556v8.8888C0 31.0534 6.1833 33 12 33s12-1.9467 12-5.5556v-8.8888C24 14.9466 17.8167 13 12 13zm9.8182 14.4444c0 1.3578-3.8247 3.3334-9.8182 3.3334-5.9935 0-9.8182-1.9756-9.8182-3.3334v-1.1577c2.315 1.4866 6.1375 2.2689 9.8182 2.2689 3.6807 0 7.5033-.7823 9.8182-2.269v1.1578zm0-4.4444c0 1.3578-3.8247 3.3333-9.8182 3.3333-5.9935 0-9.8182-1.9755-9.8182-3.3333v-1.1578c2.315 1.4867 6.1375 2.269 9.8182 2.269 3.6807 0 7.5033-.7823 9.8182-2.269V23zM12 21.8889c-5.9935 0-9.8182-1.9756-9.8182-3.3333 0-1.3578 3.8247-3.3334 9.8182-3.3334 5.9935 0 9.8182 1.9756 9.8182 3.3334 0 1.3577-3.8247 3.3333-9.8182 3.3333z"/>
  </g>
</svg>
