<svg xmlns="http://www.w3.org/2000/svg" width="28" height="24">
  <g fill="#FFF">
    <path d="M27.3341 5.5254L14.4334.0875a1.117 1.117 0 0 0-.8668 0L.666 5.5254c-.4046.1703-.6663.5614-.6659.9939.0007.4325.2639.8229.6685.9925l12.9007 5.4018a1.1174 1.1174 0 0 0 .8616 0l12.9007-5.4019c.405-.1692.6682-.56.6685-.9925.0004-.432-.2613-.8236-.6659-.9938zm-13.334 5.2203L3.8963 6.5149l10.104-4.2591 10.104 4.2591-10.104 4.2308zm13.9106 6.8577c-.2393-.5052-.8869-.7391-1.4436-.5222l-12.467 4.8409-12.467-4.8409c-.559-.2176-1.2043.0173-1.4436.5222-.2397.5049.0187 1.09.5768 1.3066l12.9002 5.0094c.1386.0538.2863.0806.4336.0806s.295-.0269.4336-.0806L27.3339 18.91c.5578-.2166.8161-.8018.5768-1.3066z"/>
    <path d="M27.9118 11.608c-.2386-.5076-.8843-.744-1.4425-.5276l-12.4694 4.833-12.469-4.833c-.5589-.2167-1.2046.02-1.4425.5276-.2382.5084.0216 1.0957.5801 1.312l12.9004 5c.1378.0533.2844.08.431.08a1.194 1.194 0 0 0 .431-.08l12.9004-5c.5585-.2163.8184-.8037.5805-1.312z"/>
  </g>
</svg>
