<svg xmlns="http://www.w3.org/2000/svg" width="25" height="32">
  <g fill="none">
    <path fill="#3172FD" d="M23.958 4.174h-3.23C20.245 1.795 18.14 0 15.625 0c-.575 0-1.042.467-1.042 1.043v3.13H1.042C.466 4.174 0 4.642 0 5.218v25.74C0 31.533.466 32 1.042 32h22.916c.576 0 1.042-.467 1.042-1.043V5.217c0-.576-.466-1.043-1.042-1.043zM2.083 6.26h12.5v6.26H5.208a1.043 1.043 0 0 0 0 2.088h9.375v7.03a7.187 7.187 0 0 0-2.98 1.134 9.477 9.477 0 0 0-2.775-3.445 9.278 9.278 0 0 0-5.703-1.937c-.349 0-.697.02-1.042.059V6.26zm14.584 23.652H2.083v-10.36c.344-.05.692-.075 1.042-.075a7.32 7.32 0 0 1 7.017 5.31 1.041 1.041 0 0 0 1.749.444 5.162 5.162 0 0 1 2.692-1.476v.94c0 .576.467 1.043 1.042 1.043h1.042a2.087 2.087 0 0 1 0 4.174zm2.083-5.7a4.136 4.136 0 0 0-2.083-.56V2.265a3.136 3.136 0 0 1 2.083 2.951v18.995zm4.167 5.7h-2.644c.356-.614.56-1.327.56-2.087V6.261h2.084v23.652z"/>
    <path fill="#277BD1" d="M9.833 9H5.167C4.522 9 4 9.448 4 10s.522 1 1.167 1h4.666c.645 0 1.167-.448 1.167-1s-.522-1-1.167-1z"/>
  </g>
</svg>
