<svg xmlns="http://www.w3.org/2000/svg" width="32" height="32">
  <g fill="#3172FD">
    <circle cx="15.5" cy="23.5" r="1.5"/>
    <path d="M16 0C7.157 0 0 7.156 0 16c0 8.843 7.156 16 16 16 8.843 0 16-7.156 16-16 0-8.843-7.156-16-16-16zm0 29.5C8.539 29.5 2.5 23.462 2.5 16 2.5 8.539 8.538 2.5 16 2.5c7.461 0 13.5 6.038 13.5 13.5 0 7.461-6.038 13.5-13.5 13.5z"/>
    <path d="M16 8c-2.757 0-5 2.222-5 4.952 0 .684.56 1.238 1.25 1.238s1.25-.554 1.25-1.238c0-1.365 1.121-2.476 2.5-2.476 1.378 0 2.5 1.111 2.5 2.476 0 1.366-1.122 2.477-2.5 2.477-.69 0-1.25.554-1.25 1.238v3.095c0 .684.56 1.238 1.25 1.238s1.25-.554 1.25-1.238v-2.014c2.154-.551 3.75-2.492 3.75-4.796C21 10.222 18.757 8 16 8z"/>
  </g>
</svg>
