<svg xmlns="http://www.w3.org/2000/svg" width="36" height="33">
  <g fill="#3172FD">
    <path d="M24 0c-5.817 0-12 1.874-12 5.348v4.278c0 .59.489 1.07 1.09 1.07.603 0 1.092-.48 1.092-1.07V8.51c2.315 1.431 6.137 2.184 9.818 2.184 3.68 0 7.503-.753 9.818-2.184v1.115c0 1.046-2.683 2.714-7.728 3.127a1.076 1.076 0 0 0-.995 1.155c.046.558.524.98 1.085.98.032 0 .06-.002.093-.005 2.841-.233 5.671-.954 7.545-2.124v1.145c0 .913-1.977 2.226-5.644 2.862a1.073 1.073 0 0 0-.884 1.238 1.087 1.087 0 0 0 1.263.867c2.22-.383 3.995-1.01 5.265-1.806v1.117c0 .913-1.977 2.227-5.644 2.862a1.073 1.073 0 0 0-.884 1.238 1.087 1.087 0 0 0 1.263.867c2.22-.383 3.995-1.012 5.265-1.806v1.117c0 .913-1.977 2.227-5.644 2.862a1.073 1.073 0 0 0-.884 1.238 1.087 1.087 0 0 0 1.263.867c2.22-.383 3.995-1.012 5.265-1.806v1.117c0 1.046-2.683 2.714-7.728 3.127a1.076 1.076 0 0 0-.995 1.155c.046.559.524.98 1.085.98.032 0 .06-.002.093-.004C31.115 31.598 36 29.82 36 26.738V5.348C36 1.874 29.817 0 24 0zm0 8.556c-5.993 0-9.818-1.901-9.818-3.208 0-1.307 3.825-3.209 9.818-3.209 5.993 0 9.818 1.902 9.818 3.209 0 1.307-3.825 3.208-9.818 3.208z"/>
    <path d="M12 13c-5.817 0-12 1.947-12 5.556v8.888C0 31.054 6.183 33 12 33s12-1.947 12-5.556v-8.888C24 14.946 17.817 13 12 13zm9.818 14.444c0 1.358-3.825 3.334-9.818 3.334-5.993 0-9.818-1.976-9.818-3.334v-1.157c2.315 1.486 6.137 2.269 9.818 2.269 3.68 0 7.503-.783 9.818-2.27v1.158zm0-4.444c0 1.358-3.825 3.333-9.818 3.333-5.993 0-9.818-1.975-9.818-3.333v-1.158c2.315 1.487 6.137 2.27 9.818 2.27 3.68 0 7.503-.783 9.818-2.27V23zM12 21.889c-5.993 0-9.818-1.976-9.818-3.333 0-1.358 3.825-3.334 9.818-3.334 5.993 0 9.818 1.976 9.818 3.334 0 1.357-3.825 3.333-9.818 3.333z"/>
  </g>
</svg>
