<?xml version="1.0" encoding="UTF-8"?>
<svg width="400px" height="52px" viewBox="0 0 400 52" version="1.1" xmlns="http://www.w3.org/2000/svg" xmlns:xlink="http://www.w3.org/1999/xlink">
    <!-- Generator: Sketch 51.2 (57519) - http://www.bohemiancoding.com/sketch -->
    <title>400x52px_1</title>
    <desc>Created with Sketch.</desc>
    <defs></defs>
    <g id="Page-1" stroke="none" stroke-width="1" fill="none" fill-rule="evenodd">
        <g id="400x52px_1" fill="#FFFFFF" fill-rule="nonzero">
            <g id="Logo_Ongrid-01" transform="translate(45.128114, 0.000000)">
                <g id="Group" transform="translate(0.000000, 1.000000)">
                    <path d="M22.6467503,13.9077968 C24.5197603,16.0042058 25.4562652,18.5664833 25.4562652,22.0604982 L25.4562652,38.5988353 L18.432478,38.5988353 L18.432478,22.9922355 C18.432478,19.4982206 16.3253418,17.4018117 13.0475745,17.4018117 C9.5356808,17.4018117 7.19441843,19.4982206 7.19441843,24.1569071 L7.19441843,38.5988353 L0.1706312,38.5988353 L0.1706312,11.8113879 L7.19441843,11.8113879 L7.19441843,14.8395341 C8.83330212,12.2772566 11.642817,11.1125849 15.1547106,11.1125849 C18.432478,11.1125849 20.7737404,12.0443222 22.6467503,13.9077968 Z" id="Shape"></path>
                    <path d="M68.7696198,18.5664833 L68.7696198,21.3616952 C68.7696198,26.7191847 67.1307361,31.1449369 63.6188425,34.4060175 C60.1069489,37.667098 55.6585503,39.2976383 50.2736468,39.2976383 C44.4204907,39.2976383 39.5038397,37.4341637 35.7578198,33.7072145 C32.0118,29.9802653 30.13879,25.3215788 30.13879,19.9640893 C30.13879,14.6065998 32.0118,9.9479133 35.7578198,5.98802976 C39.5038397,2.26108056 44.1863645,0.39760595 49.8053943,0.39760595 C56.8291815,0.39760595 62.9164638,3.89162083 66.1942311,9.016176 L59.8728226,12.7431252 C57.9998127,9.714979 54.2537928,7.61857004 49.8053943,7.61857004 C46.2935007,7.61857004 43.2498595,8.78324167 40.9085971,11.1125849 C38.5673347,13.4419282 37.3967035,16.4700744 37.3967035,19.9640893 C37.3967035,23.4581042 38.5673347,26.4862504 40.9085971,28.8155937 C43.2498595,31.1449369 46.2935007,32.3096085 50.2736468,32.3096085 C56.1268028,32.3096085 59.8728226,29.5143966 61.2775801,25.0886445 L49.8053943,25.0886445 L49.8053943,18.5664833 L68.7696198,18.5664833 Z" id="Shape"></path>
                    <path d="M80.7100581,16.4700744 C82.1148155,12.9760595 85.1584566,11.3455192 88.9044765,11.3455192 L88.9044765,19.032352 C86.7973403,18.7994177 84.9243304,19.2652863 83.2854467,20.4299579 C81.646563,21.5946296 80.7100581,23.4581042 80.7100581,26.0203818 L80.7100581,38.5988353 L73.6862708,38.5988353 L73.6862708,11.8113879 L80.7100581,11.8113879 L80.7100581,16.4700744 Z" id="Shape"></path>
                    <path d="M92.1822439,4.35748949 C92.1822439,2.02814623 94.0552538,0.16467163 96.3965162,0.16467163 C98.7377786,0.16467163 100.610789,2.26108056 100.610789,4.35748949 C100.610789,6.68683274 98.7377786,8.55030734 96.3965162,8.55030734 C94.0552538,8.55030734 92.1822439,6.68683274 92.1822439,4.35748949 Z M92.8846226,38.5988353 L92.8846226,11.8113879 L99.90841,11.8113879 L99.90841,38.5988353 L92.8846226,38.5988353 Z" id="Shape"></path>
                    <path d="M126.598801,1.09640893 L133.622588,1.09640893 L133.622588,38.5988353 L126.598801,38.5988353 L126.598801,35.3377548 C124.491665,37.9000324 121.68215,39.2976383 117.93613,39.2976383 C114.424237,39.2976383 111.146469,37.9000324 108.571081,35.3377548 C105.995692,32.5425429 104.825061,29.2814623 104.825061,25.3215788 C104.825061,21.3616952 106.229818,18.1006147 108.571081,15.3054028 C111.146469,12.5101909 114.190111,11.1125849 117.93613,11.1125849 C121.68215,11.1125849 124.725791,12.5101909 126.598801,15.0724685 L126.598801,1.09640893 Z M119.106762,32.7754772 C121.213898,32.7754772 123.086908,32.0766742 124.491665,30.6790683 C125.896423,29.2814623 126.598801,27.4179877 126.598801,25.3215788 C126.598801,23.2251698 125.896423,21.3616952 124.491665,19.9640893 C123.086908,18.333549 121.448024,17.634746 119.106762,17.634746 C116.765499,17.634746 115.126615,18.333549 113.721858,19.731155 C112.317101,21.1287609 111.614722,22.9922355 111.614722,25.0886445 C111.614722,27.1850534 112.317101,29.048528 113.721858,30.4461339 C115.360742,32.0766742 116.999625,32.7754772 119.106762,32.7754772 Z" id="Shape"></path>
                </g>
                <g id="Systems" transform="translate(152.000000, 0.000000)">
                    <g id="path-1-link">
                        <path d="M5.669493,27.199177 C5.792197,29.379156 6.309297,31.1492724 7.220808,32.5095792 C8.956186,35.0557946 12.014963,36.3288832 16.397231,36.3288832 C18.360487,36.3288832 20.148425,36.0498501 21.7611,35.4917755 C24.881274,34.410506 26.441338,32.4747137 26.441338,29.6843406 C26.441338,27.5915608 25.784008,26.1004776 24.469328,25.2110462 C23.137118,24.3390546 21.05119,23.5804333 18.211481,22.9351595 L12.979079,21.7579768 C9.560911,20.9906242 7.141935,20.1448051 5.72208,19.220494 C3.268011,17.6160295 2.040994,15.2180886 2.040994,12.0265994 C2.040994,8.57351274 3.241717,5.73958261 5.6432,3.524724 C8.044683,1.30986538 11.445271,0.202452685 15.845068,0.202452685 C19.894283,0.202452685 23.334312,1.17470871 26.165257,3.11924994 C28.996202,5.06379116 30.411653,8.17239452 30.411653,12.4451533 L25.494773,12.4451533 C25.231837,10.3872531 24.670915,8.80897205 23.811991,7.71026266 C22.216845,5.70468202 19.508645,4.70190675 15.687307,4.70190675 C12.602191,4.70190675 10.384797,5.34717084 9.035058,6.63771838 C7.68532,7.92826592 7.010461,9.42806894 7.010461,11.1371724 C7.010461,13.0206743 7.799257,14.3984003 9.376873,15.2703919 C10.411089,15.8284665 12.751184,16.5260493 16.397231,17.3631612 L21.813687,18.5926632 C24.425518,19.1856175 26.441331,19.9965575 27.861186,21.0255075 C30.315256,22.8218102 31.542272,25.4290259 31.542272,28.8472329 C31.542272,33.1025518 29.986591,36.1457568 26.875181,37.9769391 C23.763771,39.8081214 20.148454,40.7236988 16.029122,40.7236988 C11.226157,40.7236988 7.466228,39.5029289 4.749222,37.0613525 C2.032216,34.6372159 0.700027,31.349857 0.752614,27.199177 L5.669493,27.199177 Z M55.127519,11.5818859 L60.35992,11.5818859 C59.693815,13.3781886 58.212631,17.4764875 55.916323,23.8769057 C54.198474,28.6902993 52.761112,32.6142025 51.604193,35.6487332 C48.869658,42.7990642 46.941489,47.1589567 45.819629,48.7285415 C44.697768,50.2981264 42.769599,51.082907 40.035064,51.082907 C39.36896,51.082907 38.856242,51.0567477 38.496896,51.0044282 C38.13755,50.9521087 37.694948,50.856191 37.169076,50.7166724 L37.169076,46.4264953 C37.992942,46.6532131 38.588922,46.7927296 38.957032,46.8450491 C39.325142,46.8973686 39.649425,46.923528 39.929891,46.923528 C40.806344,46.923528 41.450528,46.7796515 41.862461,46.4918943 C42.274394,46.2041371 42.620588,45.8509858 42.901053,45.4324298 C42.988698,45.2929112 43.304217,44.5778888 43.847618,43.2873413 C44.391019,41.9967937 44.785418,41.0376174 45.030825,40.4097834 L34.618609,11.5818859 L39.982477,11.5818859 L47.528705,34.3930716 L55.127519,11.5818859 Z M67.275104,30.8092041 C67.415336,32.378789 67.809735,33.5821193 68.45831,34.4192312 C69.650287,35.9364966 71.718686,36.6951179 74.66357,36.6951179 C76.416477,36.6951179 77.959012,36.3158072 79.291222,35.5571746 C80.623431,34.7985419 81.289526,33.6257308 81.289526,32.0387061 C81.289526,30.8353577 80.754897,29.9197803 79.685624,29.2919464 C79.00199,28.9082701 77.652272,28.463561 75.636429,27.9578059 L71.876462,27.0160597 C69.474979,26.4231055 67.70457,25.7604018 66.56518,25.0279289 C64.531808,23.7548212 63.515137,21.9934246 63.515137,19.7436863 C63.515137,17.0928319 64.474839,14.9477648 66.394272,13.3084206 C68.313706,11.6690764 70.894823,10.8494167 74.137701,10.8494167 C78.379736,10.8494167 81.438513,12.0876261 83.314123,14.5640822 C84.488571,16.1336671 85.058257,17.8253054 85.023199,19.6390478 L80.553308,19.6390478 C80.465663,18.5752181 80.088794,17.607322 79.422689,16.7353304 C78.335887,15.4971023 76.45154,14.8779976 73.769592,14.8779976 C71.981627,14.8779976 70.627526,15.2180692 69.70725,15.8982227 C68.786974,16.5783761 68.326843,17.476514 68.326843,18.5926632 C68.326843,19.8134514 68.931587,20.7900673 70.141093,21.5225402 C70.842255,21.958536 71.876455,22.3422066 73.243722,22.6735634 L76.372646,23.4321923 C79.773286,24.2518643 82.052031,25.0453648 83.208949,25.8127174 C85.049502,27.0160657 85.969764,28.9082591 85.969764,31.4893542 C85.969764,33.9832501 85.018826,36.137037 83.116922,37.9507795 C81.215018,39.764522 78.318382,40.6713796 74.426929,40.6713796 C70.237481,40.6713796 67.27073,39.7252829 65.526588,37.8330612 C63.782445,35.9408395 62.849036,33.5995772 62.726333,30.8092041 L67.275104,30.8092041 Z M92.332785,3.76016055 L97.118197,3.76016055 L97.118197,11.5818859 L101.614381,11.5818859 L101.614381,15.4273496 L97.118197,15.4273496 L97.118197,33.7129216 C97.118197,34.6895522 97.451245,35.343536 98.117349,35.6748928 C98.48546,35.866731 99.098968,35.9626486 99.957892,35.9626486 C100.18577,35.9626486 100.431174,35.9582887 100.69411,35.9495688 C100.957046,35.9408489 101.2638,35.9190494 101.614381,35.8841698 L101.614381,39.5988353 C101.07098,39.7557938 100.505676,39.869151 99.918452,39.9389103 C99.331228,40.0086697 98.695809,40.0435488 98.012175,40.0435488 C95.803512,40.0435488 94.304799,39.4811227 93.515991,38.3562535 C92.727183,37.2313844 92.332785,35.7708204 92.332785,33.9745178 L92.332785,15.4273496 L88.520231,15.4273496 L88.520231,11.5818859 L92.332785,11.5818859 L92.332785,3.76016055 Z M118.074096,10.9540551 C120.07241,10.9540551 122.009343,11.4205636 123.884954,12.3535946 C125.760565,13.2866256 127.189162,14.4943158 128.17079,15.9767015 C129.11736,17.3893279 129.748397,19.0373672 130.06392,20.9208691 C130.344386,22.2114166 130.484616,24.2692859 130.484616,27.0945386 L109.844239,27.0945386 C109.931884,29.9372311 110.606743,32.2174549 111.868836,33.9352783 C113.130929,35.6531017 115.085391,36.5120006 117.732281,36.5120006 C120.20388,36.5120006 122.175871,35.7010606 123.648313,34.0791562 C124.489708,33.1374053 125.085688,32.0474322 125.436269,30.8092041 L130.090214,30.8092041 C129.96751,31.8381542 129.559966,32.9848059 128.867567,34.2491937 C128.175169,35.5135815 127.399519,36.546876 126.540595,37.3491083 C125.103211,38.7442948 123.324037,39.6860316 121.20302,40.1743469 C120.06363,40.4533842 118.775263,40.5929008 117.337879,40.5929008 C113.832065,40.5929008 110.860932,39.324172 108.424391,36.7866765 C105.98785,34.249181 104.769598,30.6958686 104.769598,26.1266328 C104.769598,21.6271562 105.996615,17.9735663 108.450685,15.1657534 C110.904754,12.3579405 114.112526,10.9540551 118.074096,10.9540551 Z M125.620323,23.3537134 C125.427504,21.3132531 124.980519,19.6826533 124.279356,18.4618651 C122.982205,16.194687 120.817397,15.0611149 117.784868,15.0611149 C115.611263,15.0611149 113.788267,15.8415357 112.315825,17.4024006 C110.843383,18.9632655 110.063351,20.9470166 109.975706,23.3537134 L125.620323,23.3537134 Z M136.295474,11.5818859 L140.975712,11.5818859 L140.975712,15.5581476 C142.097573,14.1804009 143.114244,13.1776257 144.025755,12.5497917 C145.585843,11.485962 147.356252,10.9540551 149.337037,10.9540551 C151.580758,10.9540551 153.386225,11.5034016 154.753493,12.602111 C155.524772,13.2299449 156.225924,14.1542421 156.856971,15.3750303 C157.908715,13.8752048 159.144496,12.7634322 160.564351,12.0396792 C161.984205,11.3159262 163.579327,10.9540551 165.349763,10.9540551 C169.136042,10.9540551 171.712777,12.3143416 173.080044,15.0349553 C173.816265,16.4999012 174.18437,18.4705726 174.18437,20.9470287 L174.18437,39.5988353 L169.267491,39.5988353 L169.267491,20.1360806 C169.267491,18.2700186 168.798595,16.9882102 167.86079,16.2906169 C166.922985,15.5930236 165.77923,15.2442322 164.429491,15.2442322 C162.57141,15.2442322 160.971906,15.863337 159.630932,17.101565 C158.289958,18.3397931 157.619482,20.4063821 157.619482,23.3013942 L157.619482,39.5988353 L152.807776,39.5988353 L152.807776,21.3132633 C152.807776,19.4123217 152.579901,18.0258758 152.124145,17.1538843 C151.405454,15.8458969 150.0645,15.191913 148.101244,15.191913 C146.313279,15.191913 144.687482,15.880776 143.223804,17.2585227 C141.760127,18.6362694 141.028299,21.1301279 141.028299,24.7401731 L141.028299,39.5988353 L136.295474,39.5988353 L136.295474,11.5818859 Z M183.965543,30.8092041 C184.105775,32.378789 184.500174,33.5821193 185.148749,34.4192312 C186.340726,35.9364966 188.409125,36.6951179 191.354009,36.6951179 C193.106916,36.6951179 194.649451,36.3158072 195.981661,35.5571746 C197.31387,34.7985419 197.979965,33.6257308 197.979965,32.0387061 C197.979965,30.8353577 197.445336,29.9197803 196.376063,29.2919464 C195.692429,28.9082701 194.342711,28.463561 192.326868,27.9578059 L188.566901,27.0160597 C186.165418,26.4231055 184.395009,25.7604018 183.255619,25.0279289 C181.222247,23.7548212 180.205576,21.9934246 180.205576,19.7436863 C180.205576,17.0928319 181.165278,14.9477648 183.084711,13.3084206 C185.004145,11.6690764 187.585262,10.8494167 190.82814,10.8494167 C195.070175,10.8494167 198.128952,12.0876261 200.004562,14.5640822 C201.17901,16.1336671 201.748696,17.8253054 201.713638,19.6390478 L197.243747,19.6390478 C197.156102,18.5752181 196.779233,17.607322 196.113128,16.7353304 C195.026326,15.4971023 193.141979,14.8779976 190.460031,14.8779976 C188.672066,14.8779976 187.317965,15.2180692 186.397689,15.8982227 C185.477413,16.5783761 185.017282,17.476514 185.017282,18.5926632 C185.017282,19.8134514 185.622026,20.7900673 186.831532,21.5225402 C187.532694,21.958536 188.566894,22.3422066 189.934162,22.6735634 L193.063085,23.4321923 C196.463725,24.2518643 198.74247,25.0453648 199.899388,25.8127174 C201.739941,27.0160657 202.660203,28.9082591 202.660203,31.4893542 C202.660203,33.9832501 201.709265,36.137037 199.807361,37.9507795 C197.905457,39.764522 195.008822,40.6713796 191.117368,40.6713796 C186.92792,40.6713796 183.961169,39.7252829 182.217027,37.8330612 C180.472884,35.9408395 179.539475,33.5995772 179.416772,30.8092041 L183.965543,30.8092041 Z" id="path-1"></path>
                    </g>
                </g>
            </g>
            <g id="Group-36-Copy-2">
                <path d="M19.7145372,9.05424875 C22.0370458,9.05424875 23.9372801,7.12910347 23.9372801,4.77614814 C23.9372801,2.42319281 22.0370458,0.498047533 19.7145372,0.498047533 C17.3920286,0.498047533 15.4917942,2.42319281 15.4917942,4.77614814 C15.4917942,7.12910347 17.3920286,9.05424875 19.7145372,9.05424875 Z" id="Oval-9_1_"></path>
                <path d="M27.0003444,1.08548821 C27.0003444,1.34341222 27.7142556,2.93249347 27.7142556,5.17875402 C27.7142556,6.70479781 27.389649,8.03335482 26.7404359,9.16442505 C27.4621946,9.6246975 28.3120241,10.548661 28.8127599,11.0240318 C31.2138233,13.4480669 32.4143549,16.5993124 32.4143549,20.2353649 C32.4143549,23.8714175 31.2138233,27.022663 28.8127599,29.4466981 C26.4116966,31.8707331 23.5304206,33.0827506 19.9288256,33.0827506 C16.3272306,33.0827506 13.4459546,31.8707331 11.0448913,29.4466981 C8.64382798,27.022663 7.44329632,23.8714175 7.44329632,20.2353649 C7.44329632,16.5993124 8.64382798,13.4480669 11.0448913,11.0240318 C11.525104,10.5392248 12.6145223,9.74452932 12.9143319,9.54795009 C11.9408261,7.80106316 11.4540733,6.25399512 11.4540733,4.90674594 C11.4540733,3.55949677 11.7745991,2.28574419 12.4156508,1.08548821 C10.0145875,2.05510223 7.68340265,3.50952324 5.76255199,5.44875127 C1.92085066,9.56961082 0,14.4176809 0,20.2353649 C0,25.8106455 1.92085066,30.6587156 5.76255199,34.7795751 C9.60425331,38.6580312 14.40638,40.5972592 19.9288256,40.5972592 C25.4512713,40.5972592 30.2533979,38.6580312 34.0950993,34.7795751 C37.9368006,30.9011191 39.8576512,26.053049 39.8576512,20.2353649 C39.8576512,14.6600844 37.9368006,9.81201432 34.0950993,5.93355827 C32.1465631,4.10084515 29.5765237,2.13859199 27.0003444,1.08548821 Z" id="Shape"></path>
            </g>
        </g>
    </g>
</svg>