<?xml version="1.0" encoding="UTF-8"?>
<svg xmlns="http://www.w3.org/2000/svg" width="21" height="21">
  <path fill="rgba(255,255,255,.4)" fill-rule="nonzero" d="M10.4025.5h-.005C4.8837.5.4 4.985.4 10.5c0 2.1875.705 4.215 1.9037 5.8613l-1.2462 3.715 3.8437-1.2288C6.4825 19.895 8.3687 20.5 10.4025 20.5c5.5137 0 9.9975-4.4863 9.9975-10S15.9162.5 10.4025.5zm5.8187 14.1212c-.2412.6813-1.1987 1.2463-1.9625 1.4113-.5225.1113-1.205.2-3.5025-.7525-2.9387-1.2175-4.8312-4.2038-4.9787-4.3975C5.6362 10.6887 4.59 9.3012 4.59 7.8662c0-1.435.7287-2.1337 1.0225-2.4337.2412-.2463.64-.3588 1.0225-.3588.1237 0 .235.0063.335.0113.2937.0125.4412.03.635.4937.2412.5813.8287 2.0163.8987 2.1638.0713.1475.1425.3475.0425.5412-.0937.2-.1762.2888-.3237.4588-.1475.17-.2875.3-.435.4825-.135.1587-.2875.3287-.1175.6225.17.2875.7575 1.2462 1.6225 2.0162 1.1162.9938 2.0212 1.3113 2.345 1.4463.2412.1.5287.0762.705-.1113.2237-.2412.5-.6412.7813-1.035.2-.2825.4524-.3175.7174-.2175.27.0938 1.6988.8 1.9925.9463.2938.1475.4875.2175.5588.3412.07.1238.07.705-.1713 1.3875z" />
</svg>
