<?xml version="1.0" encoding="UTF-8"?>
<svg width="23px" height="18px" viewBox="0 0 23 18" version="1.1" xmlns="http://www.w3.org/2000/svg" xmlns:xlink="http://www.w3.org/1999/xlink">
    <!-- Generator: Sketch 48.2 (47327) - http://www.bohemiancoding.com/sketch -->
    <title>Shape</title>
    <desc>Created with Sketch.</desc>
    <defs></defs>
    <g id="Выбранный-вариант-10" stroke="none" stroke-width="1" fill="none" fill-rule="evenodd" transform="translate(-1198.000000, -4309.000000)">
        <g id="Group-18" transform="translate(221.000000, 4309.000000)" fill="#316FDF">
            <path d="M999.911,9.42125 C999.861,9.55025 999.787,9.67225 999.683,9.77725 L991.731,17.72825 C991.332,18.12925 990.684,18.12925 990.285,17.72825 C989.886,17.33025 989.886,16.68225 990.285,16.28425 L996.552,10.01625 L978,10.01625 C977.448,10.01625 977,9.56825 977,9.01625 C977,8.46425 977.448,8.01625 978,8.01625 L996.556,8.01625 L990.285,1.74525 C989.886,1.34525 989.886,0.69825 990.285,0.29925 C990.684,-0.09975 991.332,-0.09975 991.731,0.29925 L999.683,8.25125 C999.789,8.35725 999.862,8.48125 999.912,8.61325 C999.967,8.73725 1000,8.87225 1000,9.01625 C1000,9.16125 999.966,9.29725 999.911,9.42125 L999.911,9.42125 Z" id="Shape"></path>
        </g>
    </g>
</svg>