<?xml version="1.0" encoding="UTF-8"?>
<svg width="200px" height="38px" viewBox="0 0 200 38" version="1.1" xmlns="http://www.w3.org/2000/svg" xmlns:xlink="http://www.w3.org/1999/xlink">
    <!-- Generator: Sketch 48.2 (47327) - http://www.bohemiancoding.com/sketch -->
    <title>токен 3</title>
    <desc>Created with Sketch.</desc>
    <defs></defs>
    <g id="Выбранный-вариант-10" stroke="none" stroke-width="1" fill="none" fill-rule="evenodd" transform="translate(-220.000000, -20.000000)">
        <g id="токен-3" transform="translate(220.000000, 20.000000)">
            <g id="Group-5" transform="translate(45.000000, 13.000000)" fill="#FFFFFF">
                <polyline id="Fill-1" points="0.619377395 0.769720767 2.16871749 0.769720767 2.16871749 10.2673907 8.04071645 10.2673907 8.04071645 11.6151014 0.619377395 11.6151014 0.619377395 0.769720767"></polyline>
                <path d="M16.6630093,9.81808211 C17.2982387,9.45656942 17.7989768,8.95819836 18.165654,8.32275373 C18.5325463,7.6875243 18.7158849,6.97762527 18.7158849,6.1924111 C18.7158849,5.40762731 18.5325463,4.69729791 18.165654,4.06206847 C17.7989768,3.42705422 17.2982387,2.92868315 16.6630093,2.56695528 C16.0277798,2.20565778 15.3125012,2.02468624 14.5169581,2.02468624 C13.7216301,2.02468624 13.001187,2.20565778 12.3556286,2.56695528 C11.7100702,2.92868315 11.2039525,3.42705422 10.8374905,4.06206847 C10.4708134,4.69729791 10.2874748,5.40762731 10.2874748,6.1924111 C10.2874748,6.97762527 10.4708134,7.6875243 10.8374905,8.32275373 C11.2039525,8.95819836 11.7100702,9.45656942 12.3556286,9.81808211 C13.001187,10.1795948 13.7216301,10.360136 14.5169581,10.360136 C15.3125012,10.360136 16.0277798,10.1795948 16.6630093,9.81808211 Z M11.5577185,11.0186055 C10.6797591,10.5383101 9.99030274,9.87467606 9.48956463,9.02770348 C8.98839615,8.18094608 8.73813468,7.23584862 8.73813468,6.1924111 C8.73813468,5.14918877 8.98839615,4.2043065 9.48956463,3.35711873 C9.99030274,2.51036133 10.6797591,1.84651213 11.5577185,1.3662167 C12.435893,0.885921274 13.4220911,0.645773559 14.5169581,0.645773559 C15.6014961,0.645773559 16.58296,0.885921274 17.4609194,1.3662167 C18.3386636,1.84651213 19.0257529,2.50777909 19.5215418,3.34937203 C20.0173306,4.19139533 20.265225,5.13885984 20.265225,6.1924111 C20.265225,7.24617755 20.0173306,8.19385725 19.5215418,9.03545018 C19.0257529,9.87747348 18.3386636,10.5383101 17.4609194,11.0186055 C16.58296,11.4989009 15.6014961,11.7390486 14.5169581,11.7390486 C13.4220911,11.7390486 12.435893,11.4989009 11.5577185,11.0186055 Z" id="Fill-2"></path>
                <polyline id="Fill-3" points="31.9627427 0.769720767 31.9627427 11.6151014 30.6920687 11.6151014 24.1848403 3.52754614 24.1848403 11.6151014 22.6355002 11.6151014 22.6355002 0.769720767 23.905959 0.769720767 30.4131874 8.85727607 30.4131874 0.769720767 31.9627427 0.769720767"></polyline>
                <path d="M42.7306564,6.1304375 L44.2178077,6.1304375 L44.2178077,10.360136 C43.6807031,10.8044953 43.0558026,11.1453501 42.3431062,11.3827004 C41.6304097,11.6202659 40.8867265,11.7390486 40.1120564,11.7390486 C39.0171894,11.7390486 38.0307762,11.4989009 37.1528169,11.0186055 C36.2748575,10.5383101 35.5854011,9.87747348 35.0844478,9.03545018 C34.5832793,8.19385725 34.3330179,7.24617755 34.3330179,6.1924111 C34.3330179,5.13885984 34.5832793,4.1888131 35.0844478,3.34162533 C35.5854011,2.49486793 36.2774397,1.83381615 37.1605636,1.35847 C38.0436874,0.883554227 39.0378473,0.645773559 40.1430432,0.645773559 C41.0106737,0.645773559 41.7982549,0.788011588 42.5057869,1.07184209 C43.2133189,1.35610296 43.8149793,1.77184255 44.3107681,2.31906086 L43.3503924,3.27965172 C42.4825468,2.44300807 41.43416,2.02468624 40.2050168,2.02468624 C39.3787021,2.02468624 38.6376011,2.20286036 37.9817138,2.55920858 C37.3256113,2.9155568 36.811962,3.41134563 36.4401204,4.04657507 C36.0682788,4.68180451 35.882358,5.39729837 35.882358,6.1924111 C35.882358,6.97762527 36.0682788,7.6875243 36.4401204,8.32275373 C36.811962,8.95819836 37.3256113,9.45656942 37.9817138,9.81808211 C38.6376011,10.1795948 39.3735377,10.360136 40.1895234,10.360136 C41.1604432,10.360136 42.0072006,10.1277349 42.7306564,9.66293292 L42.7306564,6.1304375" id="Fill-4"></path>
                <polyline id="Fill-5" points="55.0474798 10.2673907 55.0474798 11.6151014 47.1768321 11.6151014 47.1768321 0.769720767 54.8305722 0.769720767 54.8305722 2.11764665 48.7261722 2.11764665 48.7261722 5.44894304 54.1643559 5.44894304 54.1643559 6.76566694 48.7261722 6.76566694 48.7261722 10.2673907 55.0474798 10.2673907"></polyline>
                <polyline id="Fill-6" points="66.8226797 0.769720767 62.0662056 11.6151014 60.5321437 11.6151014 55.7601762 0.769720767 57.4336787 0.769720767 61.3378006 9.67842632 65.2731244 0.769720767 66.8226797 0.769720767"></polyline>
                <polygon id="Fill-7" points="68.201162 11.6151014 69.7505021 11.6151014 69.7505021 0.769720767 68.201162 0.769720767"></polygon>
                <polyline id="Fill-8" points="75.1579142 2.11764665 71.439498 2.11764665 71.439498 0.769720767 80.409962 0.769720767 80.409962 2.11764665 76.6917609 2.11764665 76.6917609 11.6151014 75.1579142 11.6151014 75.1579142 2.11764665"></polyline>
                <polyline id="Fill-9" points="86.1272421 7.86569841 86.1272421 11.6151014 84.5931802 11.6151014 84.5931802 7.8347116 80.2860148 0.769720767 81.9438087 0.769720767 85.4143305 6.48678572 88.9003457 0.769720767 90.4341924 0.769720767 86.1272421 7.86569841"></polyline>
                <polyline id="Fill-10" points="103.858866 2.21892759 100.140449 2.21892759 100.140449 0.870786517 109.110913 0.870786517 109.110913 2.21892759 105.392712 2.21892759 105.392712 11.7161672 103.858866 11.7161672 103.858866 2.21892759"></polyline>
                <path d="M117.643976,10.0428799 C118.279205,9.6813672 118.779943,9.18299613 119.14662,8.54755151 C119.513298,7.91232207 119.696851,7.20220786 119.696851,6.41720887 C119.696851,5.63242508 119.513298,4.92209568 119.14662,4.28708143 C118.779943,3.65185199 118.279205,3.15348092 117.643976,2.79175305 C117.008746,2.43045555 116.293468,2.24948402 115.497924,2.24948402 C114.702597,2.24948402 113.982153,2.43045555 113.336595,2.79175305 C112.691037,3.15348092 112.184919,3.65185199 111.818457,4.28708143 C111.45178,4.92209568 111.268441,5.63242508 111.268441,6.41720887 C111.268441,7.20220786 111.45178,7.91232207 111.818457,8.54755151 C112.184919,9.18299613 112.691037,9.6813672 113.336595,10.0428799 C113.982153,10.4043926 114.702597,10.5849337 115.497924,10.5849337 C116.293468,10.5849337 117.008746,10.4043926 117.643976,10.0428799 Z M112.538685,11.2434033 C111.660726,10.7631078 110.971269,10.0994738 110.470531,9.25250125 C109.969363,8.40574385 109.719101,7.46064639 109.719101,6.41720887 C109.719101,5.37398654 109.969363,4.42910427 110.470531,3.5819165 C110.971269,2.7351591 111.660726,2.07130991 112.538685,1.59101448 C113.416644,1.11071905 114.403057,0.870786517 115.497924,0.870786517 C116.582463,0.870786517 117.563926,1.11071905 118.441886,1.59101448 C119.31963,2.07130991 120.006504,2.73257687 120.502508,3.5741698 C120.998297,4.4161931 121.246191,5.36387279 121.246191,6.41720887 C121.246191,7.47097533 120.998297,8.41865502 120.502508,9.26024795 C120.006504,10.1022713 119.31963,10.7631078 118.441886,11.2434033 C117.563926,11.7236987 116.582463,11.9638464 115.497924,11.9638464 C114.403057,11.9638464 113.416644,11.7236987 112.538685,11.2434033 Z" id="Fill-11"></path>
                <polyline id="Fill-12" points="127.184181 6.89793468 125.201025 8.91186161 125.201025 11.7161672 123.651685 11.7161672 123.651685 0.870786517 125.201025 0.870786517 125.201025 6.92870629 131.088518 0.870786517 132.854766 0.870786517 128.222239 5.75142301 133.149355 11.7161672 131.336627 11.7161672 127.184181 6.89793468"></polyline>
                <polyline id="Fill-13" points="142.842773 10.3684565 142.842773 11.7161672 134.97191 11.7161672 134.97191 0.870786517 142.625865 0.870786517 142.625865 2.21892759 136.521465 2.21892759 136.521465 5.54979361 141.959649 5.54979361 141.959649 6.86673269 136.521465 6.86673269 136.521465 10.3684565 142.842773 10.3684565"></polyline>
                <polyline id="Fill-14" points="154.748376 0.870786517 154.748376 11.7161672 153.477917 11.7161672 146.970688 3.62861189 146.970688 11.7161672 145.421348 11.7161672 145.421348 0.870786517 146.691807 0.870786517 153.199036 8.95834182 153.199036 0.870786517 154.748376 0.870786517"></polyline>
            </g>
            <path d="M18.9044481,27.6771005 C17.023888,27.6771005 15.1979407,27.0333608 13.7350082,25.8625206 C13.8061779,25.6734761 13.8471993,25.4691104 13.8471993,25.2551071 C13.8471993,24.3014827 13.0712521,23.5252883 12.1173806,23.5252883 C11.9923394,23.5252883 11.8705107,23.539374 11.752883,23.5645799 C11.0162273,22.3032949 10.6260297,20.8739703 10.6260297,19.398682 C10.6260297,15.4339374 13.4950577,11.9982702 17.3545305,11.2655684 C17.6372323,11.8371499 18.2248764,12.23229 18.9044481,12.23229 C19.5842669,12.23229 20.1716639,11.8371499 20.4543657,11.2655684 C24.3177924,11.9982702 27.1828666,15.4242998 27.1828666,19.398682 C27.1828666,23.9634267 23.4691928,27.6771005 18.9044481,27.6771005 Z M12.1173806,25.749341 C11.8448105,25.749341 11.6231466,25.5276771 11.6231466,25.2551071 C11.6231466,24.9827842 11.8448105,24.7608731 12.1173806,24.7608731 C12.3899506,24.7608731 12.6116145,24.9827842 12.6116145,25.2551071 C12.6116145,25.5276771 12.3899506,25.749341 12.1173806,25.749341 Z M18.9044481,10.0082372 C19.1770181,10.0082372 19.398682,10.2299012 19.398682,10.5024712 C19.398682,10.7750412 19.1770181,10.9967051 18.9044481,10.9967051 C18.6318781,10.9967051 18.4102142,10.7750412 18.4102142,10.5024712 C18.4102142,10.2299012 18.6318781,10.0082372 18.9044481,10.0082372 Z M20.5672982,10.0312191 C20.3614498,9.30593081 19.6947282,8.77265239 18.9044481,8.77265239 C18.1136738,8.77265239 17.4469522,9.30642504 17.2413509,10.0319605 C12.7465404,10.8269357 9.39044481,14.8028007 9.39044481,19.398682 C9.39044481,21.1151565 9.85131796,22.7772652 10.7191928,24.240939 C10.5116145,24.526112 10.3875618,24.8760297 10.3875618,25.2551071 C10.3875618,26.2089786 11.1635091,26.9849259 12.1173806,26.9849259 C12.4052718,26.9849259 12.6763591,26.9132619 12.9153213,26.7882208 C14.6051071,28.1584843 16.7226524,28.9126853 18.9044481,28.9126853 C24.1504942,28.9126853 28.4184514,24.6447282 28.4184514,19.398682 C28.4184514,14.7914333 25.0670511,10.8261944 20.5672982,10.0312191 Z" id="Fill-15" fill="#F2F2F2"></path>
            <path d="M23.3525535,19.7693575 C23.0799835,19.7693575 22.8583196,19.5476936 22.8583196,19.2751236 C22.8583196,19.0025535 23.0799835,18.7808896 23.3525535,18.7808896 C23.6251236,18.7808896 23.8467875,19.0025535 23.8467875,19.2751236 C23.8467875,19.5476936 23.6251236,19.7693575 23.3525535,19.7693575 Z M18.9044481,23.2289951 C16.7923394,23.2289951 15.0741351,21.5107908 15.0741351,19.398682 C15.0741351,17.2865733 16.7923394,15.568369 18.9044481,15.568369 C20.4212521,15.568369 21.7887974,16.4780066 22.3984349,17.8336903 C21.9313839,18.143575 21.6227348,18.6736409 21.6227348,19.2751236 C21.6227348,19.9114498 21.9691928,20.4672158 22.4822076,20.76771 C21.9210049,22.2308896 20.490939,23.2289951 18.9044481,23.2289951 Z M23.6283361,17.5692751 C22.8810544,15.6434926 20.9990115,14.3327842 18.9044481,14.3327842 C16.1110379,14.3327842 13.8385502,16.6052718 13.8385502,19.398682 C13.8385502,22.1920923 16.1110379,24.4645799 18.9044481,24.4645799 C21.0892092,24.4645799 23.0463756,23.0315486 23.7192751,20.9649094 C24.4974465,20.7961285 25.0823723,20.1029654 25.0823723,19.2751236 C25.0823723,18.4154036 24.4512356,17.7022241 23.6283361,17.5692751 Z" id="Fill-16" fill="#F2F2F2"></path>
            <path d="M34.9228171,26.8613674 C34.6502471,26.8613674 34.4285832,26.6397035 34.4285832,26.3671334 C34.4285832,26.0948105 34.6502471,25.8728995 34.9228171,25.8728995 C35.1953871,25.8728995 35.4170511,26.0948105 35.4170511,26.3671334 C35.4170511,26.6397035 35.1953871,26.8613674 34.9228171,26.8613674 Z M18.5337727,36.5733114 C14.3846787,36.5733114 10.4068369,35.0925865 7.27191104,32.3995058 C7.34406919,32.2092257 7.38558484,32.0038715 7.38558484,31.7883855 C7.38558484,30.834514 6.60963756,30.0585667 5.65576606,30.0585667 C5.45757825,30.0585667 5.2675453,30.0936573 5.09011532,30.1551895 C2.60313015,27.084514 1.23558484,23.2418451 1.23558484,19.2751236 C1.23558484,15.9785832 2.16400329,12.788056 3.91902801,10.0223229 C4.04085667,10.0495058 4.16688633,10.0650741 4.29662273,10.0650741 C5.25049423,10.0650741 6.02644152,9.28887974 6.02644152,8.33525535 C6.02644152,8.04859967 5.95527183,7.77874794 5.83121911,7.54028007 C9.10131796,4.00354201 13.7132619,1.97693575 18.5337727,1.97693575 C19.5214992,1.97693575 20.5079901,2.06565074 21.4757002,2.23121911 C21.6165568,3.04472817 22.3255354,3.66598023 23.1785832,3.66598023 C23.7130972,3.66598023 24.1915157,3.42207578 24.5093081,3.04003295 C31.2919275,5.53616145 35.8319605,12.0249588 35.8319605,19.2751236 C35.8319605,21.1116969 35.5430807,22.9136738 34.9801483,24.6402801 C34.9608731,24.6395387 34.9420923,24.6373147 34.9228171,24.6373147 C33.9689456,24.6373147 33.1929984,25.4135091 33.1929984,26.3671334 C33.1929984,26.8453048 33.3882208,27.2787479 33.7028007,27.5920923 C30.657084,33.1430807 24.8869028,36.5733114 18.5337727,36.5733114 Z M5.65576606,32.2826194 C5.38319605,32.2826194 5.16153213,32.0607084 5.16153213,31.7883855 C5.16153213,31.5158155 5.38319605,31.2941516 5.65576606,31.2941516 C5.92833608,31.2941516 6.15,31.5158155 6.15,31.7883855 C6.15,32.0607084 5.92833608,32.2826194 5.65576606,32.2826194 Z M4.29662273,7.84102142 C4.56919275,7.84102142 4.79085667,8.06268534 4.79085667,8.33525535 C4.79085667,8.60782537 4.56919275,8.82948929 4.29662273,8.82948929 C4.02405272,8.82948929 3.8023888,8.60782537 3.8023888,8.33525535 C3.8023888,8.06268534 4.02405272,7.84102142 4.29662273,7.84102142 Z M23.1785832,1.44192751 C23.4511532,1.44192751 23.6728171,1.66359143 23.6728171,1.93616145 C23.6728171,2.20873147 23.4511532,2.43039539 23.1785832,2.43039539 C22.9060132,2.43039539 22.6843493,2.20873147 22.6843493,1.93616145 C22.6843493,1.66359143 22.9060132,1.44192751 23.1785832,1.44192751 Z M36.1213344,25.1228995 C36.7467875,23.2420923 37.0675453,21.2777595 37.0675453,19.2751236 C37.0675453,11.4966227 32.1894563,4.53558484 24.9049423,1.86919275 C24.8693575,0.94645799 24.1097199,0.206342669 23.1785832,0.206342669 C22.5617792,0.206342669 22.0205931,0.531795717 21.7144152,1.01911038 C20.668369,0.838467875 19.6015651,0.741350906 18.5337727,0.741350906 C13.3608731,0.741350906 8.41235585,2.91919275 4.90799012,6.71911038 C4.71746293,6.64670511 4.51210873,6.60543657 4.29662273,6.60543657 C3.34275124,6.60543657 2.56680395,7.38138386 2.56680395,8.33525535 C2.56680395,8.70914333 2.68739703,9.05510708 2.89003295,9.33830313 C1.00008237,12.3074135 0,15.7344316 0,19.2751236 C0,23.5324547 1.47034596,27.6558484 4.14415157,30.9496705 C4.00551895,31.1982702 3.92594728,31.4839374 3.92594728,31.7883855 C3.92594728,32.7420099 4.70189456,33.5182043 5.65576606,33.5182043 C5.94242175,33.5182043 6.21252059,33.4470346 6.45098847,33.3229819 C9.81252059,36.2169687 14.0812191,37.8088962 18.5337727,37.8088962 C25.3764415,37.8088962 31.5872323,34.0947282 34.8365733,28.0927512 C34.8652389,28.0942339 34.8936573,28.0969522 34.9228171,28.0969522 C35.8766886,28.0969522 36.6526359,27.3210049 36.6526359,26.3671334 C36.6526359,25.8788303 36.4482702,25.4377265 36.1213344,25.1228995 Z" id="Fill-17" fill="#F2F2F2"></path>
            <path d="M26.6186985,29.4533773 C26.4642504,29.3565074 26.2929984,29.281631 26.106425,29.2369028 C25.1785008,29.0132619 24.242916,29.5865733 24.0200165,30.5142504 C23.9797364,30.6817957 23.9691104,30.8542834 23.9797364,31.0252883 C22.341598,31.7523064 20.5959638,32.1252059 18.7808896,32.1252059 C12.3192751,32.1252059 6.82092257,27.2226524 6.0306425,20.869028 C6.65189456,20.6065898 7.08879736,19.9910214 7.08879736,19.2751236 C7.08879736,18.5599671 6.6523888,17.9443987 6.03187809,17.6814662 C6.82364086,11.2378913 12.2359967,6.42504119 18.7808896,6.42504119 C21.5629325,6.42504119 24.1873147,7.28970346 26.4044481,8.9300659 C26.3856672,8.98443163 26.3693575,9.03978583 26.3555189,9.09662273 C26.2475288,9.54588138 26.3209226,10.0099671 26.5621087,10.4041186 C26.8032949,10.7982702 27.1836079,11.0747941 27.6328666,11.1827842 C27.7682867,11.2154036 27.9049423,11.2314662 28.0406096,11.2314662 C28.2644975,11.2314662 28.4854201,11.1855025 28.6934926,11.0997529 C30.5908567,13.3976936 31.630972,16.2800659 31.630972,19.2751236 C31.630972,23.3036244 29.8050247,26.9987644 26.6186985,29.4533773 Z M26.1825371,31.0341845 C26.1187809,31.2990939 25.850659,31.4614498 25.5862438,31.3991763 C25.4377265,31.3633443 25.3158979,31.2630148 25.2521417,31.1233937 L25.2521417,31.1231466 C25.2197694,31.0527183 25.1883855,30.9400329 25.2214992,30.802883 C25.2758649,30.5765239 25.4787479,30.4242998 25.7018946,30.4242998 C25.7401977,30.4242998 25.7787479,30.4287479 25.8175453,30.4381384 C26.0824547,30.5018946 26.2460461,30.7692751 26.1825371,31.0341845 Z M5.35897858,18.7808896 C5.6315486,18.7808896 5.85321252,19.0025535 5.85321252,19.2751236 C5.85321252,19.5476936 5.6315486,19.7693575 5.35897858,19.7693575 C5.08640857,19.7693575 4.86474465,19.5476936 4.86474465,19.2751236 C4.86474465,19.0025535 5.08640857,18.7808896 5.35897858,18.7808896 Z M27.7794069,9.07957166 C27.8579901,9.03138386 27.946458,9.00667216 28.0364086,9.00667216 C28.0752059,9.00667216 28.1142504,9.01112026 28.1530478,9.02051071 C28.2813015,9.05140033 28.3900329,9.13047776 28.4589786,9.24291598 C28.5276771,9.3553542 28.548682,9.48830313 28.5177924,9.61655684 C28.4869028,9.74505766 28.4080725,9.85354201 28.2953871,9.92248764 C28.1827018,9.99143328 28.05,10.0124382 27.9217463,9.9815486 C27.7934926,9.95065898 27.6847611,9.87158155 27.6158155,9.75889621 C27.547117,9.64645799 27.526112,9.51375618 27.5570016,9.38550247 C27.5878913,9.25700165 27.6667216,9.1485173 27.7794069,9.07957166 Z M29.7192751,9.90568369 C29.8272652,9.45642504 29.7538715,8.99184514 29.5126853,8.59794069 C29.2714992,8.20378913 28.8911862,7.92726524 28.4419275,7.81927512 C28.0186161,7.71721582 27.5829489,7.77850082 27.2043657,7.98731466 C24.783855,6.1806425 21.8125206,5.18945634 18.7808896,5.18945634 C15.2495881,5.18945634 11.8714992,6.50214168 9.2693575,8.88558484 C6.76037891,11.1837727 5.18080725,14.2836079 4.79258649,17.6424217 C4.11647446,17.8776771 3.6291598,18.519687 3.6291598,19.2751236 C3.6291598,20.0300659 4.11622735,20.6718287 4.79209226,20.9075783 C5.17710049,24.2401977 6.73369028,27.3165568 9.21301483,29.6125206 C11.8233114,32.0295717 15.2211697,33.3607908 18.7808896,33.3607908 C20.7733937,33.3607908 22.6900329,32.9505766 24.4887974,32.150659 C24.7092257,32.3681219 24.9857496,32.5255354 25.2973641,32.6004119 C25.4327842,32.6330313 25.5682043,32.6485997 25.7018946,32.6485997 C26.4827842,32.6483526 27.1932455,32.1150741 27.3837727,31.3230643 C27.456425,31.0208402 27.4433278,30.7186161 27.3622735,30.4396211 C30.811285,27.7833608 32.8665568,23.6295717 32.8665568,19.2751236 C32.8665568,15.9657331 31.7065898,12.7818781 29.5947282,10.252883 C29.6476112,10.142916 29.6901153,10.0270181 29.7192751,9.90568369 Z" id="Fill-18" fill="#F2F2F2"></path>
        </g>
    </g>
</svg>