<svg xmlns="http://www.w3.org/2000/svg" width="91" height="57">
  <g fill="#B4C2D0">
    <path d="M26.167 47.9077v8.8905a.1992.1992 0 0 1-.2017.2018h-1.6899a.1992.1992 0 0 1-.2017-.2018v-8.8905a.2013.2013 0 0 0-.101-.1765l-15.511-8.777c-.063-.0378-.1387-.0378-.2017.0126l-6.8602 4.5777c-.0883.063-.2144.0378-.2775-.0505l-.971-1.4502c-.063-.0883-.0378-.2144.063-.2774l7.163-4.5903c.0504-.0378.0882-.1009.0882-.164v-17.907c0-.063-.0378-.1261-.0883-.164L.2144 14.3636c-.0883-.063-.1135-.1766-.063-.2774l.9836-1.4629c.063-.0882.1765-.1135.2648-.0504l7.1628 4.5776a.1935.1935 0 0 0 .2018 0L23.998 8.3608c.063-.0378.1009-.1008.1009-.1639V.2018A.1992.1992 0 0 1 24.3007 0h1.6772a.1992.1992 0 0 1 .2017.2018v7.9951c0 .0757.0379.1387.101.164l11.1477 6.57c.1387.0757.1261.2901-.0252.3532l-1.6394.7062c-.0504.0252-.1135.0252-.1765-.0126l-10.5047-5.8388c-.063-.0378-.1387-.0378-.1891 0L9.647 18.9412c-.063.0378-.1009.1008-.1009.1639v17.8818c0 .0757.0379.1388.101.1766l15.5362 8.8022c.063.0378.1261.0378.1892 0l10.5046-5.5487c.0505-.0252.1261-.0252.1766 0l1.362.681c.1386.0757.1512.2648.0125.3405L26.268 47.7312c-.0504.0504-.1009.1135-.1009.1765z"/>
    <path d="M25.9022 23.6954h-1.5385c-.1513 0-.2648-.1135-.2648-.2649V19.37c0-.1513.1135-.2648.2648-.2648h1.5385c.1513 0 .2648.1135.2648.2648v4.0606c0 .1387-.126.2649-.2648.2649zm16.5073 11.5891v-6.8854c0-1.715-.8449-2.2825-2.1438-2.2825-1.198 0-2.2069.7314-2.7365 1.488v7.68h-2.3204V24.2753h2.3204v1.5007c.7062-.8701 2.0808-1.778 3.758-1.778 2.2951 0 3.4553 1.2736 3.4553 3.5309v7.7555h-2.333zm4.9182-7.125c0-4.4641 3.3544-7.3772 7.478-7.3772 2.7744 0 4.5903 1.3241 5.7505 2.9761l-2.0555 1.1602c-.744-1.072-2.0934-1.9042-3.695-1.9042-2.8247 0-4.918 2.1564-4.918 5.1577 0 2.9887 2.0933 5.1704 4.918 5.1704 1.4503 0 2.7366-.681 3.3797-1.2863v-2.2195H55.121V27.63h5.5613v5.3469c-1.4124 1.5637-3.4049 2.5851-5.8765 2.5851-4.1111 0-7.4781-2.9382-7.4781-7.4024zm15.3093 7.125v-10.328h2.2446v1.5132c.7693-.9836 2.0051-1.7529 3.3545-1.7529v2.2195c-.1892-.0378-.4288-.063-.7062-.063-.9458 0-2.2069 1.2358-2.6483 1.9672v6.444H62.637zm7.7176 0V24.9564h2.2447v10.3281zm11.5262-.3026v-1.4124c-.7189 1.0214-1.5007 1.6646-2.7113 1.6646-2.4087 0-4.1615-2.0051-4.1615-5.41 0-3.3292 1.7402-5.4352 4.1615-5.4352 1.1601 0 1.9546.5927 2.7113 1.6899v-5.3596h2.333V34.982h-2.333zm0-3.1023v-4.0984c-.4666-.7693-1.1602-1.3872-2.1312-1.3872-1.6142 0-2.6357 1.4376-2.6357 3.4427 0 1.9925 1.0215 3.4175 2.6357 3.4175.971 0 1.6646-.6053 2.1312-1.3746zm5.8513-10.4036h-.5927v1.7906h-.5297V21.476h-.5927v-.5045h1.7024v.5045zm2.5221 1.7906h-.5297v-1.3368l-.5927.9711h-.063l-.5927-.971v1.3367h-.5297v-2.2952h.5297l.618 1.0215.6178-1.0215h.5297v2.2952zm-42.523 21.8542l.9836-.58c.2775.7818.8575 1.1727 1.7277 1.1727.8575 0 1.2863-.3657 1.2863-.908 0-.29-.1135-.4918-.3531-.6431-.227-.1513-.6432-.3153-1.2233-.4918-.6683-.2018-.9962-.3279-1.4628-.6306-.4414-.3152-.6684-.7692-.6684-1.3997 0-.618.2144-1.0972.6558-1.4629.4414-.3657.9584-.5422 1.5763-.5422 1.1098 0 1.9673.58 2.4213 1.5259l-.9584.5548c-.29-.6431-.7693-.971-1.4629-.971-.6683 0-1.0845.3405-1.0845.8575s.3405.7567 1.3998 1.0845c.2648.0883.454.1514.58.2018.1262.0378.3027.1135.5171.2018.227.0883.391.1891.5044.2774.3657.29.7693.7693.7188 1.425 0 .6306-.227 1.135-.681 1.5007-.4413.3657-1.0466.5422-1.778.5422-1.362-.0126-2.333-.6557-2.6987-1.715zm9.1931-3.3796h1.135L56.155 46.861c-.4792 1.2736-1.2737 1.8916-2.4213 1.8285V47.668c.6684.0379 1.0467-.29 1.3242-.971l.0504-.1009-2.0934-4.855h1.1728l1.4755 3.594 1.261-3.594zm3.4175 2.005c.7693.164 1.7529.4919 1.7403 1.5511 0 .4792-.1892.8576-.5549 1.1224-.3657.2648-.8197.4035-1.3745.4035-.9837 0-1.7025-.4413-2.0177-1.1601l.9205-.5297c.164.4792.5297.7188 1.0972.7188.5674 0 .8449-.1891.8449-.5549 0-.3152-.4162-.5044-.9458-.6305-.744-.1891-1.7403-.4918-1.7277-1.5259 0-.454.164-.8197.517-1.097.3531-.2775.782-.4162 1.299-.4162.8196 0 1.488.3909 1.8285 1.034l-.908.5045c-.164-.3784-.4918-.5675-.9332-.5675-.4035 0-.7188.1765-.7188.5296 0 .3027.4162.4666.9332.618zm5.246-.9836h-1.2232v2.3834c0 .6305.4162.6305 1.2232.5801v.9584c-1.6393.2018-2.2951-.2522-2.2951-1.551V42.75h-.908v-1.0088h.908v-1.072l1.0719-.3152v1.3872h1.2232v1.0214zm1.6142 1.9042c.164.7567.7692 1.1728 1.589 1.1728.5674 0 .9962-.2144 1.2736-.618l.8827.5171c-.4918.7188-1.2106 1.0845-2.169 1.0845-.807 0-1.4628-.2522-1.9546-.7314-.4918-.4918-.744-1.1223-.744-1.879 0-.744.2522-1.362.7314-1.8537.4918-.5045 1.1223-.7567 1.879-.7567.7187 0 1.324.2522 1.7907.7693.4665.5044.7061 1.135.7061 1.8537 0 .1135-.0126.2523-.0378.4414H67.202zm2.9004-.8701c-.1513-.8071-.7188-1.2232-1.4124-1.2232-.7944 0-1.3493.4665-1.5006 1.2232h2.913zm9.3066-.1766v3.077h-1.0718v-3.0013c0-.681-.3657-1.0845-.9584-1.0845-.6684 0-1.0846.4414-1.0846 1.3115v2.7743h-1.0719v-3.0013c0-.681-.3404-1.0845-.9331-1.0845-.6432 0-1.0972.4414-1.0972 1.3115v2.7743h-1.0719v-4.956h1.072v.5927c.3152-.4918.7944-.7188 1.4123-.7188.6306 0 1.0971.2523 1.4124.7819.3279-.5296.8323-.7819 1.5133-.7819 1.135-.0126 1.879.7693 1.879 2.0051zm3.0518.1261c.7693.164 1.753.4919 1.7403 1.5511 0 .4792-.1892.8576-.5549 1.1224-.3657.2648-.8197.4035-1.3745.4035-.9836 0-1.7025-.4413-2.0177-1.1601l.9206-.5297c.1639.4792.5296.7188 1.097.7188.5676 0 .845-.1891.845-.5549 0-.3152-.4162-.5044-.9458-.6305-.744-.1891-1.7403-.4918-1.7277-1.5259 0-.454.164-.8197.517-1.097.3532-.2775.782-.4162 1.299-.4162.8197 0 1.488.3909 1.8285 1.034l-.908.5045c-.1639-.3784-.4918-.5675-.9331-.5675-.4036 0-.7188.1765-.7188.5296 0 .3027.4161.4666.9331.618z"/>
    <path d="M27.5038 20.7066v2.0556c0 .0882.0504.1765.1387.2143 2.0303.9458 3.4427 3.014 3.43 5.41-.0125 3.1022-2.4968 5.7252-5.599 5.9018-3.4301.1891-6.2675-2.5474-6.2675-5.927 0-2.3834 1.425-4.4516 3.4553-5.3848.063-.0252.1009-.0882.1009-.1639v-2.1564c0-.1261-.1261-.2144-.2396-.1766-3.5562 1.1854-6.0531 4.7038-5.6496 8.7392.4035 3.9976 3.6823 7.1754 7.6925 7.4403 4.8425.3278 8.8905-3.5184 8.8905-8.2978 0-3.6445-2.3582-6.7467-5.6244-7.869-.1639-.0631-.3278.063-.3278.2143zm42.8508.2018h2.2447v2.2447h-2.2447z"/>
  </g>
</svg>
