<?xml version="1.0" encoding="utf-8"?>
<!-- Generator: Adobe Illustrator 21.0.0, SVG Export Plug-In . SVG Version: 6.00 Build 0)  -->
<svg version="1.1" id="Слой_1" xmlns="http://www.w3.org/2000/svg" xmlns:xlink="http://www.w3.org/1999/xlink" x="0px" y="0px"
	 viewBox="0 0 94.7 78" style="enable-background:new 0 0 94.7 78;" xml:space="preserve">
<style type="text/css">
	.st0{fill:#5E94FD;}
</style>
<g id="ADA">
	<circle class="st0" cx="55.2" cy="27.4" r="5.6"/>
	<circle class="st0" cx="48.4" cy="16.3" r="3.3"/>
	<circle class="st0" cx="48.4" cy="62" r="3.3"/>
	<circle class="st0" cx="33.7" cy="64.9" r="2.8"/>
	<circle class="st0" cx="63.5" cy="64.9" r="2.8"/>
	<circle class="st0" cx="33.7" cy="13.4" r="2.8"/>
	<circle class="st0" cx="63.5" cy="13.4" r="2.8"/>
	<circle class="st0" cx="78.5" cy="39" r="2.8"/>
	<circle class="st0" cx="18.8" cy="39" r="2.8"/>
	<circle class="st0" cx="88.9" cy="39.2" r="1.9"/>
	<circle class="st0" cx="8.1" cy="39.2" r="1.9"/>
	<circle class="st0" cx="80.4" cy="57.3" r="2.4"/>
	<circle class="st0" cx="48.4" cy="75.6" r="2.4"/>
	<circle class="st0" cx="48.4" cy="2.4" r="2.4"/>
	<circle class="st0" cx="28.2" cy="4.1" r="1.9"/>
	<circle class="st0" cx="68.6" cy="4.1" r="1.9"/>
	<circle class="st0" cx="28.2" cy="74.2" r="1.9"/>
	<circle class="st0" cx="68.6" cy="74.2" r="1.9"/>
	<circle class="st0" cx="80.4" cy="20.6" r="2.4"/>
	<circle class="st0" cx="16.9" cy="57.3" r="2.4"/>
	<circle class="st0" cx="16.9" cy="20.6" r="2.4"/>
	<circle class="st0" cx="68.3" cy="27.5" r="3.3"/>
	<circle class="st0" cx="28.7" cy="27.5" r="3.3"/>
	<circle class="st0" cx="68.3" cy="50.6" r="3.3"/>
	<circle class="st0" cx="28.7" cy="50.6" r="3.3"/>
	<circle class="st0" cx="41.8" cy="27.4" r="5.6"/>
	<circle class="st0" cx="55.2" cy="50.7" r="5.6"/>
	<circle class="st0" cx="61.9" cy="39" r="5.6"/>
	<circle class="st0" cx="35.1" cy="39" r="5.6"/>
	<circle class="st0" cx="41.8" cy="50.7" r="5.6"/>
</g>
</svg>
