<?xml version="1.0" encoding="utf-8"?>
<!-- Generator: Adobe Illustrator 21.0.0, SVG Export Plug-In . SVG Version: 6.00 Build 0)  -->
<svg version="1.1" id="Слой_1" xmlns="http://www.w3.org/2000/svg" xmlns:xlink="http://www.w3.org/1999/xlink" x="0px" y="0px"
	 viewBox="0 0 94.7 78" style="enable-background:new 0 0 94.7 78;" xml:space="preserve">
<style type="text/css">
	.st0{fill:#5E94FD;}
</style>
<g id="BCH">
	<path class="st0" d="M61.2,32.3c0,0,4.3-5.2,1-12.1c-3.3-7-12.5-3.2-12.5-3.2l-2.8-6l-5.5,2.6l2.8,6l-6,2.8l-2.8-6L30,19.1l2.8,6
		l-5.5,2.6l-4.3,2l2.6,5.5l4.3-2l4,8.5l8.1,17.1l-4.4,2.1l2.6,5.6l4.4-2.2l5.5-2.6l2.6,5.5l5.5-2.6l-2.6-5.5l5.8-2.7l2.6,5.5
		l5.8-2.7l-2.8-6c0,0,11-5.3,6.7-14.2C69.3,29.7,61.2,32.3,61.2,32.3z M38.3,29.2l10.5-4.9c0,0,3.7-2.4,5.9,2.1
		c2.1,4.5-1.8,6.4-1.8,6.4l-10.5,4.9L38.3,29.2z M62.8,48.6l-12.4,6l-5.3-11l12.4-6c0,0,4.4-2.9,7.2,2.9
		C67.6,46.4,62.8,48.6,62.8,48.6z"/>
	<path class="st0" d="M48.6,77.9c-21.4,0-38.9-17.5-38.9-38.9c0-21.5,17.5-39,38.9-39s39,17.5,39,39C87.6,60.5,70.1,77.9,48.6,77.9z
		 M48.6,2.2c-20.3,0-36.9,16.5-36.9,36.9c0,20.3,16.6,36.9,36.9,36.9s36.9-16.6,36.9-36.9C85.5,18.6,69,2.2,48.6,2.2z"/>
</g>
</svg>
