<?xml version="1.0" encoding="utf-8"?>
<!-- Generator: Adobe Illustrator 21.0.0, SVG Export Plug-In . SVG Version: 6.00 Build 0)  -->
<svg version="1.1" id="Слой_1" xmlns="http://www.w3.org/2000/svg" xmlns:xlink="http://www.w3.org/1999/xlink" x="0px" y="0px"
	 viewBox="0 0 94.7 78" style="enable-background:new 0 0 94.7 78;" xml:space="preserve">
<style type="text/css">
	.st0{fill:#5E94FD;}
</style>
<g id="EOS">
	<path class="st0" d="M47.9,78L21.7,61.6l8.2-37.2L47.7,0.2l18.2,24.9v0.2l7.9,36.3L47.9,78z M24.1,60.7l23.8,14.9l23.7-14.9
		L64.1,26L47.7,3.6L31.8,25.2L24.1,60.7z"/>
	<polygon class="st0" points="71.9,61.7 47.8,20.2 23.9,61.6 22.1,60.6 47.8,16.2 73.6,60.7 	"/>
	<rect x="46.8" y="1.8" class="st0" width="2" height="16.4"/>
	<rect x="38.5" y="23.4" transform="matrix(0.9508 -0.3098 0.3098 0.9508 -13.7833 14.7254)" class="st0" width="2" height="54.7"/>
	<rect x="29.5" y="50.2" transform="matrix(0.3164 -0.9486 0.9486 0.3164 -9.9174 88.5326)" class="st0" width="54" height="2"/>
	<rect x="23" y="60.1" class="st0" width="49.8" height="2"/>
</g>
</svg>
