<?xml version="1.0" encoding="utf-8"?>
<!-- Generator: Adobe Illustrator 21.0.0, SVG Export Plug-In . SVG Version: 6.00 Build 0)  -->
<svg version="1.1" id="Слой_1" xmlns="http://www.w3.org/2000/svg" xmlns:xlink="http://www.w3.org/1999/xlink" x="0px" y="0px"
	 viewBox="0 0 94.7 78" style="enable-background:new 0 0 94.7 78;" xml:space="preserve">
<style type="text/css">
	.st0{fill:#5E94FD;}
</style>
<g id="ETP">
	<polygon class="st0" points="61.2,32.9 61.2,55.3 67.7,51.6 67.7,29.2 61.2,25.1 54.3,28.9 	"/>
	<polygon class="st0" points="47.9,32.9 47.9,55.3 54.3,51.6 54.3,29.2 47.9,25.1 41,28.9 	"/>
	<polygon class="st0" points="34.5,32.9 34.5,55.3 41,51.6 41,29.2 34.5,25.1 27.6,28.9 	"/>
	<circle class="st0" cx="19.7" cy="61.5" r="8.3"/>
	<circle class="st0" cx="16" cy="25.6" r="8.3"/>
	<circle class="st0" cx="12.4" cy="44.5" r="5.7"/>
	<circle class="st0" cx="85.1" cy="35.2" r="4.6"/>
	<circle class="st0" cx="82.7" cy="53.9" r="4.3"/>
	<circle class="st0" cx="26.4" cy="10.4" r="4.3"/>
	<circle class="st0" cx="44.1" cy="3.4" r="3.4"/>
	<circle class="st0" cx="71.1" cy="68.7" r="3.4"/>
	<circle class="st0" cx="62.9" cy="6.1" r="2.9"/>
	<circle class="st0" cx="53.1" cy="75.7" r="2.2"/>
	<circle class="st0" cx="78.1" cy="17.8" r="2.2"/>
	<circle class="st0" cx="35.5" cy="72.8" r="1.5"/>
</g>
</svg>
