<?xml version="1.0" encoding="utf-8"?>
<!-- Generator: Adobe Illustrator 21.0.0, SVG Export Plug-In . SVG Version: 6.00 Build 0)  -->
<svg version="1.1" id="Слой_1" xmlns="http://www.w3.org/2000/svg" xmlns:xlink="http://www.w3.org/1999/xlink" x="0px" y="0px"
	 viewBox="0 0 94.7 78" style="enable-background:new 0 0 94.7 78;" xml:space="preserve">
<style type="text/css">
	.st0{fill:#5E94FD;}
</style>
<g id="OMG">
	<g>
		<path class="st0" d="M38,40.5c-5.2,0-9.5-4.3-9.5-9.5s4.3-9.5,9.5-9.5s9.5,4.3,9.5,9.5S43.2,40.5,38,40.5z M38,25.6
			c-3,0-5.4,2.4-5.4,5.4s2.4,5.4,5.4,5.4s5.4-2.4,5.4-5.4S41,25.6,38,25.6z"/>
		<path class="st0" d="M38,60.7c-5.2,0-9.5-4.3-9.5-9.5s4.3-9.5,9.5-9.5s9.5,4.3,9.5,9.5S43.2,60.7,38,60.7z M38,45.8
			c-3,0-5.4,2.4-5.4,5.4s2.4,5.4,5.4,5.4s5.4-2.4,5.4-5.4C43.4,48.3,41,45.8,38,45.8z"/>
		<path class="st0" d="M58.3,40.5c-5.2,0-9.5-4.3-9.5-9.5s4.3-9.5,9.5-9.5s9.5,4.3,9.5,9.5S63.6,40.5,58.3,40.5z M58.3,25.6
			c-3,0-5.4,2.4-5.4,5.4s2.4,5.4,5.4,5.4s5.4-2.4,5.4-5.4S61.3,25.6,58.3,25.6z"/>
		<rect x="37" y="21.5" class="st0" width="11" height="4.1"/>
	</g>
	<path class="st0" d="M47.3,78C25.9,78,8.4,60.5,8.4,39.1S25.9,0.2,47.3,0.2c21.5,0,38.9,17.5,38.9,38.9S68.8,78,47.3,78z M47.3,2.2
		C27,2.2,10.4,18.7,10.4,39.1S27,76,47.3,76s36.9-16.5,36.9-36.9S67.8,2.2,47.3,2.2z"/>
</g>
</svg>
