<?xml version="1.0" encoding="utf-8"?>
<!-- Generator: Adobe Illustrator 21.0.0, SVG Export Plug-In . SVG Version: 6.00 Build 0)  -->
<svg version="1.1" id="Слой_1" xmlns="http://www.w3.org/2000/svg" xmlns:xlink="http://www.w3.org/1999/xlink" x="0px" y="0px"
	 viewBox="0 0 94.7 78" style="enable-background:new 0 0 94.7 78;" xml:space="preserve">
<style type="text/css">
	.st0{fill:none;stroke:#5E94FD;stroke-width:2;stroke-miterlimit:10;}
	.st1{fill:#5E94FD;}
</style>
<g id="XLM">
	<line class="st0" x1="21.8" y1="62.2" x2="7.1" y2="76.9"/>
	<line class="st0" x1="22.9" y1="67.1" x2="14.2" y2="75.8"/>
	<path class="st1" d="M37.3,39.1c0,0-12.7,12.2-6.2,18.7s18.3-6.6,18.3-6.6L37.3,39.1z"/>
	<path class="st1" d="M84.3,0.9c0,0-14.1-3.3-24.4,4.3c-10.4,7.6-15,16-15,16s-6.8-2.5-13.3,0.8s-9.3,7.1-9.3,7.1s3.8,0,7.3,0.8
		c3.5,0.8,6.2,3,6.2,3l-0.7,1.8c-0.4,1.1-0.2,2.3,0.7,3.2l7.4,7.4l0.8,0.8l6.8,6.8c0.8,0.8,2.1,1.1,3.2,0.7l2.3-1.8
		c0,0,2.8,2.8,3.3,6c0.6,3.3,0,8.7,0,8.7s4-2.5,7.3-9c3.3-6.5,0.6-15.8,0.6-15.8s8.2-5.4,14.9-16.1C89.2,15,84.3,0.9,84.3,0.9z
		 M72.1,25c-3.3,3.3-8.7,3.3-11.9,0c-3.3-3.3-3.3-8.7,0-11.9s8.7-3.3,11.9,0C75.4,16.4,75.4,21.7,72.1,25z"/>
</g>
</svg>
