<?xml version="1.0" encoding="utf-8"?>
<!-- Generator: Adobe Illustrator 21.0.0, SVG Export Plug-In . SVG Version: 6.00 Build 0)  -->
<svg version="1.1" id="Слой_1" xmlns="http://www.w3.org/2000/svg" xmlns:xlink="http://www.w3.org/1999/xlink" x="0px" y="0px"
	 viewBox="0 0 94.7 78" style="enable-background:new 0 0 94.7 78;" xml:space="preserve">
<style type="text/css">
	.st0{fill:#5E94FD;}
</style>
<g id="XRP">
	<g>
		<circle class="st0" cx="58.6" cy="24.6" r="10.3"/>
		<circle class="st0" cx="58.6" cy="53.3" r="10.3"/>
		<circle class="st0" cx="33.5" cy="39.1" r="10.3"/>
		<path class="st0" d="M42.5,43.8c0,0,3.6-4.4,6.1-1.3c2.5,3.1,1.4,4.9,1.4,4.9l7.6-4.3c0,0-3.7-0.5-3.7-4.1s3.7-4.2,3.7-4.2
			l-7.7-4.7c0,0,2,3.5-0.8,5.4s-7-2-7-2L42.5,43.8z"/>
	</g>
	<path class="st0" d="M48.5,78c-21.6,0-39-17.4-39-39s17.4-39,39-39s39,17.4,39,39S70,78,48.5,78z M48.5,1.9
		c-20.4,0-36.9,16.6-36.9,36.9s16.6,36.9,36.9,36.9c20.4,0,36.9-16.6,36.9-36.9S68.9,1.9,48.5,1.9z"/>
</g>
</svg>
